<ttFont>
          <CharString index="0">
            hstem
            -190 9 117 44 514 17 vstem
            502 586 rmoveto
            25 -7 20 -13 16 vhcurveto
            15 -14 -19 8 -24 hhcurveto
            -7 -4 3 callsubr
            3 -2 6 -1 hvcurveto
            27 -4 14 -18 -30 vvcurveto
            -51 -29 -78 -56 -106 vhcurveto
            -44 -81 -45 -76 -51 -70 -48 -5 rcurveline
            47 65 49 78 47 91 rrcurveto
            60 114 30 85 52 vvcurveto
            -43 callgsubr
            -1 1 vhcurveto
            -4 -3 -2 -5 -1 hvcurveto
            -18 -59 -11 -37 -5 -12 -49 -127 -71 -126 -93 -123 -52 -10 -47 -15 -42 -22 rrcurveto
            -60 -30 -31 -34 -39 vvcurveto
            -21 10 -20 20 -19 vhcurveto
            -28 -20 -30 -16 -35 -12 rrcurveto
            -7 -43 callsubr
            -4 vvcurveto
            -3 2 -1 5 25 37 16 33 46 vhcurveto
            9 -6 10 -7 12 -6 rrcurveto
            -43 -57 -51 -22 -44 hhcurveto
            -25 -13 9 18 6 1 7 2 6 hvcurveto
            -8 -6 -4 -10 -14 vvcurveto
            -20 15 -9 31 47 57 23 47 66 vhcurveto
            -18 39 33 -9 26 hhcurveto
            7 -52 callsubr
            3 -3 2 -6 1 hvcurveto
            -41 7 -30 8 -18 9 75 56 77 77 81 101 29 4 38 3 48 3 55 4 rcurveline
            12 1 6 4 6 vvcurveto
            -39 callsubr
            -5 5 -17 0 -2 -40 vhcurveto
            -53 -2 -38 -3 -23 -2 52 69 47 70 40 72 rrcurveto
            52 96 27 75 56 vvcurveto
            210 -612 rmoveto
            -58 -36 -33 -28 -29 hhcurveto
            -23 -20 20 39 -17 hvcurveto
            -29 65 -14 121 174 vvcurveto
            159 vlineto
            15 -1 -4 6 -5 1 callsubr
            -5 -13 -1 hvcurveto
            -4 -55 -4 -32 -1 -9 rrcurveto
            -17 -143 -7 -89 -35 vvcurveto
            -56 6 -43 15 -32 vhcurveto
            10 -23 18 -23 25 -20 rrcurveto
            -20 25 24 -11 24 hhcurveto
            16 15 5 9 16 hvcurveto
            11 6 12 14 14 18 rrcurveto
            13 18 7 14 12 vvcurveto
            return
          </CharString>
          <CharString index="1">
            552 -45 19 599 24 hstem
            -14 22 177 52 336 53 vstem
            829 130 -30 callsubr
            -2 -3 -2 -5 -3 vhcurveto
            -10 -15 -6 -12 -5 -8 rrcurveto
            -74 -47 -39 -37 -31 hhcurveto
            -37 -18 48 95 50 12 74 24 100 hvcurveto
            23 99 12 57 15 vvcurveto
            8 -6 4 -15 -11 -8 -6 -10 -4 vhcurveto
            -5 -22 -10 -41 -5 -24 -4 -6 rlinecurve
            -10 -20 -9 -16 -6 -11 -40 -70 -50 -76 -61 -82 rrcurveto
            -115 -85 -62 -57 -38 hhcurveto
            -21 -10 21 41 100 48 139 96 180 hvcurveto
            11 22 11 19 10 18 14 22 rcurveline
            3 vlineto
            12 -26 13 -52 15 vhcurveto
            11 14 16 16 21 20 2 1 -64 callsubr
            rrcurveto
            2 -1 0 -3 -8 -19 -18 -37 -30 vhcurveto
            11 -41 -41 5 -40 hhcurveto
            -92 -69 -24 -49 -48 hvcurveto
            -16 -16 -7 -15 -15 vvcurveto
            -33 28 -29 56 -23 vhcurveto
            -4 11 7 -29 callsubr
            -24 callsubr
            1 1 -8 5 -15 7 hvcurveto
            -19 8 -14 9 -9 8 rrcurveto
            -15 12 -7 14 16 vvcurveto
            13 6 12 13 12 vhcurveto
            45 46 60 23 71 hhcurveto
            37 38 -7 -13 39 hvcurveto
            -55 -74 -48 -92 -41 -110 rrcurveto
            -44 -116 -22 -101 -86 vvcurveto
            -20 1 -9 3 -52 callsubr
            6 87 22 103 43 121 vhcurveto
            42 115 49 95 54 75 40 -16 rcurveline
            -42 -72 -39 -80 -35 -88 rrcurveto
            -44 -110 -22 -82 -58 vvcurveto
            -59 21 -30 42 48 68 54 107 85 vhcurveto
            54 65 53 76 53 87 rrcurveto
            -24 -96 -12 -76 -57 vvcurveto
            -98 33 -49 68 44 51 52 104 58 vhcurveto
            -64 callsubr
            2 vvcurveto
            return
          </CharString>
          <CharString index="2">
            272 231 rmoveto
            34 -17 17 -33 1 vhcurveto
            71 -7 -24 35 -41 hhcurveto
            -33 -27 -21 -42 -22 hvcurveto
            -11 -21 -6 -25 -29 vvcurveto
            -28 5 -28 11 -27 vhcurveto
            -31 -43 -15 -41 -41 vvcurveto
            -33 13 -17 26 18 22 11 22 26 vhcurveto
            24 21 13 11 -2 1 rrcurveto
            -27 callsubr
            3 hvcurveto
            -1 2 2 0 1 hhcurveto
            7 8 3 5 8 hvcurveto
            -31 hlineto
            31 43 20 63 8 81 rrcurveto
            10 8 -4 -7 7 hvcurveto
            7 -7 3 -9 -10 -2 -1 -3 -5 vvcurveto
            -2 -4 0 -3 -2 -41 callgsubr
            9 4 14 27 vhcurveto
            -66 50 rmoveto
            -44 -13 -43 -34 -41 -55 rrcurveto
            -2 11 -1 12 13 vvcurveto
            32 5 30 12 27 vhcurveto
            42 18 20 21 21 hhcurveto
            24 18 -29 -57 13 hvcurveto
            1 -28 rmoveto
            -22 -9 -32 -17 -43 vhcurveto
            -17 -43 -16 -28 -16 -15 -20 5 -17 28 -14 50 7 14 19 20 31 25 31 25 23 14 15 2 rrcurveto
            return
          </CharString>
          <CharString index="3">
            hstem
            200 32 vstem
            319 57 rmoveto
            4 -1 -39 callsubr
            -7 -6 -11 -13 vhcurveto
            -11 -13 -11 -6 -11 hhcurveto
            -20 -10 16 32 46 7 49 15 51 hvcurveto
            13 17 6 19 19 vvcurveto
            7 -7 4 -14 -9 -5 -2 -5 -4 vhcurveto
            -10 -13 -10 -31 -7 -48 -6 -10 rcurveline
            -38 -63 -47 -47 -49 -37 42 131 rcurveline
            18 57 8 44 30 vvcurveto
            28 -6 14 -12 -12 -8 -9 -17 -4 vhcurveto
            -9 -37 -21 -48 -32 -56 -30 -51 rcurveline
            -3 2 -1 3 -24 callsubr
            1 vhcurveto
            11 14 17 25 21 37 22 38 14 25 4 14 rrcurveto
            -32 -3 -28 -7 -24 vhcurveto
            -4 -15 -14 -30 -24 -46 rrcurveto
            -19 -37 -10 -30 -25 vvcurveto
            -4 4 -2 7 9 6 1 3 4 vhcurveto
            15 11 12 9 7 6 58 45 42 47 25 48 rrcurveto
            -3 -33 -2 -28 -24 vvcurveto
            -49 14 -25 29 28 25 16 32 23 vhcurveto
            return
          </CharString>
          <CharString index="4">
            1 -21 callsubr
            -5 -11 -4 -8 -15 hvcurveto
            -15 -8 -9 -6 -4 -4 -50 callgsubr
            5 4 -64 callgsubr
            10 11 22 7 hvcurveto
            4 14 5 11 5 8 8 9 rcurveline
            5 5 2 3 1 vvcurveto
            return
          </CharString>
          <CharString index="5">
            -96 callsubr
            -181 182 -103 callgsubr
            146 -169 rmoveto
            -84 -39 -79 -78 -71 vhcurveto
            -76 -70 -80 -35 -87 -1 52 66 47 81 42 94 41 92 28 88 16 85 41 -9 33 -20 24 -29 rrcurveto
            24 -30 12 -36 -42 vvcurveto
            return
          </CharString>
          <CharString index="6">
            rmoveto
            6 -3 6 -7 5 vhcurveto
            5 -7 -6 2 -7 -34 callgsubr
            -11 -3 hvcurveto
            -5 -17 -12 -17 -19 -16 -3 -3 -17 -13 -31 -23 rrcurveto
            -9 -7 -5 -7 -5 -8 callsubr
            -1 vhcurveto
            5 18 9 19 30 hvcurveto
            56 36 9 5 10 4 9 6 rlinecurve
            13 8 6 8 7 vvcurveto
            return
          </CharString>
          <CharString index="7">
            -12 rmoveto
            2 -3 2 -7 1 vhcurveto
            -27 5 -33 2 -40 1 5 20 6 32 7 43 7 43 6 33 6 21 5 3 6 7 5 13 rrcurveto
            4 13 3 10 8 vvcurveto
            7 -5 3 -10 -15 -9 -4 -7 -4 vhcurveto
            -25 -79 -7 -8 -8 -7 -8 -8 rlinecurve
            -11 -11 -5 -9 -5 15 callsubr
            2 11 9 17 19 vhcurveto
            -3 -14 -4 -23 -3 -32 -3 -31 -5 -25 -5 -17 -126 -3 -110 -29 -94 -55 -46 -27 -40 -31 -33 -36 rrcurveto
            -44 -47 -22 -45 -41 vvcurveto
            -48 29 -24 57 41 49 14 27 59 vhcurveto
            74 35 64 44 55 54 63 61 40 66 18 70 rrcurveto
            29 26 -1 -3 23 hvcurveto
            -1 11 5 -1 1 hhcurveto
            12 6 3 5 hvcurveto
            -150 -3 rmoveto
            -26 -87 -53 -77 -80 -69 rrcurveto
            -73 -84 -85 -36 -87 hhcurveto
            -51 -26 17 33 32 20 37 40 41 hvcurveto
            31 33 34 27 36 22 46 28 53 23 61 19 61 18 57 10 53 2 rrcurveto
            return
          </CharString>
          <CharString index="8">
            413 -432 40 347 19 599 24 hstem
            -14 22 177 52 vstem
            736 477 rmoveto
            5 -6 2 -15 -20 -18 -4 -8 -16 vhcurveto
            -27 -13 -23 -32 -15 -54 -4 -12 -2 -9 -1 -5 -16 -27 -13 -21 -10 -15 -41 -63 -42 -59 -44 -55 rrcurveto
            -88 -72 -52 -45 -31 hhcurveto
            -21 -10 21 41 100 48 139 96 180 hvcurveto
            11 22 11 19 10 18 14 22 rcurveline
            3 vlineto
            12 -26 13 -52 15 vhcurveto
            11 14 16 16 21 20 2 1 -64 callsubr
            rrcurveto
            2 -1 0 -3 -8 -19 -18 -37 -30 vhcurveto
            11 -41 -41 5 -40 hhcurveto
            -92 -69 -24 -49 -48 hvcurveto
            -16 -16 -7 -15 -15 vvcurveto
            -32 26 -27 54 -24 vhcurveto
            -6 13 9 -29 callsubr
            -24 callsubr
            1 1 -8 5 -15 7 hvcurveto
            -19 8 -14 9 -9 8 rrcurveto
            -15 12 -7 14 16 vvcurveto
            13 6 12 13 12 vhcurveto
            45 47 59 23 71 hhcurveto
            37 38 -7 -13 39 hvcurveto
            -55 -74 -48 -92 -41 -110 rrcurveto
            -44 -116 -22 -101 -86 vvcurveto
            -20 1 -9 3 -52 callsubr
            6 87 22 103 43 121 vhcurveto
            42 115 49 95 54 75 40 -16 rcurveline
            -42 -72 -39 -80 -35 -88 rrcurveto
            -44 -110 -22 -82 -58 vvcurveto
            -59 21 -30 43 47 63 49 97 77 vhcurveto
            48 60 48 70 47 80 -8 -32 rcurveline
            -26 -95 -11 -72 -10 -48 -21 -108 -24 -80 -24 -54 -38 -82 -54 -62 -71 -40 rrcurveto
            -20 -36 -39 -10 -43 hhcurveto
            -68 -50 25 51 -33 hvcurveto
            -7 9 -7 14 -6 18 rrcurveto
            5 -3 -2 3 -2 hhcurveto
            -13 callsubr
            -3 -2 0 -45 callsubr
            hvcurveto
            16 -47 26 -36 33 -28 rrcurveto
            -29 37 42 -15 47 hhcurveto
            35 32 8 17 31 hvcurveto
            66 37 57 60 46 83 36 65 31 82 28 102 59 247 rcurveline
            25 107 31 65 36 23 rrcurveto
            3 10 7 3 5 9 callsubr
            2 2 3 vvcurveto
            return
          </CharString>
          <CharString index="9">
            20 -13 20 243 22 66 -20 hstem
            253 32 vstem
            285 230 rmoveto
            28 -11 14 -21 -21 -30 -20 -41 -38 vhcurveto
            -14 -15 -25 -30 -36 -45 rrcurveto
            31 71 15 59 47 vvcurveto
            27 -5 13 -11 -9 -7 -9 -17 -4 vhcurveto
            -9 -36 -21 -47 -36 -58 -31 -49 rcurveline
            -1 -1 0 -1 -1 vvcurveto
            -3 2 -1 3 -24 callsubr
            1 vhcurveto
            11 14 17 25 21 37 22 38 14 25 4 14 rrcurveto
            -32 -3 -28 -7 -24 vhcurveto
            -14 -51 -20 -50 -24 -51 -5 -10 -3 -9 -4 -8 rrcurveto
            -4 4 -4 7 -5 vhcurveto
            -4 7 6 -29 callsubr
            2 2 -26 callgsubr
            10 29 33 86 13 23 21 28 30 34 rlinecurve
            40 36 25 21 17 hhcurveto
            11 6 -9 -18 -13 -4 -14 -7 -16 hvcurveto
            -7 -16 -4 -8 -1 -48 callsubr
            2 10 12 9 19 13 vhcurveto
            11 15 5 17 19 vvcurveto
            return
          </CharString>
          <CharString index="10">
            35 vstem
            733 698 rmoveto
            11 -6 5 -13 vhcurveto
            -6 hlineto
            -7 16 -22 13 -37 9 rrcurveto
            7 -29 -28 4 -25 hhcurveto
            -33 -39 -3 -6 -45 hvcurveto
            -39 -5 -38 -6 -39 -6 rrcurveto
            -38 hlineto
            31 -11 15 -27 -41 vvcurveto
            -37 -12 -43 -23 -49 vhcurveto
            -23 -48 -27 -37 -29 -27 rrcurveto
            -16 -18 -15 -8 -12 hhcurveto
            -14 -7 9 19 28 20 50 39 71 hvcurveto
            39 71 20 37 2 vvcurveto
            9 -7 5 -14 -11 -15 -20 -38 -22 vhcurveto
            -14 -26 -13 -23 -9 -23 rrcurveto
            -23 -54 -11 -44 -33 vvcurveto
            -37 14 -18 27 32 36 26 52 41 vhcurveto
            31 40 25 40 17 41 rrcurveto
            15 35 7 31 25 vvcurveto
            25 -8 18 -16 10 vhcurveto
            16 115 71 8 29 hhcurveto
            75 42 -11 -23 11 hvcurveto
            -11 -3 -10 -5 -8 -7 -68 -57 -50 -45 -33 -31 -111 -105 -102 -104 -90 -105 -77 -90 -57 -77 -39 -65 rrcurveto
            -34 -57 -17 -39 -22 vvcurveto
            -6 2 -6 5 -6 vhcurveto
            -5 4 5 -3 6 hhcurveto
            5 2 3 6 2 hvcurveto
            9 34 9 26 9 19 70 150 176 201 285 249 65 57 51 42 33 28 rrcurveto
            3 3 1 2 callsubr
            -111 -465 rmoveto
            7 -14 4 -29 vhcurveto
            69 -7 -25 35 -45 hhcurveto
            -29 -24 -15 -30 -19 hvcurveto
            -16 -26 -9 -28 -31 vvcurveto
            -29 7 -29 13 -30 vhcurveto
            -31 -43 -16 -42 -40 vvcurveto
            -34 13 -17 26 18 22 11 23 26 vhcurveto
            22 26 12 11 -2 hhcurveto
            -27 callsubr
            2 hvcurveto
            -1 2 2 0 1 hhcurveto
            8 8 2 5 8 hvcurveto
            -32 hlineto
            40 56 20 56 57 vvcurveto
            6 0 6 -1 7 vhcurveto
            7 8 2 3 9 hvcurveto
            12 5 6 4 5 vvcurveto
            return
          </CharString>
          <CharString index="11">
            460 13 49 14 hstem
            57 -59 callgsubr
            vstem
            -102 callgsubr
            return
          </CharString>
          <CharString index="12">
            20 -385 28 517 32 135 -20 hstem
            -305 20 475 33 1 34 70 13 vstem
            341 -43 rmoveto
            13 -13 11 -25 9 vhcurveto
            -20 7 -19 3 -17 1 rrcurveto
            7 27 4 29 33 vvcurveto
            68 -19 34 -39 -13 -16 -6 -11 -18 vhcurveto
            47 51 23 41 30 vvcurveto
            20 -15 10 -30 -37 -41 -39 -78 -46 vhcurveto
            -40 -68 rlineto
            -2 -3 -1 -3 -2 vvcurveto
            -3 1 -2 -52 callsubr
            2 4 2 vhcurveto
            115 70 51 57 33 hhcurveto
            9 5 -5 -10 -16 -13 -25 -25 -34 hvcurveto
            -20 -27 -19 -23 -19 -17 rrcurveto
            -3 -3 -2 18 callgsubr
            -6 3 -3 7 vhcurveto
            0 10 5 19 9 vhcurveto
            9 19 15 5 13 hhcurveto
            33 16 -24 -49 -26 -5 -29 -9 -31 hvcurveto
            -126 -3 -110 -29 -94 -55 -46 -27 -40 -31 -34 -36 rrcurveto
            -44 -47 -21 -45 -41 vvcurveto
            -48 29 -24 57 41 49 14 27 59 vhcurveto
            74 35 64 44 55 54 63 61 40 66 18 70 rrcurveto
            13 16 -3 -7 19 hvcurveto
            24 -8 12 -9 -9 vvcurveto
            -1 0 -13 callsubr
            vhcurveto
            -1 -1 0 -2 -1 -48 callsubr
            2 8 4 7 13 vhcurveto
            -134 28 rmoveto
            -26 -87 -53 -77 -80 -69 rrcurveto
            -73 -85 -85 -36 -87 hhcurveto
            -51 -25 17 33 32 20 36 40 42 hvcurveto
            31 32 33 28 37 22 45 28 53 23 61 19 61 18 57 10 54 2 rrcurveto
            return
          </CharString>
          <CharString index="13">
            3 -1 -39 callsubr
            vhcurveto
            -66 53 -22 18 -18 19 -15 20 rlinecurve
            -8 4 rlineto
            -7 1 -4 -5 -9 vvcurveto
            -7 33 -44 65 -83 vhcurveto
            -66 -92 -33 -51 -10 vvcurveto
            -4 2 -2 4 7 6 4 7 6 vhcurveto
            14 16 22 30 30 43 rrcurveto
            35 50 18 29 7 vvcurveto
            return
          </CharString>
          <CharString index="14">
            rmoveto
            10 -4 5 -9 -22 -26 -32 -65 -31 vhcurveto
            -29 -60 -14 -43 -27 vvcurveto
            -9 3 -10 6 -10 vhcurveto
            -9 5 7 -5 9 hhcurveto
            10 17 13 26 24 hvcurveto
            23 26 14 19 3 11 -3 -1 -13 -13 -23 -24 rrcurveto
            -23 -23 -17 -12 -11 hhcurveto
            -6 -3 5 10 30 19 42 38 54 hvcurveto
            37 53 19 31 8 vvcurveto
            return
          </CharString>
          <CharString index="15">
            -5 -12 33 291 30 hstem
            279 145 -49 callgsubr
            -2 -1 -3 -2 vhcurveto
            -13 -19 -11 -14 -8 -7 -12 -10 -15 -7 -19 -3 rrcurveto
            23 -5 27 -9 32 vhcurveto
            -24 80 rlineto
            -2 6 -1 6 5 vvcurveto
            15 6 11 11 9 vhcurveto
            9 11 13 4 15 hhcurveto
            8 hlineto
            -1 4 3 0 1 hhcurveto
            9 4 2 5 7 -5 5 -9 5 hvcurveto
            5 -9 -7 2 -7 hhcurveto
            -32 -27 -18 -36 -23 hvcurveto
            -37 -59 -28 -52 -20 -47 rrcurveto
            10 -7 -7 5 -6 hhcurveto
            -11 -5 -10 -21 -31 12 -29 25 -27 hvcurveto
            -26 25 28 -13 32 hhcurveto
            23 18 8 17 13 hvcurveto
            12 15 7 19 2 24 34 7 28 23 22 37 rrcurveto
            2 3 0 2 2 vvcurveto
            -127 -59 rmoveto
            -5 0 -4 -1 -5 vhcurveto
            -17 1 -20 5 -21 10 -11 5 -18 10 -25 14 39 77 28 48 18 19 -3 -15 4 -28 10 -41 rrcurveto
            11 -44 6 -30 -17 vvcurveto
            return
          </CharString>
          <CharString index="16">
            rmoveto
            19 -14 14 -28 10 vhcurveto
            7 -21 -22 4 -23 hhcurveto
            -23 -23 -4 -7 -24 hvcurveto
            -32 -10 -16 -14 -17 vvcurveto
            -11 4 -6 7 5 3 3 7 16 13 13 25 8 vhcurveto
            6 19 19 3 21 hhcurveto
            19 19 -2 -4 17 hvcurveto
            26 -6 13 -9 -12 vvcurveto
            -17 -16 -16 -32 -15 vhcurveto
            -23 -11 -24 -8 -24 -4 -40 -7 rcurveline
            -8 -1 -4 -4 -6 -32 callgsubr
            -3 5 92 46 -22 -45 -39 -26 -31 -54 -24 vhcurveto
            -19 -43 -44 -9 -45 hhcurveto
            -27 -23 6 10 -19 hvcurveto
            -24 13 -12 18 24 vvcurveto
            26 22 13 44 6 3 1 3 5 -9 3 -17 -17 -16 -5 -9 -14 vhcurveto
            -16 -10 -8 -13 -17 vvcurveto
            -28 18 -20 35 -13 vhcurveto
            -9 25 29 -5 34 hhcurveto
            51 48 9 19 45 hvcurveto
            58 24 29 34 43 vvcurveto
            41 -33 26 -67 13 vhcurveto
            72 13 36 26 37 vvcurveto
            return
          </CharString>
          <CharString index="17">
            rmoveto
            130 -45 77 -90 25 vhcurveto
            70 -20 -29 36 -39 hhcurveto
            -9 -5 -3 -7 -3 2 -1 3 -1 hvcurveto
            37 -7 27 -30 18 -50 rrcurveto
            2 -13 -12 1 -13 hhcurveto
            -53 -53 -16 -33 -51 hvcurveto
            -51 -32 -36 -40 -22 -48 rrcurveto
            -16 -36 -8 -37 -37 vvcurveto
            -21 3 -19 6 -17 vhcurveto
            6 -18 13 -14 16 -10 rrcurveto
            -11 16 18 -5 20 hhcurveto
            29 34 13 24 36 hvcurveto
            33 23 26 25 17 28 rrcurveto
            -64 callsubr
            2 vvcurveto
            3 -1 1 -4 callsubr
            -1 -3 -2 vhcurveto
            -18 -25 -22 -23 -27 -18 rrcurveto
            -20 -29 -29 -11 -28 hhcurveto
            -25 -22 9 18 -18 hvcurveto
            -15 14 -7 26 35 vvcurveto
            64 23 57 46 53 vhcurveto
            55 47 56 27 61 hhcurveto
            28 26 -7 -14 22 hvcurveto
            11 -45 5 -54 -63 vvcurveto
            return
          </CharString>
          <CharString index="18">
            rmoveto
            -8 -23 -10 -23 -10 -22 rrcurveto
            -31 17 -16 19 23 vvcurveto
            18 10 10 18 14 15 -7 -12 18 vhcurveto
            53 -52 rmoveto
            -16 -35 -21 3 -18 5 -17 7 rlinecurve
            10 21 9 21 9 22 14 -11 15 -15 15 -18 rrcurveto
            endchar
          </CharString>
          <CharString index="19">
            29 vstem
            249 269 rmoveto
            43 -18 22 -36 -13 -17 -3 -7 -21 vhcurveto
            -26 -8 -13 -9 -9 -63 callgsubr
            3 1 10 5 10 18 vhcurveto
            9 18 15 5 13 hhcurveto
            24 12 -15 -30 -9 -2 -11 -5 -15 hvcurveto
            -4 -14 -2 -9 -4 vvcurveto
            -10 4 -5 9 8 8 9 19 6 vhcurveto
            5 15 2 13 11 vvcurveto
            50 -135 rmoveto
            1 -1 0 1 -1 hhcurveto
            -3 -5 -5 -10 -6 hvcurveto
            -11 -17 -9 -12 -7 -8 -19 -23 -23 -19 -27 -17 rrcurveto
            -20 -31 -28 -10 -25 hhcurveto
            -41 -20 27 54 35 14 39 27 43 hvcurveto
            26 41 29 30 32 20 rrcurveto
            13 8 7 5 2 vvcurveto
            3 -4 1 -7 -49 -43 -31 -62 -39 vhcurveto
            -34 -55 -17 -53 -52 vvcurveto
            return
          </CharString>
          <CharString index="20">
            rmoveto
            -10 -96 -17 -98 -25 -100 -27 -112 -32 -94 -37 -75 -59 5 -46 21 -33 36 rrcurveto
            -34 35 -16 46 60 vvcurveto
            79 24 77 48 74 vhcurveto
            47 74 60 53 71 34 30 -5 28 -6 28 -8 rrcurveto
            255 -65 rmoveto
            -7 -3 -4 -4 -3 -4 2 3 -6 vhcurveto
            -71 39 -74 27 -76 16 3 34 rcurveline
            1 12 11 1 13 hhcurveto
            39 36 -7 -14 35 hvcurveto
            41 -16 28 -23 17 -29 rrcurveto
            4 -9 2 -7 -7 vvcurveto
            -253 109 rmoveto
            -10 0 -10 -1 -10 vhcurveto
            -21 4 -24 3 -26 4 22 9 25 6 25 4 rrcurveto
            endchar
          </CharString>
          <CharString index="21">
            rrcurveto
            -24 -51 -48 -12 -45 hhcurveto
            -43 -35 11 22 -25 hvcurveto
            -25 22 -13 32 43 vvcurveto
            9 5 19 10 28 vhcurveto
            18 -25 25 -21 33 -15 rrcurveto
            -15 33 32 -8 32 hhcurveto
            33 16 3 7 3 -4 1 -7 hvcurveto
            -11 hlineto
            -33 -36 9 18 -38 hvcurveto
            -41 20 -28 23 -14 27 27 61 48 61 70 60 rrcurveto
            65 76 68 32 60 hhcurveto
            14 7 2 4 4 -7 2 -13 -69 -71 -24 -50 -71 hvcurveto
            -67 -46 -50 -57 -35 -65 rrcurveto
            -1 3 -1 6 7 vvcurveto
            29 6 28 13 27 vhcurveto
            26 return
          </CharString>
          <CharString index="22">
            -62 callgsubr
            -4 -66 callgsubr
            return
          </CharString>
          <CharString index="23">
            2 -21 callsubr
            -6 -10 -1 -2 -14 hvcurveto
            3 -27 2 -37 -45 vvcurveto
            -5 1 -3 2 3 2 1 3 1 vhcurveto
            3 5 4 18 5 31 rrcurveto
            5 31 2 19 9 vvcurveto
            return
          </CharString>
          <CharString index="24">
            11 -6 5 -11 -24 -37 -14 -27 -48 vhcurveto
            5 40 3 37 33 return
          </CharString>
          <CharString index="25">
            372 -142 13 304 29 hstem
            -73 callsubr
            vstem
            return
          </CharString>
          <CharString index="26">
            -77 callsubr
            -2 3 hhcurveto
            7 7 return
          </CharString>
          <CharString index="27">
            -13 rlineto
            19 17 16 9 14 hhcurveto
            15 23 -6 -12 32 hvcurveto
            -11 31 25 -6 18 hhcurveto
            7 11 5 11 14 hvcurveto
            12 9 8 9 6 8 rrcurveto
            return
          </CharString>
          <CharString index="28">
            rmoveto
            1 vlineto
            -3 callgsubr
            -8 -49 callsubr
            -15 -53 callgsubr
            4 hhcurveto
            7 return
          </CharString>
          <CharString index="29">
            38 vstem
            581 364 rmoveto
            47 -17 38 -33 29 vhcurveto
            29 -33 -41 15 -47 hhcurveto
            -80 -80 -36 -72 -82 hvcurveto
            -84 -74 -43 -76 -79 vvcurveto
            -47 18 -38 36 -29 vhcurveto
            -28 34 41 -14 47 hhcurveto
            79 81 36 73 82 hvcurveto
            81 73 41 75 78 vvcurveto
            -38 -8 rmoveto
            return
          </CharString>
          <CharString index="30">
            -68 callsubr
            -14 -85 callsubr
            return
          </CharString>
          <CharString index="31">
            -88 callgsubr
            -80 -22 -89 callgsubr
            return
          </CharString>
          <CharString index="32">
            -9 10 -23 -18 rlineto
            -6 -8 -9 -3 -11 hhcurveto
            -20 -25 6 12 -30 hvcurveto
            12 -30 -22 6 -13 hhcurveto
            -16 -20 -14 -27 return
          </CharString>
          <CharString index="33">
            -63 -60 -21 rlinecurve
            5 -25 -20 3 -15 hhcurveto
            -27 -13 -6 -11 -13 10 -6 19 12 20 3 7 27 hvcurveto
            60 -17 49 -12 38 -9 -15 -41 -10 -34 -4 -25 rrcurveto
            -1 -37 -26 -1 -15 -42 callsubr
            return
          </CharString>
          <CharString index="34">
            35 21 262 15 6 29 169 10 return
          </CharString>
          <CharString index="35">
            rmoveto
            -17 -6 -16 -10 -15 vhcurveto
            -17 -12 -13 -9 -16 hhcurveto
            -10 -5 7 13 13 4 13 8 12 hvcurveto
            11 17 7 11 2 5 -11 5 rcurveline
            9 12 10 4 7 hhcurveto
            15 7 -12 -23 hvcurveto
            endchar
          </CharString>
          <CharString index="36">
            -5 4 -11 -7 -22 -13 -26 -35 vhcurveto
            -35 -25 -17 -5 callsubr
            return
          </CharString>
          <CharString index="37">
            17 -24 9 -17 -9 vvcurveto
            -32 -12 -19 -23 -7 vhcurveto
            -24 -3 -24 -4 -24 -4 rrcurveto
            -6 -2 -3 18 callgsubr
            -7 3 -4 6 35 32 8 15 29 vhcurveto
            35 19 18 25 32 vvcurveto
            return
          </CharString>
          <CharString index="38">
            1 -1 1 return
          </CharString>
          <CharString index="39">
            -12 callsubr
            -8 -49 callsubr
            return
          </CharString>
          <CharString index="40">
            70 -14 14 1 31 273 18 return
          </CharString>
          <CharString index="41">
            3 -48 callgsubr
            return
          </CharString>
          <CharString index="42">
            8 -35 8 61 25 68 46 75 67 rrcurveto
            -249 -143 rmoveto
            -4 -14 -11 -2 -8 hhcurveto
            -19 -10 2 4 7 8 3 15 11 13 -3 -7 15 hvcurveto
            endchar
          </CharString>
          <CharString index="43">
            -55 callgsubr
            2 return
          </CharString>
          <CharString index="44">
            -3 -52 callgsubr
            return
          </CharString>
          <CharString index="45">
            rrcurveto
            40 -35 -25 20 -16 hhcurveto
            -6 -4 -2 -3 -3 hvcurveto
            8 -7 29 -17 25 -22 21 -23 rlinecurve
            -35 -81 -40 -73 -45 -65 -62 -90 -59 -53 -55 -17 return
          </CharString>
          <CharString index="46">
            rmoveto
            13 -4 12 -8 11 vhcurveto
            11 -8 -10 5 -13 hhcurveto
            -23 -17 -11 -22 -11 hvcurveto
            -11 -3 -10 -11 -8 -18 rrcurveto
            -7 -15 -3 -15 -13 vvcurveto
            return
          </CharString>
          <CharString index="47">
            25 16 23 301 25 16 23 return
          </CharString>
          <CharString index="48">
            vvcurveto
            -37 callsubr
            return
          </CharString>
          <CharString index="49">
            -43 -36 callgsubr
            19 21 22 hhcurveto
            23 18 -29 -57 13 hvcurveto
            return
          </CharString>
          <CharString index="50">
            -1 8 -2 6 -2 rrcurveto
            39 -13 19 -19 -23 vvcurveto
            -18 -18 -13 -37 -9 vhcurveto
            -2 -8 -12 -1 -16 hhcurveto
            -23 -30 2 5 -37 hvcurveto
            return
          </CharString>
          <CharString index="51">
            -57 callgsubr
            -1 return
          </CharString>
          <CharString index="52">
            -2 2 -3 1 hvcurveto
            return
          </CharString>
          <CharString index="53">
            rmoveto
            -26 -9 -17 -13 -27 hhcurveto
            -15 -15 8 17 -15 hvcurveto
            -15 16 -8 16 -1 15 rrcurveto
            -22 28 41 -11 53 hhcurveto
            endchar
          </CharString>
          <CharString index="54">
            -7 callsubr
            27 -37 -23 14 -8 hhcurveto
            -11 -6 -4 -8 return
          </CharString>
          <CharString index="55">
            3 2 3 return
          </CharString>
          <CharString index="56">
            -49 vvcurveto
            -31 6 -29 11 -25 vhcurveto
            -8 -28 -4 -28 -29 vvcurveto
            -55 16 -42 32 -31 vhcurveto
            -31 31 43 -15 55 hhcurveto
            return
          </CharString>
          <CharString index="57">
            17 callsubr
            0 -1 hhcurveto
            return
          </CharString>
          <CharString index="58">
            -11 -33 callgsubr
            return
          </CharString>
          <CharString index="59">
            -38 callsubr
            -1 return
          </CharString>
          <CharString index="60">
            -2 -2 -5 return
          </CharString>
          <CharString index="61">
            -27 -25 -22 -14 -19 hhcurveto
            -14 -7 12 23 20 11 29 21 37 hvcurveto
            15 -50 18 -27 22 -3 rrcurveto
            endchar
          </CharString>
          <CharString index="62">
            -2 1 -1 return
          </CharString>
          <CharString index="63">
            39 vhcurveto
            39 24 19 14 5 vvcurveto
            endchar
          </CharString>
          <CharString index="64">
            -1 -3 -3 return
          </CharString>
          <CharString index="65">
            hhcurveto
            -3 -1 -3 -7 -13 2 -6 5 return
          </CharString>
          <CharString index="66">
            1 2 2 return
          </CharString>
          <CharString index="67">
            1 1 -55 callgsubr
            vvcurveto
            5 -5 2 -10 -27 -18 -7 -16 -8 vhcurveto
            -13 -24 -7 -20 -6 -13 return
          </CharString>
          <CharString index="68">
            2 -2 1 return
          </CharString>
          <CharString index="69">
            vvcurveto
            -3 1 return
          </CharString>
          <CharString index="70">
            -1 1 0 return
          </CharString>
          <CharString index="71">
            -7 -9 -1 -3 -11 hvcurveto
            -13 -4 -7 -4 -5 vvcurveto
            -8 3 callgsubr
            -1 vhcurveto
            19 hlineto
            return
          </CharString>
          <CharString index="72">
            3 -39 callgsubr
            return
          </CharString>
          <CharString index="73">
            4 -3 3 hhcurveto
            return
          </CharString>
          <CharString index="74">
            19 callgsubr
            5 return
          </CharString>
          <CharString index="75">
            3 -1 1 return
          </CharString>
          <CharString index="76">
            rmoveto
            19 -10 21 -19 25 vhcurveto
            -19 24 -10 16 8 vvcurveto
            15 4 14 8 12 vhcurveto
            return
          </CharString>
          <CharString index="77">
            rmoveto
            -56 callsubr
            return
          </CharString>
          <CharString index="78">
            -2 5 hhcurveto
            return
          </CharString>
          <CharString index="79">
            -66 callgsubr
            -3 3 hhcurveto
            7 7 7 13 6 hvcurveto
            12 return
          </CharString>
          <CharString index="80">
            -16 callgsubr
            -1 return
          </CharString>
          <CharString index="81">
            3 -1 -1 2 return
          </CharString>
          <CharString index="82">
            -4 2 callgsubr
            return
          </CharString>
          <CharString index="83">
            1 1 0 return
          </CharString>
          <CharString index="84">
            3 -20 callgsubr
            2 -11 -23 1 -33 hhcurveto
            -21 1 hlineto
            17 89 return
          </CharString>
          <CharString index="85">
            rrcurveto
            -10 callsubr
            return
          </CharString>
          <CharString index="86">
            vlineto
            -50 callsubr
            return
          </CharString>
          <CharString index="87">
            -3 -1 -2 return
          </CharString>
          <CharString index="88">
            -69 callsubr
            -1 -12 -18 -14 -29 -24 vhcurveto
            -24 -29 -12 -21 -13 vvcurveto
            return
          </CharString>
          <CharString index="89">
            hhcurveto
            10 hlineto
            -1 5 3 0 3 hhcurveto
            return
          </CharString>
          <CharString index="90">
            -1 2 -2 return
          </CharString>
          <CharString index="91">
            3 hvcurveto
            endchar
          </CharString>
          <CharString index="92">
            -3 2 -1 rcurveline
            5 2 2 3 2 -20 callgsubr
            -21 return
          </CharString>
          <CharString index="93">
            42 29 32 33 23 35 rrcurveto
            6 9 3 5 3 vvcurveto
            endchar
          </CharString>
          <CharString index="94">
            -2 -1 -2 return
          </CharString>
          <CharString index="95">
            -1 2 rlineto
            -1 vlineto
            -3 callgsubr
            return
          </CharString>
          <CharString index="96">
            -18 35 -29 hvcurveto
            35 -29 21 -15 return
          </CharString>
          <CharString index="97">
            -1 0 -1 -1 -1 hvcurveto
            return
          </CharString>
          <CharString index="98">
            vvcurveto
            -57 callgsubr
            -2 return
          </CharString>
          <CharString index="99">
            -59 callsubr
            1 return
          </CharString>
          <CharString index="100">
            -19 17 -37 27 vhcurveto
            return
          </CharString>
          <CharString index="101">
            -5 -6 -6 vvcurveto
            return
          </CharString>
          <CharString index="102">
            -16 -6 vvcurveto
            -3 return
          </CharString>
          <CharString index="103">
            -1 -1 -2 return
          </CharString>
          <CharString index="104">
            -5 -7 0 -9 1 -13 hvcurveto
            1 -13 0 -9 -7 vvcurveto
            return
          </CharString>
          <CharString index="105">
            hhcurveto
            43 34 -14 -27 27 hvcurveto
            26 -27 13 -35 -43 vvcurveto
            return
          </CharString>
          <CharString index="106">
            hhcurveto
            -41 -35 12 24 -30 hvcurveto
            -32 26 -16 32 40 vvcurveto
            return
          </CharString>
          <CharString index="107">
            -18 82 60 -9 37 hhcurveto
            65 33 20 41 hvcurveto
            endchar
          </CharString>
          <CharString index="108">
            hhcurveto
            -4 -2 return
          </CharString>
          <CharString index="109">
            4 3 vvcurveto
            return
          </CharString>
          <CharString index="110">
            -2 -4 -3 return
          </CharString>
          <CharString index="111">
            5 -2 6 -5 6 vhcurveto
            5 -4 -4 3 -5 hhcurveto
            return
          </CharString>
          <CharString index="112">
            -32 22 -47 48 -58 77 -42 56 -41 57 -41 56 return
          </CharString>
          <CharString index="113">
            vhcurveto
            -7 5 4 -4 5 hhcurveto
            return
          </CharString>
          <CharString index="114">
            1 0 1 -1 return
          </CharString>
          <CharString index="115">
            5 2 4 return
          </CharString>
          <CharString index="116">
            hhcurveto
            4 2 return
          </CharString>
          <CharString index="117">
            rmoveto
            6 -6 3 -13 -20 -14 -6 -11 -7 vhcurveto
            return
          </CharString>
          <CharString index="118">
            -18 -41 -34 rlinecurve
            -41 -33 -20 -20 -7 vvcurveto
            -7 return
          </CharString>
          <CharString index="119">
            422 -208 19 758 25 hstem
            10 34 return
          </CharString>
          <CharString index="120">
            -12 -19 9 -25 hhcurveto
            -16 -15 -4 -8 -16 hvcurveto
            return
          </CharString>
          <CharString index="121">
            7 callsubr
            1 return
          </CharString>
          <CharString index="122">
            vvcurveto
            -1 0 -1 1 return
          </CharString>
          <CharString index="123">
            1 -4 1 return
          </CharString>
          <CharString index="124">
            1 -1 -1 return
          </CharString>
          <CharString index="125">
            -2 -7 -5 return
          </CharString>
          <CharString index="126">
            vstem
            338 686 rmoveto
            -57 callgsubr
            -3 return
          </CharString>
          <CharString index="127">
            vvcurveto
            -4 7 -2 14 5 3 1 2 vhcurveto
            return
          </CharString>
          <CharString index="128">
            -18 28 -17 20 -9 11 -1 rrcurveto
            endchar
          </CharString>
        <CharString name=".notdef">
          741 endchar
        </CharString>
        <CharString name="A">
          -77 callgsubr
          -107 callsubr
          -490 148 -76 callsubr
          endchar
        </CharString>
        <CharString name="AE">
          636 -183 13 139 10 547 30 hstem
          -190 9 126 37 486 41 336 17 vstem
          615 586 rmoveto
          11 -5 4 -10 -8 -7 -3 -9 -6 vhcurveto
          -6 -9 -6 -11 -5 -13 -56 -3 rcurveline
          2 11 1 10 9 vvcurveto
          43 -18 27 -36 11 vhcurveto
          4 -11 -11 2 -8 hhcurveto
          -7 -4 3 callsubr
          3 -2 6 -1 hvcurveto
          30 -5 15 -18 -34 vvcurveto
          -15 -3 -18 -5 -20 vhcurveto
          -19 -3 -18 -4 -17 -5 8 29 6 28 4 28 1 14 callsubr
          rrcurveto
          -43 callgsubr
          -1 1 vhcurveto
          -4 -3 -2 -5 -1 hvcurveto
          -11 -44 -4 -15 -5 -14 -5 -15 rlinecurve
          -9 -3 -4 -4 -2 vvcurveto
          -4 2 -3 5 -2 vhcurveto
          -40 -115 -61 -111 -81 -107 -42 -8 -37 -11 -30 -13 -39 -17 -32 -22 -28 -27 rrcurveto
          -32 -34 -17 -34 -36 vvcurveto
          -22 7 -17 14 -14 vhcurveto
          -28 -20 -30 -16 -35 -12 rrcurveto
          -7 -43 callsubr
          -4 vvcurveto
          -3 2 -1 5 25 37 16 33 46 vhcurveto
          9 -6 10 -7 12 -6 rrcurveto
          -43 -57 -51 -22 -44 hhcurveto
          -25 -13 9 18 6 1 7 2 6 hvcurveto
          -8 -6 -4 -10 -14 vvcurveto
          -20 15 -9 31 47 57 23 47 66 vhcurveto
          -18 39 33 -9 26 hhcurveto
          7 -52 callsubr
          3 -3 2 -6 1 hvcurveto
          -41 7 -30 8 -18 9 73 55 89 91 101 128 14 -1 rcurveline
          39 -3 60 7 76 9 -8 -36 -7 -27 -8 -18 -25 -64 -36 -39 -47 -15 rrcurveto
          1 -27 -21 0 -17 hhcurveto
          -9 -19 callgsubr
          -4 3 -3 6 hvcurveto
          3 hlineto
          -1 -1 0 -1 -1 vvcurveto
          -9 12 -5 24 20 19 3 6 18 vhcurveto
          103 -13 rlineto
          -9 69 56 -4 44 hhcurveto
          51 40 6 11 27 hvcurveto
          60 24 30 38 52 vvcurveto
          15 -4 17 -8 18 vhcurveto
          22 -8 -11 11 -12 hhcurveto
          -5 -47 callsubr
          -2 6 -11 10 -16 hvcurveto
          11 -16 6 -15 -13 vvcurveto
          -27 -23 -24 -46 -18 vhcurveto
          -18 -45 -74 -10 -101 hhcurveto
          -30 -43 2 3 -59 hvcurveto
          -6 hlineto
          26 16 22 24 20 31 20 33 18 46 13 58 69 10 58 10 50 11 31 7 19 6 7 3 rrcurveto
          13 6 5 6 6 vvcurveto
          -69 callsubr
          -1 -43 -75 -9 -18 -109 vhcurveto
          -15 -3 3 15 14 82 9 62 6 41 rlinecurve
          5 38 7 34 8 29 87 -4 78 -12 70 -21 rrcurveto
          -4 15 13 -2 10 hhcurveto
          -15 -35 -18 -19 -19 -3 rrcurveto
          -11 -2 -6 -2 -1 vvcurveto
          -5 5 -5 9 -37 callgsubr
          10 7 -3 6 hhcurveto
          14 12 6 11 8 hvcurveto
          11 14 9 24 8 37 rrcurveto
          -64 callsubr
          3 vvcurveto
          -43 callgsubr
          -1 1 vhcurveto
          5 30 3 24 20 vvcurveto
          8 -1 5 -2 -4 -2 -2 -4 -1 vhcurveto
          -3 -12 -1 -10 -2 -7 -4 -14 -3 -12 -4 -11 -16 6 rcurveline
          -81 22 -86 13 -93 2 6 17 rcurveline
          2 6 1 2 callsubr
          -66 -60 rmoveto
          3 hlineto
          -13 -41 -11 -55 -9 -69 -8 -56 -8 -49 -7 -40 -88 -13 -59 -7 -32 -2 45 57 41 62 36 67 30 55 20 49 11 40 rrcurveto
          1 16 16 1 17 hhcurveto
          -143 -15 rmoveto
          5 6 0 2 7 hvcurveto
          28 6 -12 -37 -20 -43 -26 -50 rlinecurve
          -39 -75 -40 -66 -42 -59 -17 -1 -16 -2 -16 -3 83 113 59 109 33 106 rrcurveto
          -143 -345 rmoveto
          -92 -123 -79 -88 -65 -52 -11 7 -9 7 -7 9 56 43 70 76 83 108 17 5 18 4 19 4 rrcurveto
          -80 -22 rmoveto
          -81 -99 -64 -69 -46 -37 rrcurveto
          -2 5 -1 5 5 vvcurveto
          22 11 27 22 31 vhcurveto
          20 28 20 20 22 14 29 19 33 17 37 12 rrcurveto
          endchar
        </CharString>
        <CharString name="Aacute">
          -77 callgsubr
          -107 callsubr
          -490 148 -76 callsubr
          497 676 -101 callsubr
          endchar
        </CharString>
        <CharString name="Acircumflex">
          -77 callgsubr
          -107 callsubr
          -89 716 -95 callgsubr
          -401 -568 -76 callsubr
          endchar
        </CharString>
        <CharString name="Adieresis">
          -77 callgsubr
          -107 callsubr
          -490 148 -76 callsubr
          459 698 rmoveto
          -103 callsubr
          -134 hmoveto
          -103 callsubr
          endchar
        </CharString>
        <CharString name="Agrave">
          -77 callgsubr
          -107 callsubr
          -490 148 -76 callsubr
          435 576 -96 callgsubr
        </CharString>
        <CharString name="Aring">
          365 -183 13 48 10 251 16 494 19 2 -20 127 19 hstemhm
          -190 9 117 44 473 37 4 17 51 24 hintmask 1110111111100000
          586 744 -61 callsubr
          -10 2 -9 4 -6 vhcurveto
          5 -10 -11 2 -13 hhcurveto
          -7 -4 3 callsubr
          3 -2 6 -1 hvcurveto
          27 -4 14 -18 -30 vvcurveto
          -51 -29 -78 -56 -106 vhcurveto
          -44 -81 -45 -76 -51 -70 -48 -5 rcurveline
          47 65 49 78 47 91 rrcurveto
          60 114 30 85 52 vvcurveto
          -43 callgsubr
          -1 1 vhcurveto
          -4 -3 -2 -5 -1 hvcurveto
          -18 -59 -11 -37 -5 -12 -49 -127 -71 -126 -93 -123 -52 -10 -47 -15 -42 -22 rrcurveto
          -60 -30 -31 -34 -39 vvcurveto
          -21 10 -20 20 -19 vhcurveto
          -28 -20 -30 -16 -35 -12 rrcurveto
          -7 -43 callsubr
          -4 vvcurveto
          -3 2 -1 5 25 37 16 33 46 vhcurveto
          9 -6 10 -7 12 -6 rrcurveto
          -43 -57 -51 -22 -44 hhcurveto
          -25 -13 9 18 6 1 7 2 6 hvcurveto
          -8 -6 -4 -10 -14 vvcurveto
          -20 15 -9 31 47 57 23 47 66 vhcurveto
          -18 39 33 -9 26 hhcurveto
          7 -52 callsubr
          3 -3 2 -6 1 hvcurveto
          -41 7 -30 8 -18 9 75 56 77 77 81 101 29 4 38 3 48 3 55 4 rcurveline
          12 1 6 4 6 vvcurveto
          -39 callsubr
          -5 5 -17 0 -2 -40 vhcurveto
          -53 -2 -38 -3 -23 -2 52 69 47 70 40 72 rrcurveto
          52 96 27 75 56 vvcurveto
          25 -7 20 -13 16 vhcurveto
          -3 3 rlineto
          hintmask 1111011111100000
          -1 4 5 0 6 hhcurveto
          24 21 10 20 19 hvcurveto
          19 19 9 22 24 vvcurveto
          126 -770 rmoveto
          -58 -36 -33 -28 -29 hhcurveto
          -23 -20 20 39 -17 hvcurveto
          -29 65 -14 121 174 vvcurveto
          159 vlineto
          15 -1 -4 6 -5 1 callsubr
          -5 -13 -1 hvcurveto
          -4 -55 -4 -32 -1 -9 rrcurveto
          -17 -143 -7 -89 -35 vvcurveto
          -56 6 -43 15 -32 vhcurveto
          10 -23 18 -23 25 -20 rrcurveto
          -20 25 24 -11 24 hhcurveto
          16 15 5 9 16 hvcurveto
          11 6 12 14 14 18 rrcurveto
          13 18 7 14 12 vvcurveto
          -490 148 -76 callsubr
          420 642 -72 callsubr
        </CharString>
        <CharString name="Atilde">
          -77 callgsubr
          85 -60 callsubr
          -107 callsubr
          -490 148 -88 callgsubr
          393 661 -67 callgsubr
          -98 callgsubr
          -473 -683 -89 callgsubr
          endchar
        </CharString>
        <CharString name="B">
          605 -111 22 1 20 16 12 598 15 9 29 76 -20 hstem
          1 17 63 46 649 37 vstem
          823 526 rmoveto
          24 -8 20 -16 16 vhcurveto
          16 -16 -19 9 -24 hhcurveto
          -41 -40 -18 -35 -37 hvcurveto
          -48 10 -50 8 -49 -3 -19 -1 rcurveline
          1 44 -2 37 -5 29 rrcurveto
          -26 callsubr
          -1 hhcurveto
          -2 -47 callsubr
          -6 0 -9 1 -12 hvcurveto
          1 -13 0 -8 -7 vvcurveto
          -17 -1 -18 -1 -18 vhcurveto
          -149 -6 -109 -39 -69 -71 rrcurveto
          -24 -24 -11 -26 -28 vvcurveto
          -39 19 -34 37 -31 vhcurveto
          34 -29 37 -17 39 -3 3 -1 rcurveline
          5 1 2 3 2 -1 16 callsubr
          hvcurveto
          -18 4 -14 4 -8 4 rrcurveto
          -56 23 -28 37 51 vvcurveto
          32 13 28 25 27 vhcurveto
          64 66 92 38 121 9 -7 -91 -18 -90 -30 -91 -35 -104 -42 -80 -52 -59 rrcurveto
          14 -46 -42 7 -37 hhcurveto
          -33 -29 -6 -12 -24 hvcurveto
          -31 -16 -15 -22 -30 vvcurveto
          -24 12 -20 26 -18 vhcurveto
          -17 23 23 -8 25 hhcurveto
          55 44 7 16 33 hvcurveto
          33 14 33 28 35 42 150 -62 rcurveline
          -15 47 53 -7 62 hhcurveto
          40 36 13 27 34 hvcurveto
          32 26 16 33 39 vvcurveto
          83 -65 72 -131 61 vhcurveto
          49 3 43 11 37 19 rrcurveto
          49 25 25 34 43 vvcurveto
          35 -17 31 -35 28 vhcurveto
          -28 22 -33 17 -40 12 rrcurveto
          24 29 28 12 26 hhcurveto
          37 20 -14 -28 4 hvcurveto
          -18 3 1 -9 3 hhcurveto
          3 2 5 8 hvcurveto
          -47 -507 rmoveto
          -58 -43 -29 -85 -45 -50 8 18 -55 vhcurveto
          -49 16 -47 18 -48 17 34 39 34 57 35 77 29 65 29 65 30 64 34 72 38 53 38 34 32 -11 27 -15 21 -21 rrcurveto
          25 -24 12 -28 -31 vvcurveto
          -34 -15 -27 -28 -23 vhcurveto
          -25 -19 -30 -12 -37 -7 rrcurveto
          -2 -10 -11 -2 -12 hhcurveto
          -19 hlineto
          -18 -4 -9 -10 -18 vvcurveto
          -5 1 -4 19 callgsubr
          57 -24 rlineto
          107 -51 52 -65 -78 vvcurveto
          -165 527 rmoveto
          -37 -39 -39 -59 -40 -81 -31 -65 -31 -66 -30 -66 -33 -70 -30 -50 -26 -28 -38 13 rcurveline
          52 61 42 83 34 103 30 94 16 91 5 90 rrcurveto
          1 11 12 0 11 hhcurveto
          41 41 -4 -8 40 hvcurveto
          -305 -537 rmoveto
          -17 -26 -28 -23 -39 -20 rrcurveto
          -20 -38 -35 -9 -32 hhcurveto
          -24 -22 6 14 -20 hvcurveto
          -22 14 -11 19 23 vvcurveto
          23 13 18 27 12 vhcurveto
          8 20 23 5 27 hhcurveto
          39 41 -7 -15 43 hvcurveto
          -47 -44 -44 -24 -44 hhcurveto
          -12 -19 callgsubr
          -4 6 -3 13 51 49 25 53 47 hvcurveto
          endchar
        </CharString>
        <CharString name="C">
          12 callsubr
          382 13 vstem
          713 156 rmoveto
          14 callsubr
          vhcurveto
          0 -4 -4 -5 -8 vhcurveto
          -39 -61 -57 -48 -75 -38 rrcurveto
          -36 -72 -73 -19 -74 hhcurveto
          -9 -9 0 1 -8 hvcurveto
          37 77 31 93 29 110 25 102 18 97 11 93 41 -13 42 -18 42 -22 20 -11 39 -22 58 -35 rrcurveto
          -4 7 6 -29 callsubr
          10 4 6 11 hvcurveto
          4 vlineto
          58 -21 46 -35 31 vhcurveto
          31 -33 -47 16 -60 hhcurveto
          -23 -24 -3 -5 -25 hvcurveto
          1 14 0 14 12 vvcurveto
          33 -3 26 -5 18 vhcurveto
          -26 callsubr
          -2 hhcurveto
          -24 callgsubr
          -3 callsubr
          -18 0 -20 -1 -21 vhcurveto
          -32 -7 -31 -12 -32 -14 rrcurveto
          3 -25 -22 2 -16 hhcurveto
          -53 -51 -8 -15 -51 hvcurveto
          -70 -21 -36 -31 -39 vvcurveto
          -9 3 -10 5 -11 vhcurveto
          -10 4 6 -6 8 17 callgsubr
          5 8 hvcurveto
          8 vlineto
          -1 3 0 10 callgsubr
          27 19 26 39 23 vhcurveto
          27 16 32 12 36 9 rrcurveto
          6 27 28 3 25 hhcurveto
          11 14 -1 -2 18 hvcurveto
          -76 -39 -65 -58 -56 -79 rrcurveto
          -59 -84 -30 -82 -80 vvcurveto
          -68 21 -53 41 -37 vhcurveto
          39 -35 53 -18 69 -2 -31 -54 -31 -34 -32 -11 -1 callgsubr
          38 40 39 77 43 vhcurveto
          81 1 83 21 86 43 0 callgsubr
          -288 366 -87 callsubr
        </CharString>
        <CharString name="CR">
          -63 endchar
        </CharString>
        <CharString name="Ccedilla">
          12 callsubr
          167 36 16 42 121 13 vstem
          305 -266 -31 callsubr
          7 11 9 6 12 4 75 4 76 21 80 39 0 callgsubr
          14 callsubr
          vhcurveto
          0 -4 -4 -5 -8 vhcurveto
          -39 -61 -57 -48 -75 -38 rrcurveto
          -36 -72 -73 -19 -74 hhcurveto
          -9 -9 0 1 -8 hvcurveto
          37 77 31 93 29 110 25 102 18 97 11 93 41 -13 42 -18 42 -22 20 -11 39 -22 58 -35 rrcurveto
          -4 7 6 -29 callsubr
          10 4 6 11 hvcurveto
          4 vlineto
          58 -21 46 -35 31 vhcurveto
          31 -33 -47 16 -60 hhcurveto
          -23 -24 -3 -5 -25 hvcurveto
          1 14 0 14 12 vvcurveto
          33 -3 26 -5 18 vhcurveto
          -26 callsubr
          -2 hhcurveto
          -24 callgsubr
          -3 callsubr
          -18 0 -20 -1 -21 vhcurveto
          -32 -7 -31 -12 -32 -14 rrcurveto
          3 -25 -22 2 -16 hhcurveto
          -53 -51 -8 -15 -51 hvcurveto
          -70 -21 -36 -31 -39 vvcurveto
          -9 3 -10 5 -11 vhcurveto
          -10 4 6 -6 8 17 callgsubr
          5 8 hvcurveto
          8 vlineto
          -1 3 0 10 callgsubr
          27 19 26 39 23 vhcurveto
          27 16 32 12 36 9 rrcurveto
          6 27 28 3 25 hhcurveto
          11 14 -1 -2 18 hvcurveto
          -76 -39 -65 -58 -56 -79 rrcurveto
          -59 -84 -30 -82 -80 vvcurveto
          -68 21 -53 41 -37 vhcurveto
          37 -33 50 -19 65 -3 -7 -4 -6 -6 -5 -8 -11 -13 -6 -16 -2 -17 -16 -17 -16 -12 -16 -6 -1 callgsubr
          20 22 12 23 22 vhcurveto
          1 -13 9 -18 16 -23 rrcurveto
          -70 callsubr
          120 788 -87 callsubr
        </CharString>
        <CharString name="D">
          675 -89 22 15 12 118 9 536 27 37 -20 hstem
          2 16 64 34 748 57 vstem
          921 275 rmoveto
          74 -29 62 -59 53 vhcurveto
          -52 46 -65 31 -76 12 rrcurveto
          46 35 38 24 42 hhcurveto
          16 17 -5 -8 16 hvcurveto
          18 -10 11 -12 4 -14 rrcurveto
          -9 2 3 -4 3 hhcurveto
          -47 callgsubr
          3 7 -1 7 -3 10 hvcurveto
          -7 19 -12 15 -18 11 rrcurveto
          10 -18 -19 6 -21 hhcurveto
          -51 -47 -31 -61 -47 hvcurveto
          -46 10 -50 5 -51 -1 1 45 -2 36 -5 29 rrcurveto
          -26 callsubr
          -1 hhcurveto
          -2 -47 callsubr
          -6 0 -9 1 -12 hvcurveto
          1 -13 0 -8 -7 vvcurveto
          -18 -1 -17 -1 -18 vhcurveto
          -147 -5 -108 -39 -71 -75 rrcurveto
          -24 -25 -11 -26 -29 vvcurveto
          -38 17 -34 35 -30 vhcurveto
          32 -28 35 -15 39 -15 callsubr
          4 -16 5 -10 5 rrcurveto
          -55 25 -26 38 50 vvcurveto
          29 12 28 24 26 vhcurveto
          65 69 96 37 129 7 -7 -89 -18 -89 -29 -90 -34 -102 -41 -81 -50 -59 rrcurveto
          27 -66 -53 14 -37 hhcurveto
          -27 -23 -5 -11 -19 hvcurveto
          -24 -13 -12 -18 -25 vvcurveto
          -25 13 -23 26 -21 vhcurveto
          24 -19 24 -12 26 -2 rrcurveto
          -1 11 13 -1 13 hhcurveto
          83 63 28 57 45 hvcurveto
          -33 81 77 -17 71 hhcurveto
          70 64 17 33 57 hvcurveto
          56 33 43 48 29 62 rrcurveto
          20 43 10 46 47 vvcurveto
          -57 -10 rmoveto
          -87 -28 -73 -57 -58 vhcurveto
          -57 -57 -72 -28 -88 hhcurveto
          -64 -70 15 32 -75 hvcurveto
          30 34 32 50 33 68 50 99 33 77 23 52 31 70 27 50 20 31 65 -12 55 -32 45 -53 rrcurveto
          45 -53 22 -59 -66 vvcurveto
          -270 281 rmoveto
          -30 -31 -36 -61 -43 -93 -31 -68 -29 -69 -33 -68 -29 -63 -28 -44 -22 -23 -34 13 rcurveline
          51 61 41 81 33 103 29 93 17 91 5 89 rrcurveto
          21 hlineto
          41 39 -4 -7 38 hvcurveto
          -289 -534 rmoveto
          -15 -23 -26 -19 -35 -16 rrcurveto
          -14 -32 -32 -7 -31 hhcurveto
          -27 -25 8 16 -24 hvcurveto
          -27 18 -13 22 25 vvcurveto
          20 10 14 19 10 vhcurveto
          7 15 18 5 21 hhcurveto
          41 52 -14 -28 62 hvcurveto
          -50 -45 -46 -26 -46 hhcurveto
          -12 -19 callgsubr
          -4 6 -3 13 52 50 27 54 48 hvcurveto
          endchar
        </CharString>
        <CharString name="Delta">
          193 -7 26 -21 34 hstem
          392 36 vstem
          428 -2 rmoveto
          -32 141 -30 247 -9 142 rrcurveto
          5 -2 2 -2 -11 -34 -66 -10 -6 vhcurveto
          -137 -223 -48 -78 -56 -95 -36 -65 rlinecurve
          2 64 65 0 60 hhcurveto
          120 94 -2 0 hvcurveto
          -44 35 rmoveto
          -10 -68 -3 -76 hhcurveto
          -42 -118 0 7 2 2 4 1 3 hvcurveto
          61 119 112 179 78 126 rrcurveto
          3 -41 callsubr
          2 hhcurveto
          6 44 -390 -52 5 hvcurveto
          endchar
        </CharString>
        <CharString name="E">
          -107 callgsubr
          endchar
        </CharString>
        <CharString name="Eacute">
          -107 callgsubr
          612 751 -101 callsubr
          endchar
        </CharString>
        <CharString name="Ecircumflex">
          -107 callgsubr
          679 663 -95 callgsubr
          endchar
        </CharString>
        <CharString name="Edieresis">
          -107 callgsubr
          646 773 rmoveto
          -103 callsubr
          -134 hmoveto
          -103 callsubr
          endchar
        </CharString>
        <CharString name="Egrave">
          -107 callgsubr
          643 651 -96 callgsubr
        </CharString>
        <CharString name="Eth">
          724 -94 24 15 13 124 10 564 28 hstem
          2 17 67 36 788 60 vstem
          970 290 rmoveto
          77 -31 66 -62 55 vhcurveto
          -55 49 -68 32 -80 13 rrcurveto
          49 37 40 25 44 hhcurveto
          17 17 -5 -9 17 hvcurveto
          19 -10 12 -13 4 -15 rrcurveto
          -9 2 3 -4 3 hhcurveto
          2 1 1 3 6 -2 8 -3 10 hvcurveto
          -7 20 -12 16 -19 12 rrcurveto
          11 -19 -20 6 -23 hhcurveto
          -53 -50 -32 -65 -49 hvcurveto
          -49 11 -52 5 -54 -1 1 47 -2 38 -5 31 rrcurveto
          -26 callsubr
          -1 hhcurveto
          -3 -2 -2 -3 callsubr
          -19 -1 -18 -1 -19 vhcurveto
          -154 -5 -114 -41 -75 -79 rrcurveto
          -25 -26 -12 -28 -30 vvcurveto
          -40 18 -36 37 -32 vhcurveto
          34 -29 37 -16 41 -15 callsubr
          5 -16 4 -11 5 rrcurveto
          -58 26 -29 40 54 vvcurveto
          31 13 29 25 27 vhcurveto
          69 73 101 39 135 7 -9 -115 -25 -113 -43 -109 -113 -50 rcurveline
          -29 -12 -21 -9 -14 -5 rrcurveto
          -3 -1 -1 -4 -5 vvcurveto
          -17 4 -8 8 5 49 21 42 95 vhcurveto
          -27 -61 -31 -51 -33 -40 rrcurveto
          29 -70 -55 15 -39 hhcurveto
          -29 -24 -6 -11 -20 hvcurveto
          -25 -14 -13 -19 -26 vvcurveto
          -27 14 -24 27 -22 vhcurveto
          25 -20 26 -12 27 -3 rrcurveto
          -1 13 13 -1 13 hhcurveto
          87 67 30 60 47 hvcurveto
          -35 85 81 -18 75 hhcurveto
          74 67 18 35 60 hvcurveto
          59 35 45 50 31 65 rrcurveto
          21 46 11 48 50 vvcurveto
          -60 -11 rmoveto
          -92 -30 -76 -60 -61 vhcurveto
          -60 -60 -76 -30 -92 hhcurveto
          -68 -73 16 33 -79 hvcurveto
          27 32 27 41 27 49 15 28 22 44 27 60 39 15 38 12 35 8 24 6 18 3 11 3 rrcurveto
          5 -41 callsubr
          4 vvcurveto
          5 -3 3 -5 -34 -49 -8 -17 -64 vhcurveto
          21 45 19 46 21 46 24 54 24 43 22 34 69 -12 58 -34 47 -56 rrcurveto
          47 -55 24 -63 -69 vvcurveto
          -589 -266 rmoveto
          -16 -25 -27 -20 -37 -16 rrcurveto
          -15 -34 -33 -7 -33 hhcurveto
          -28 -27 8 17 -25 hvcurveto
          -28 19 -14 23 26 vvcurveto
          21 10 15 20 10 vhcurveto
          8 16 19 5 22 hhcurveto
          43 55 -15 -29 65 hvcurveto
          -53 -47 -48 -27 -49 hhcurveto
          -12 -6 -2 -3 -5 7 -3 13 55 53 29 57 50 hvcurveto
          340 544 rmoveto
          -25 -27 -30 -47 -33 -67 -11 -21 -23 -52 -37 -82 -17 -6 -19 -7 -19 -8 40 109 23 110 5 109 rrcurveto
          22 hlineto
          43 41 -4 -7 40 hvcurveto
          -179 -341 rmoveto
          -49 -107 -39 -69 -29 -31 -35 14 rcurveline
          37 45 33 56 29 69 rrcurveto
          endchar
        </CharString>
        <CharString name="Euro">
          411 -54 42 -5 30 57 26 76 26 23 20 108 -20 151 12 48 -21 39 34 hstem
          39 16 -13 54 488 12 vstem
          463 233 rmoveto
          -69 callsubr
          -5 1 vhcurveto
          8 -30 -79 4 -126 hhcurveto
          -30 -27 0 -1 -23 hvcurveto
          6 25 8 25 12 23 115 5 rcurveline
          3 85 64 2 45 hhcurveto
          8 3 2 4 1 -1 16 callsubr
          hvcurveto
          7 -31 -79 4 -127 hhcurveto
          -61 hlineto
          98 61 109 73 115 hhcurveto
          33 31 -5 -12 29 hvcurveto
          36 -14 27 -43 -20 -2 -1 -5 -5 vvcurveto
          -7 3 -30 28 7 4 4 9 vhcurveto
          4 vlineto
          88 -61 58 -104 -139 -121 -68 -106 -84 vhcurveto
          -5 -6 -5 -6 -4 -6 -47 -1 -31 -2 -14 -2 -3 -2 rcurveline
          3 -3 4 -5 10 -6 rrcurveto
          -6 9 5 -3 6 hhcurveto
          11 14 -1 1 14 hvcurveto
          -14 -24 -10 -25 -8 -24 -33 -1 -22 -2 -12 -13 callsubr
          rcurveline
          1 -3 5 -5 9 -6 rrcurveto
          -6 10 4 -3 6 hhcurveto
          26 hlineto
          -4 -20 -2 -19 -18 vvcurveto
          -128 86 -46 114 71 83 15 38 78 vhcurveto
          74 37 46 42 33 54 rrcurveto
          1 3 1 5 3 vvcurveto
          2 -1 2 -4 callsubr
          -2 -4 -2 vhcurveto
          -95 -65 -121 -68 -136 hhcurveto
          -110 -94 50 116 11 0 11 2 12 hvcurveto
          121 5 rlineto
          4 86 65 2 45 hhcurveto
          7 3 -51 callgsubr
        </CharString>
        <CharString name="F">
          463 -103 18 33 12 290 21 162 29 76 -20 104 17 48 -20 hstem
          39 32 374 11 392 -81 callgsubr
          13 -62 -31 5 -3 hhcurveto
          3 32 2 29 28 vvcurveto
          35 -2 28 -4 22 vhcurveto
          -26 callsubr
          -1 hhcurveto
          -2 -47 callsubr
          -6 0 -9 1 -12 hvcurveto
          1 -13 0 -8 -7 vvcurveto
          -37 -3 -38 -5 -39 vhcurveto
          18 -94 -74 9 -52 hhcurveto
          -48 -39 -8 -14 -30 hvcurveto
          -41 -20 -20 -31 -42 vvcurveto
          -59 37 -51 75 -43 -8 callgsubr
          1 hhcurveto
          3 1 -55 callgsubr
          -1 2 -3 1 hvcurveto
          -56 39 -29 45 49 vvcurveto
          74 53 37 108 49 68 -9 -18 86 vhcurveto
          -9 -67 -16 -67 -21 -64 -25 -80 -33 -70 -38 -58 rrcurveto
          -84 -56 -57 -42 -61 hhcurveto
          -12 -19 callgsubr
          -4 6 -3 13 66 62 42 86 58 hvcurveto
          41 60 32 73 27 85 20 64 14 66 8 65 87 -19 -83 callgsubr
          68 65 36 69 62 hvcurveto
          39 44 40 64 45 87 1 -7 3 -7 5 -8 rrcurveto
          -9 3 5 -4 4 hhcurveto
          2 -1 3 -2 5 vhcurveto
          -1 4 -1 10 callgsubr
          27 32 20 63 11 vhcurveto
          8 39 43 3 45 hhcurveto
          7 11 -1 -2 14 hvcurveto
          -1 13 11 -1 6 hhcurveto
          -35 callsubr
          -20 callgsubr
          12 -39 -51 7 -64 hhcurveto
          -59 -39 -6 -10 -18 hvcurveto
          100 205 rlineto
          0 callsubr
        </CharString>
        <CharString name="G">
          422 -305 22 247 46 559 25 hstem
          10 34 480 14 142 32 vstem
          712 408 rmoveto
          4 vlineto
          111 -63 61 -109 9 vhcurveto
          39 -1 -4 20 -6 hhcurveto
          -24 callgsubr
          -5 -6 0 -8 1 -12 hvcurveto
          1 -10 0 -9 -5 vvcurveto
          -61 3 -63 -16 -68 -31 rrcurveto
          3 -25 -22 2 -16 hhcurveto
          -53 -51 -8 -15 -51 hvcurveto
          -70 -21 -36 -31 -39 vvcurveto
          -9 3 -9 4 -10 vhcurveto
          -12 6 5 -6 8 17 callgsubr
          5 8 hvcurveto
          8 vlineto
          -1 3 0 10 callgsubr
          27 19 26 39 23 vhcurveto
          27 16 32 12 36 9 rrcurveto
          6 27 28 3 25 hhcurveto
          11 14 -1 -2 18 hvcurveto
          -77 -39 -67 -60 -56 -81 rrcurveto
          -59 -86 -30 -84 -83 vvcurveto
          -41 9 -32 17 -27 vhcurveto
          -30 20 28 -16 38 hhcurveto
          53 60 27 56 72 hvcurveto
          57 45 49 50 41 55 -20 -87 -25 -79 -26 -69 -41 -105 -42 -67 -45 -28 -8 -5 -12 -5 -15 -3 rrcurveto
          -4 -43 callsubr
          -2 -52 callgsubr
          6 14 17 7 13 17 vhcurveto
          43 34 41 72 42 109 29 75 24 81 21 91 rrcurveto
          47 64 22 39 12 vvcurveto
          14 callsubr
          vhcurveto
          -1 -3 -4 -7 -5 hvcurveto
          -19 -30 -17 -24 -15 -20 18 82 12 76 7 70 64 -35 49 -28 31 -19 rrcurveto
          -4 7 6 -29 callsubr
          10 4 6 11 hvcurveto
          -190 77 rmoveto
          -6 -80 -13 -85 -20 -89 -43 -53 -48 -46 -49 -40 rrcurveto
          -54 -68 -57 -28 -46 hhcurveto
          -35 -26 15 28 -17 hvcurveto
          -14 24 -8 29 37 vvcurveto
          80 27 78 53 77 vhcurveto
          51 75 63 54 73 34 62 -9 61 -19 60 -28 rrcurveto
          130 -112 rmoveto
          7 -8 -9 4 -13 hhcurveto
          -27 -28 -49 -96 -27 hvcurveto
          -191 -56 -27 -96 -1 hhcurveto
          -41 -114 -48 -71 -55 -30 rrcurveto
          -13 -25 -27 -7 -27 hhcurveto
          -58 -43 31 62 -27 hvcurveto
          4 -1 -2 2 -1 hhcurveto
          -2 -1 -1 -3 -30 19 -26 39 -26 hvcurveto
          -24 35 33 -11 32 hhcurveto
          27 27 6 12 22 hvcurveto
          76 41 64 84 50 129 23 57 32 105 38 154 14 58 11 29 10 3 rrcurveto
          30 84 rmoveto
          -7 -3 -4 -4 -3 -4 2 3 -6 vhcurveto
          -47 26 -41 18 -34 11 3 57 rcurveline
          63 -13 45 -28 25 -42 rrcurveto
          4 -8 2 -7 -8 vvcurveto
          -154 109 rmoveto
          -18 -1 -18 -1 -19 vhcurveto
          -46 14 -56 13 -67 9 rrcurveto
          14 37 41 8 45 hhcurveto
          17 16 -1 -2 15 hvcurveto
          endchar
        </CharString>
        <CharString name="H">
          446 -219 13 34 14 354 16 hstem
          19 37 327 52 116 64 vstem
          596 212 rmoveto
          -39 callsubr
          -4 -9 -11 0 -1 -14 vhcurveto
          -1 -18 -12 -1 -5 hhcurveto
          -77 -2 -56 -3 -35 -3 rrcurveto
          55 107 27 85 66 vvcurveto
          78 -34 46 -68 14 vhcurveto
          30 -1 -1 14 -3 1 callsubr
          -3 -5 hvcurveto
          -34 vlineto
          1 -9 -11 1 -10 hhcurveto
          -32 -32 -5 -11 -33 hvcurveto
          -43 -14 -37 -21 -33 -28 rrcurveto
          -42 -34 -21 -36 -38 vvcurveto
          -28 13 -26 26 -25 vhcurveto
          21 -20 25 -16 30 -12 rrcurveto
          4 hlineto
          4 3 3 4 3 -1 -39 callsubr
          hvcurveto
          -57 29 -29 36 40 vvcurveto
          45 28 44 54 41 vhcurveto
          39 51 49 19 48 hhcurveto
          13 13 -2 -4 10 hvcurveto
          -5 -126 -35 -137 -67 -146 -42 -11 -37 -16 -32 -20 rrcurveto
          -45 -28 -23 -30 -33 vvcurveto
          -28 16 -25 33 -24 vhcurveto
          -47 -58 -44 -36 -42 -13 rrcurveto
          -2 -11 -8 -2 -6 hhcurveto
          -5 -2 -3 -2 -63 callsubr
          6 48 55 40 79 63 vhcurveto
          10 -7 13 -6 12 -5 rrcurveto
          -99 -82 -76 -49 -68 hhcurveto
          -27 -15 12 25 hvcurveto
          10 vlineto
          -5 -4 -3 -10 -12 vvcurveto
          -23 17 -11 33 77 86 50 100 95 vhcurveto
          -9 27 20 -4 12 hhcurveto
          7 -52 callsubr
          3 -3 1 -5 1 hvcurveto
          -27 5 -18 4 -8 2 66 71 58 81 49 90 39 7 51 5 63 3 rrcurveto
          2 33 27 1 20 hhcurveto
          14 3 7 4 6 vvcurveto
          255 -260 rmoveto
          0 -1 0 -1 1 vhcurveto
          0 -10 -9 -20 -19 vhcurveto
          -24 -23 -20 -18 -19 -13 rrcurveto
          -19 -27 -24 -10 -19 hhcurveto
          -48 -23 39 78 58 14 78 28 100 hvcurveto
          17 58 26 79 35 101 27 77 16 49 5 19 rrcurveto
          1 4 1 4 4 vvcurveto
          8 -2 5 -5 -5 -4 -7 -16 -6 vhcurveto
          -41 -103 -120 -291 rlineto
          -34 -96 -17 -77 -56 vvcurveto
          -86 38 -43 75 33 35 12 25 37 vhcurveto
          32 22 26 27 21 31 rrcurveto
          2 3 -41 callsubr
          vvcurveto
          -468 532 rmoveto
          -70 -31 -96 -59 -121 vhcurveto
          -24 -3 -21 -5 -20 -5 69 151 35 134 1 116 rrcurveto
          34 -16 16 -33 -52 vvcurveto
          -106 -316 rmoveto
          -43 -83 -47 -72 -50 -61 -14 5 -11 7 -8 8 37 49 35 58 33 67 22 9 23 6 23 7 rrcurveto
          -82 -28 rmoveto
          -32 -62 -32 -53 -35 -46 rrcurveto
          -13 14 -7 16 16 vvcurveto
          41 40 38 79 36 vhcurveto
          endchar
        </CharString>
        <CharString name="HT">
          -63 endchar
        </CharString>
        <CharString name="I">
          -82 callsubr
          665 560 rmoveto
          -83 callsubr
          vvcurveto
          35 -2 19 -3 2 vhcurveto
          -20 callsubr
          -3 -4 vvcurveto
          -57 -5 -57 -9 -54 vhcurveto
          -42 -25 -38 -28 -35 -32 rrcurveto
          -46 -44 -23 -39 -33 vvcurveto
          -12 5 -11 8 -10 vhcurveto
          -10 9 9 -5 13 hhcurveto
          3 2 -47 callgsubr
          -2 2 -3 2 hvcurveto
          -11 7 -4 8 13 vvcurveto
          17 8 23 17 31 vhcurveto
          15 27 16 21 15 16 20 19 26 20 35 21 -11 -61 -16 -63 -21 -62 -27 -83 -34 -74 -39 -66 -53 -89 -54 -58 -56 -26 -20 -6 -15 -4 -10 -1 rrcurveto
          -5 -1 -3 -3 -63 callsubr
          5 24 29 11 21 31 vhcurveto
          72 47 64 88 57 130 46 105 33 107 17 108 rrcurveto
          26 46 28 14 8 hhcurveto
          -43 callgsubr
          -1 -7 -6 -24 -14 -40 hvcurveto
          -59 -183 -70 -153 -82 -121 rrcurveto
          -104 -71 -70 -52 -69 hhcurveto
          -37 -31 13 28 -23 hvcurveto
          -22 25 -10 32 38 vvcurveto
          44 12 48 25 50 vhcurveto
          4 9 2 5 5 vvcurveto
          3 0 -57 callgsubr
          vhcurveto
          -1 6 9 0 9 hhcurveto
          10 15 0 2 21 hvcurveto
          20 15 1 11 hhcurveto
          69 35 -12 -22 -2 -4 -5 -6 -9 hvcurveto
          -7 -7 -4 -5 -3 vvcurveto
          -1 1 -1 3 vhcurveto
          22 13 10 14 18 vvcurveto
          24 -13 15 -26 7 vhcurveto
          4 -15 -23 2 -31 hhcurveto
          -16 -23 -1 -2 -31 hvcurveto
          -2 -31 -22 -1 -17 hhcurveto
          -1 -4 0 1 -5 hvcurveto
          1 -5 -3 0 -2 hhcurveto
          -7 -9 -3 -5 -9 hvcurveto
          -12 -6 -6 callsubr
          -5 6 -3 13 -3 vhcurveto
          12 -2 7 -2 -3 vvcurveto
          -1 -1 -24 callgsubr
          vhcurveto
          -15 -29 -8 -39 -51 vvcurveto
          -50 11 -40 21 -31 vhcurveto
          -35 24 36 -18 49 hhcurveto
          80 79 43 88 74 hvcurveto
          101 116 77 153 55 188 rrcurveto
          15 55 8 38 21 vvcurveto
          endchar
        </CharString>
        <CharString name="IJ">
          842 -230 39 49 13 206 9 89 29 447 11 hstem
          -73 callsubr
          48 36 347 12 vstem
          1290 -101 callgsubr
          -625 -52 rmoveto
          -83 callsubr
          vvcurveto
          35 -2 19 -3 2 vhcurveto
          -20 callsubr
          -3 -4 vvcurveto
          -57 -5 -57 -9 -54 vhcurveto
          -42 -25 -38 -28 -35 -32 rrcurveto
          -46 -44 -23 -39 -33 vvcurveto
          -12 5 -11 8 -10 vhcurveto
          -10 9 9 -5 13 hhcurveto
          3 2 -47 callgsubr
          -2 2 -3 2 hvcurveto
          -11 7 -4 8 13 vvcurveto
          17 8 23 17 31 vhcurveto
          15 27 16 21 15 16 20 19 26 20 35 21 -11 -61 -16 -63 -21 -62 -27 -83 -34 -74 -39 -66 -53 -89 -54 -58 -56 -26 -20 -6 -15 -4 -10 -1 rrcurveto
          -5 -1 -3 -3 -63 callsubr
          5 24 29 11 21 31 vhcurveto
          72 47 64 88 57 130 46 105 33 107 17 108 rrcurveto
          26 46 28 14 8 hhcurveto
          -43 callgsubr
          -1 -7 -6 -24 -14 -40 hvcurveto
          -59 -183 -70 -153 -82 -121 rrcurveto
          -104 -71 -70 -52 -69 hhcurveto
          -37 -31 13 28 -23 hvcurveto
          -22 25 -10 32 38 vvcurveto
          44 12 48 25 50 vhcurveto
          4 9 2 5 5 vvcurveto
          3 0 -57 callgsubr
          vhcurveto
          -1 6 9 0 9 hhcurveto
          10 15 0 2 21 hvcurveto
          20 15 1 11 hhcurveto
          69 35 -12 -22 -2 -4 -5 -6 -9 hvcurveto
          -7 -7 -4 -5 -3 vvcurveto
          -1 1 -1 3 vhcurveto
          22 13 10 14 18 vvcurveto
          24 -13 15 -26 7 vhcurveto
          4 -15 -23 2 -31 hhcurveto
          -16 -23 -1 -2 -31 hvcurveto
          -2 -31 -22 -1 -17 hhcurveto
          -1 -4 0 1 -5 hvcurveto
          1 -5 -3 0 -2 hhcurveto
          -7 -9 -3 -5 -9 hvcurveto
          -12 -6 -6 callsubr
          -5 6 -3 13 -3 vhcurveto
          12 -2 7 -2 -3 vvcurveto
          -1 -1 -24 callgsubr
          vhcurveto
          -15 -29 -8 -39 -51 vvcurveto
          -50 11 -40 21 -31 vhcurveto
          -35 24 36 -18 49 hhcurveto
          80 79 43 88 74 hvcurveto
          101 116 77 153 55 188 rrcurveto
          15 55 8 38 21 vvcurveto
          617 57 -73 callgsubr
        </CharString>
        <CharString name="Iacute">
          -82 callsubr
          665 560 rmoveto
          -83 callsubr
          vvcurveto
          35 -2 19 -3 2 vhcurveto
          -20 callsubr
          -3 -4 vvcurveto
          -57 -5 -57 -9 -54 vhcurveto
          -42 -25 -38 -28 -35 -32 rrcurveto
          -46 -44 -23 -39 -33 vvcurveto
          -12 5 -11 8 -10 vhcurveto
          -10 9 9 -5 13 hhcurveto
          3 2 -47 callgsubr
          -2 2 -3 2 hvcurveto
          -11 7 -4 8 13 vvcurveto
          17 8 23 17 31 vhcurveto
          15 27 16 21 15 16 20 19 26 20 35 21 -11 -61 -16 -63 -21 -62 -27 -83 -34 -74 -39 -66 -53 -89 -54 -58 -56 -26 -20 -6 -15 -4 -10 -1 rrcurveto
          -5 -1 -3 -3 -63 callsubr
          5 24 29 11 21 31 vhcurveto
          72 47 64 88 57 130 46 105 33 107 17 108 rrcurveto
          26 46 28 14 8 hhcurveto
          -43 callgsubr
          -1 -7 -6 -24 -14 -40 hvcurveto
          -59 -183 -70 -153 -82 -121 rrcurveto
          -104 -71 -70 -52 -69 hhcurveto
          -37 -31 13 28 -23 hvcurveto
          -22 25 -10 32 38 vvcurveto
          44 12 48 25 50 vhcurveto
          4 9 2 5 5 vvcurveto
          3 0 -57 callgsubr
          vhcurveto
          -1 6 9 0 9 hhcurveto
          10 15 0 2 21 hvcurveto
          20 15 1 11 hhcurveto
          69 35 -12 -22 -2 -4 -5 -6 -9 hvcurveto
          -7 -7 -4 -5 -3 vvcurveto
          -1 1 -1 3 vhcurveto
          22 13 10 14 18 vvcurveto
          24 -13 15 -26 7 vhcurveto
          4 -15 -23 2 -31 hhcurveto
          -16 -23 -1 -2 -31 hvcurveto
          -2 -31 -22 -1 -17 hhcurveto
          -1 -4 0 1 -5 hvcurveto
          1 -5 -3 0 -2 hhcurveto
          -7 -9 -3 -5 -9 hvcurveto
          -12 -6 -6 callsubr
          -5 6 -3 13 -3 vhcurveto
          12 -2 7 -2 -3 vvcurveto
          -1 -1 -24 callgsubr
          vhcurveto
          -15 -29 -8 -39 -51 vvcurveto
          -50 11 -40 21 -31 vhcurveto
          -35 24 36 -18 49 hhcurveto
          80 79 43 88 74 hvcurveto
          101 116 77 153 55 188 rrcurveto
          15 55 8 38 21 vvcurveto
          66 216 -101 callsubr
          endchar
        </CharString>
        <CharString name="Icircumflex">
          -82 callsubr
          796 689 rmoveto
          -43 38 -31 33 -21 27 -7 10 -6 4 -13 -8 -15 -8 -24 -16 -33 -23 -29 -20 -20 -15 -12 -11 rrcurveto
          1 vlineto
          -13 callsubr
          -13 callsubr
          rrcurveto
          -5 -4 -2 -4 -2 vvcurveto
          -7 -2 1 -3 5 hhcurveto
          3 hlineto
          -1 -51 -5 -51 -8 -49 -42 -25 -38 -28 -35 -32 rrcurveto
          -46 -44 -23 -39 -33 vvcurveto
          -12 5 -11 8 -10 vhcurveto
          -10 9 9 -5 13 hhcurveto
          3 2 -47 callgsubr
          -2 2 -3 2 hvcurveto
          -11 7 -4 8 13 vvcurveto
          17 8 23 17 31 vhcurveto
          15 27 16 21 15 16 20 19 26 20 35 21 -11 -61 -16 -63 -21 -62 -27 -83 -34 -74 -39 -66 -53 -89 -54 -58 -56 -26 -20 -6 -15 -4 -10 -1 rrcurveto
          -5 -1 -3 -3 -63 callsubr
          5 24 29 11 21 31 vhcurveto
          72 47 64 88 57 130 46 105 33 107 17 108 rrcurveto
          26 46 28 14 8 hhcurveto
          -43 callgsubr
          -1 -7 -6 -24 -14 -40 hvcurveto
          -59 -183 -70 -153 -82 -121 rrcurveto
          -104 -71 -70 -52 -69 hhcurveto
          -37 -31 13 28 -23 hvcurveto
          -22 25 -10 32 38 vvcurveto
          44 12 48 25 50 vhcurveto
          4 9 2 5 5 vvcurveto
          3 0 -57 callgsubr
          vhcurveto
          -1 6 9 0 9 hhcurveto
          10 15 0 2 21 hvcurveto
          20 15 1 11 hhcurveto
          69 35 -12 -22 -2 -4 -5 -6 -9 hvcurveto
          -7 -7 -4 -5 -3 vvcurveto
          -1 1 -1 3 vhcurveto
          22 13 10 14 18 vvcurveto
          24 -13 15 -26 7 vhcurveto
          4 -15 -23 2 -31 hhcurveto
          -16 -23 -1 -2 -31 hvcurveto
          -2 -31 -22 -1 -17 hhcurveto
          -1 -4 0 1 -5 hvcurveto
          1 -5 -3 0 -2 hhcurveto
          -7 -9 -3 -5 -9 hvcurveto
          -12 -6 -6 callsubr
          -5 6 -3 13 -3 vhcurveto
          12 -2 7 -2 -3 vvcurveto
          -1 -1 -24 callgsubr
          vhcurveto
          -15 -29 -8 -39 -51 vvcurveto
          -50 11 -40 21 -31 vhcurveto
          -35 24 36 -18 49 hhcurveto
          80 79 43 88 74 hvcurveto
          101 116 77 153 55 188 rrcurveto
          15 55 8 38 21 vvcurveto
          -83 callsubr
          15 -1 11 9 vvcurveto
          19 10 40 26 63 44 8 -7 19 -23 30 -22 rrcurveto
          -23 32 20 -13 16 hhcurveto
          13 -1 11 6 -9 hvcurveto
          endchar
        </CharString>
        <CharString name="Idieresis">
          -82 callsubr
          665 560 rmoveto
          -83 callsubr
          vvcurveto
          35 -2 19 -3 2 vhcurveto
          -20 callsubr
          -3 -4 vvcurveto
          -57 -5 -57 -9 -54 vhcurveto
          -42 -25 -38 -28 -35 -32 rrcurveto
          -46 -44 -23 -39 -33 vvcurveto
          -12 5 -11 8 -10 vhcurveto
          -10 9 9 -5 13 hhcurveto
          3 2 -47 callgsubr
          -2 2 -3 2 hvcurveto
          -11 7 -4 8 13 vvcurveto
          17 8 23 17 31 vhcurveto
          15 27 16 21 15 16 20 19 26 20 35 21 -11 -61 -16 -63 -21 -62 -27 -83 -34 -74 -39 -66 -53 -89 -54 -58 -56 -26 -20 -6 -15 -4 -10 -1 rrcurveto
          -5 -1 -3 -3 -63 callsubr
          5 24 29 11 21 31 vhcurveto
          72 47 64 88 57 130 46 105 33 107 17 108 rrcurveto
          26 46 28 14 8 hhcurveto
          -43 callgsubr
          -1 -7 -6 -24 -14 -40 hvcurveto
          -59 -183 -70 -153 -82 -121 rrcurveto
          -104 -71 -70 -52 -69 hhcurveto
          -37 -31 13 28 -23 hvcurveto
          -22 25 -10 32 38 vvcurveto
          44 12 48 25 50 vhcurveto
          4 9 2 5 5 vvcurveto
          3 0 -57 callgsubr
          vhcurveto
          -1 6 9 0 9 hhcurveto
          10 15 0 2 21 hvcurveto
          20 15 1 11 hhcurveto
          69 35 -12 -22 -2 -4 -5 -6 -9 hvcurveto
          -7 -7 -4 -5 -3 vvcurveto
          -1 1 -1 3 vhcurveto
          22 13 10 14 18 vvcurveto
          24 -13 15 -26 7 vhcurveto
          4 -15 -23 2 -31 hhcurveto
          -16 -23 -1 -2 -31 hvcurveto
          -2 -31 -22 -1 -17 hhcurveto
          -1 -4 0 1 -5 hvcurveto
          1 -5 -3 0 -2 hhcurveto
          -7 -9 -3 -5 -9 hvcurveto
          -12 -6 -6 callsubr
          -5 6 -3 13 -3 vhcurveto
          12 -2 7 -2 -3 vvcurveto
          -1 -1 -24 callgsubr
          vhcurveto
          -15 -29 -8 -39 -51 vvcurveto
          -50 11 -40 21 -31 vhcurveto
          -35 24 36 -18 49 hhcurveto
          80 79 43 88 74 hvcurveto
          101 116 77 153 55 188 rrcurveto
          15 55 8 38 21 vvcurveto
          -24 238 rmoveto
          -103 callsubr
          134 hmoveto
          -103 callsubr
          endchar
        </CharString>
        <CharString name="Igrave">
          -82 callsubr
          665 560 rmoveto
          -83 callsubr
          vvcurveto
          35 -2 19 -3 2 vhcurveto
          -20 callsubr
          -3 -4 vvcurveto
          -57 -5 -57 -9 -54 vhcurveto
          -42 -25 -38 -28 -35 -32 rrcurveto
          -46 -44 -23 -39 -33 vvcurveto
          -12 5 -11 8 -10 vhcurveto
          -10 9 9 -5 13 hhcurveto
          3 2 -47 callgsubr
          -2 2 -3 2 hvcurveto
          -11 7 -4 8 13 vvcurveto
          17 8 23 17 31 vhcurveto
          15 27 16 21 15 16 20 19 26 20 35 21 -11 -61 -16 -63 -21 -62 -27 -83 -34 -74 -39 -66 -53 -89 -54 -58 -56 -26 -20 -6 -15 -4 -10 -1 rrcurveto
          -5 -1 -3 -3 -63 callsubr
          5 24 29 11 21 31 vhcurveto
          72 47 64 88 57 130 46 105 33 107 17 108 rrcurveto
          26 46 28 14 8 hhcurveto
          -43 callgsubr
          -1 -7 -6 -24 -14 -40 hvcurveto
          -59 -183 -70 -153 -82 -121 rrcurveto
          -104 -71 -70 -52 -69 hhcurveto
          -37 -31 13 28 -23 hvcurveto
          -22 25 -10 32 38 vvcurveto
          44 12 48 25 50 vhcurveto
          4 9 2 5 5 vvcurveto
          3 0 -57 callgsubr
          vhcurveto
          -1 6 9 0 9 hhcurveto
          10 15 0 2 21 hvcurveto
          20 15 1 11 hhcurveto
          69 35 -12 -22 -2 -4 -5 -6 -9 hvcurveto
          -7 -7 -4 -5 -3 vvcurveto
          -1 1 -1 3 vhcurveto
          22 13 10 14 18 vvcurveto
          24 -13 15 -26 7 vhcurveto
          4 -15 -23 2 -31 hhcurveto
          -16 -23 -1 -2 -31 hvcurveto
          -2 -31 -22 -1 -17 hhcurveto
          -1 -4 0 1 -5 hvcurveto
          1 -5 -3 0 -2 hhcurveto
          -7 -9 -3 -5 -9 hvcurveto
          -12 -6 -6 callsubr
          -5 6 -3 13 -3 vhcurveto
          12 -2 7 -2 -3 vvcurveto
          -1 -1 -24 callgsubr
          vhcurveto
          -15 -29 -8 -39 -51 vvcurveto
          -50 11 -40 21 -31 vhcurveto
          -35 24 36 -18 49 hhcurveto
          80 79 43 88 74 hvcurveto
          101 116 77 153 55 188 rrcurveto
          15 55 8 38 21 vvcurveto
          67 116 -96 callgsubr
        </CharString>
        <CharString name="Itilde">
          372 -142 13 304 29 506 -60 callsubr
          hstemhm
          -73 callsubr
          hintmask 1100001111000000
          665 560 rmoveto
          -83 callsubr
          vvcurveto
          35 -2 19 -3 2 vhcurveto
          -20 callsubr
          -3 -4 vvcurveto
          -57 -5 -57 -9 -54 vhcurveto
          -42 -25 -38 -28 -35 -32 rrcurveto
          -46 -44 -23 -39 -33 vvcurveto
          -12 5 -11 8 -10 vhcurveto
          -10 9 9 -5 13 hhcurveto
          3 2 -47 callgsubr
          -2 2 -3 2 hvcurveto
          -11 7 -4 8 13 vvcurveto
          17 8 23 17 31 vhcurveto
          15 27 16 21 15 16 20 19 26 20 35 21 -11 -61 -16 -63 -21 -62 -27 -83 -34 -74 -39 -66 -53 -89 -54 -58 -56 -26 -20 -6 -15 -4 -10 -1 rrcurveto
          -5 -1 -3 -3 -63 callsubr
          5 24 29 11 21 31 vhcurveto
          72 47 64 88 57 130 46 105 33 107 17 108 rrcurveto
          26 46 28 14 8 hhcurveto
          -43 callgsubr
          -1 -7 -6 -24 -14 -40 hvcurveto
          -59 -183 -70 -153 -82 -121 rrcurveto
          -104 -71 -70 -52 -69 hhcurveto
          -37 -31 13 28 -23 hvcurveto
          -22 25 -10 32 38 vvcurveto
          44 12 48 25 50 vhcurveto
          4 9 2 5 5 vvcurveto
          3 0 -57 callgsubr
          vhcurveto
          -1 6 9 0 9 hhcurveto
          10 15 0 2 21 hvcurveto
          20 15 1 11 hhcurveto
          69 35 -12 -22 -2 -4 -5 -6 -9 hvcurveto
          -7 -7 -4 -5 -3 vvcurveto
          -1 1 -1 3 vhcurveto
          22 13 10 14 18 vvcurveto
          24 -13 15 -26 7 vhcurveto
          4 -15 -23 2 -31 hhcurveto
          -16 -23 -1 -2 -31 hvcurveto
          -2 -31 -22 -1 -17 hhcurveto
          -1 -4 0 1 -5 hvcurveto
          1 -5 -3 0 -2 hhcurveto
          -7 -9 -3 -5 -9 hvcurveto
          -12 -6 -6 callsubr
          -5 6 -3 13 -3 vhcurveto
          12 -2 7 -2 -3 vvcurveto
          -1 -1 -24 callgsubr
          vhcurveto
          -15 -29 -8 -39 -51 vvcurveto
          -50 11 -40 21 -31 vhcurveto
          -35 24 36 -18 49 hhcurveto
          80 79 43 88 74 hvcurveto
          101 116 77 153 55 188 rrcurveto
          15 55 8 38 21 vvcurveto
          hintmask 0011110000000000
          120 198 -67 callgsubr
          -98 callgsubr
          endchar
        </CharString>
        <CharString name="J">
          219 -230 39 268 9 565 11 hstem
          11 36 347 12 vstem
          706 -101 callgsubr
          -8 5 -73 callgsubr
        </CharString>
        <CharString name="Jcircumflex">
          219 -230 39 268 9 565 11 hstem
          11 36 347 12 vstem
          706 -101 callgsubr
          72 74 -95 callgsubr
          -80 -69 -73 callgsubr
        </CharString>
        <CharString name="K">
          529 -198 32 23 11 353 18 327 18 hstem
          1 35 214 31 710 16 vstem
          1185 407 rmoveto
          50 -17 44 -32 35 vhcurveto
          35 -32 -41 18 -50 hhcurveto
          -94 -88 -46 -91 -81 hvcurveto
          -52 -58 -55 -85 -15 callgsubr
          rrcurveto
          28 80 14 57 35 vvcurveto
          7 -1 5 -2 1 vhcurveto
          4 -8 -19 3 -29 hhcurveto
          -84 -82 -15 -29 -82 hvcurveto
          -73 -27 -36 -29 -29 vvcurveto
          -10 6 -13 13 -16 vhcurveto
          -15 11 11 -8 7 hhcurveto
          2 1 -24 callsubr
          -4 5 -6 9 hvcurveto
          -7 10 -3 10 11 vvcurveto
          41 43 34 86 25 vhcurveto
          19 64 61 8 56 hhcurveto
          7 8 0 -1 8 hvcurveto
          -22 -105 -31 -99 -39 -92 -62 callsubr
          rrcurveto
          -6 -21 -21 -3 -18 hhcurveto
          -41 -32 15 30 -21 hvcurveto
          -20 26 -10 34 42 vvcurveto
          49 13 45 26 41 vhcurveto
          48 29 38 23 47 hhcurveto
          20 14 -5 -12 7 hvcurveto
          4 -5 3 -7 2 -7 rrcurveto
          7 callgsubr
          4 vvcurveto
          14 -6 12 -15 8 vhcurveto
          9 -13 -14 4 -15 hhcurveto
          -54 -42 -22 -44 -35 hvcurveto
          -31 -41 -16 -47 -55 vvcurveto
          -51 14 -42 30 -32 vhcurveto
          -32 29 39 -16 50 hhcurveto
          144 129 117 235 114 hvcurveto
          -28 callgsubr
          -8 -5 -12 -4 -14 -2 rrcurveto
          -3 -2 -2 -3 -6 5 -4 10 29 42 48 95 53 hvcurveto
          43 76 26 -52 25 -54 27 -52 rlinecurve
          30 -55 39 -46 44 -37 rrcurveto
          -42 48 47 -21 43 hhcurveto
          31 24 11 20 18 hvcurveto
          18 20 10 25 32 vvcurveto
          42 -15 39 -32 37 vhcurveto
          5 -3 -4 2 -3 hhcurveto
          -2 -4 callsubr
          -1 1 -2 2 -2 hvcurveto
          28 -38 13 -40 -43 vvcurveto
          -49 -18 -23 -36 -23 -29 12 23 -34 vhcurveto
          5 callsubr
          60 107 55 79 49 55 rrcurveto
          85 79 83 43 85 hhcurveto
          48 41 -13 -26 33 hvcurveto
          36 -29 18 -37 -46 vvcurveto
          -12 1 -5 2 3 2 6 15 vhcurveto
          endchar
        </CharString>
        <CharString name="L">
          296 -100 callgsubr
          endchar
        </CharString>
        <CharString name="Ldotaccent">
          372 -100 callgsubr
          213 7 rmoveto
          6 -2 3 -3 -7 -13 -11 -21 -19 vhcurveto
          -12 -5 -6 -8 -12 -44 callgsubr
          -7 5 -8 6 callsubr
          13 10 11 22 7 hvcurveto
          7 25 4 16 5 vvcurveto
          endchar
        </CharString>
        <CharString name="Lslash">
          475 -121 63 10 21 684 29 hstem
          650 14 38 10 vstem
          712 23 rmoveto
          27 -12 25 -25 23 vhcurveto
          7 -7 14 callgsubr
          15 -21 hvcurveto
          14 -21 7 -17 -15 vvcurveto
          -29 -23 -20 -45 -13 vhcurveto
          -8 -29 -35 -5 -41 hhcurveto
          -62 -76 9 18 -91 hvcurveto
          -228 46 21 20 20 25 22 30 rlinecurve
          11 15 19 28 25 39 82 128 rcurveline
          55 23 49 18 44 12 33 9 26 5 17 4 rrcurveto
          4 -41 callsubr
          4 vvcurveto
          5 -3 2 -5 -2 -10 -1 -2 -19 vhcurveto
          -57 -7 -54 -11 -49 -16 56 87 47 70 37 54 rrcurveto
          65 45 41 33 39 hhcurveto
          27 21 -16 -30 15 hvcurveto
          12 -25 7 -27 -31 vvcurveto
          -31 -7 -31 -14 -31 vhcurveto
          -1 -20 callsubr
          -1 vvcurveto
          -4 2 -2 5 3 -5 callgsubr
          vhcurveto
          15 36 8 39 43 vvcurveto
          37 -7 32 -16 26 vhcurveto
          32 -19 -27 15 -34 hhcurveto
          -49 -50 -31 -66 -48 hvcurveto
          -32 -44 -21 -35 -15 -23 -105 -162 rcurveline
          -63 -27 -47 -20 -31 -14 -76 -32 rcurveline
          -3 -1 -1 -3 -5 vvcurveto
          -17 4 -8 9 4 57 24 49 109 vhcurveto
          -199 -135 -93 -99 -49 hhcurveto
          -15 -8 -3 -5 -9 11 -4 22 17 20 5 12 21 hvcurveto
          53 31 25 -5 75 -25 127 -43 rlinecurve
          -32 96 76 -16 57 hhcurveto
          17 17 2 3 17 hvcurveto
          35 7 34 17 32 24 rrcurveto
          38 29 19 30 32 vvcurveto
          endchar
        </CharString>
        <CharString name="M">
          891 -137 15 90 12 656 39 hstem
          -6 19 81 16 412 14 31 28 321 50 vstem
          1337 587 rmoveto
          26 -6 20 -12 16 vhcurveto
          18 -15 -19 8 -23 hhcurveto
          -37 -47 -22 -46 -56 hvcurveto
          -41 -33 -38 -38 -36 -43 rrcurveto
          3 17 1 11 2 vvcurveto
          6 -1 3 -2 -1 -7 -20 -40 -10 vhcurveto
          -35 -44 -35 -51 -38 -58 -21 -33 -34 -53 -43 -74 -77 -130 -54 -73 -30 -19 rrcurveto
          30 47 15 58 68 vvcurveto
          13 -1 13 -2 12 vhcurveto
          -18 114 -9 91 69 vvcurveto
          93 16 54 31 16 vhcurveto
          3 2 2 2 2 vvcurveto
          -69 callsubr
          -1 -35 -28 -39 -79 -18 vhcurveto
          -12 -54 -7 -53 -52 vvcurveto
          -56 5 -56 9 -55 vhcurveto
          14 -74 6 -52 -32 -22 callgsubr
          7 13 10 19 20 vhcurveto
          26 25 33 39 38 58 6 8 37 61 71 111 46 72 39 59 35 45 rrcurveto
          -40 -144 -20 -104 -66 vvcurveto
          -94 33 -47 66 46 50 51 104 55 vhcurveto
          2 2 0 10 callgsubr
          14 callsubr
          vhcurveto
          -2 -47 callsubr
          -3 hvcurveto
          -22 -35 rlineto
          -74 -47 -39 -37 -30 hhcurveto
          -37 -19 50 100 64 12 108 23 152 hvcurveto
          121 99 86 61 73 hhcurveto
          46 24 -22 -45 -7 -2 -8 -3 -12 hvcurveto
          -3 -11 -1 -8 -4 vvcurveto
          -3 vlineto
          5 1 4 11 4 21 rrcurveto
          3 16 1 14 8 vvcurveto
          -742 -65 rmoveto
          22 -1 17 -2 11 vhcurveto
          7 -2 -4 4 -7 hhcurveto
          -4 -5 -3 -4 -4 hvcurveto
          -7 -3 -11 -2 -12 -3 rrcurveto
          1 14 1 15 14 vvcurveto
          20 -1 18 -2 16 vhcurveto
          3 -2 2 -1 -19 callgsubr
          -5 -45 -1 -32 -2 -19 vhcurveto
          -51 -7 -51 -7 -51 -9 -79 -12 -62 -18 -44 -20 rrcurveto
          -60 -28 -30 -33 -41 vvcurveto
          -37 15 -33 31 -31 vhcurveto
          -31 30 33 -15 37 hhcurveto
          5 3 1 3 1 -17 callgsubr
          hvcurveto
          -31 8 -31 16 -26 27 rrcurveto
          -30 29 -14 30 30 vvcurveto
          39 39 31 79 20 vhcurveto
          31 7 56 8 79 8 63 7 41 6 19 3 -11 -67 -18 -66 -25 -68 -32 -81 -41 -76 -50 -70 -63 -87 -62 -56 -64 -24 -21 -6 -15 -4 -11 -1 rrcurveto
          -5 -3 -3 -4 -5 4 -3 6 24 27 10 18 31 hvcurveto
          55 32 55 55 55 78 46 65 37 69 30 74 33 77 22 74 10 71 14 3 13 4 8 4 rrcurveto
          1 -6 0 -5 -6 vvcurveto
          -75 -24 -88 -46 -99 vhcurveto
          -49 -104 -59 -86 -69 -69 rrcurveto
          -78 -80 -79 -39 -79 hhcurveto
          -21 -17 8 16 -13 hvcurveto
          -12 15 -6 18 21 vvcurveto
          14 4 15 7 16 vhcurveto
          5 16 4 9 0 vvcurveto
          2 -17 callsubr
          -1 -4 callsubr
          -2 vhcurveto
          -21 -29 -11 -28 -28 vvcurveto
          -24 8 -20 15 -14 vhcurveto
          -14 15 20 -7 25 hhcurveto
          75 73 30 59 73 hvcurveto
          81 64 68 86 57 106 rrcurveto
          60 112 31 105 97 vvcurveto
          endchar
        </CharString>
        <CharString name="N">
          -27 callgsubr
          hstem
          2 19 81 16 412 11 vstem
          1142 535 rmoveto
          30 -14 32 -28 33 vhcurveto
          35 -28 -30 18 -30 hhcurveto
          -18 -18 -5 -10 -18 hvcurveto
          -61 -34 -47 -64 -33 -93 -15 -43 -19 -80 -23 -117 -15 -80 -14 -54 -14 -30 -31 69 -31 107 -26 146 -18 98 rcurveline
          -4 19 -3 14 -1 10 rrcurveto
          -1 9 -1 10 8 vvcurveto
          14 -2 -4 6 -7 hhcurveto
          -6 -4 -3 -4 -3 hvcurveto
          -10 -3 -13 -4 -18 -3 rrcurveto
          5 33 2 32 29 vvcurveto
          18 0 16 -1 15 vhcurveto
          3 -1 -1 1 -2 hhcurveto
          -4 -47 callsubr
          -55 -3 -48 -5 -39 hvcurveto
          -51 -7 -50 -7 -51 -8 -77 -12 -60 -18 -43 -20 rrcurveto
          -59 -27 -29 -34 -40 vvcurveto
          -37 15 -33 30 -31 vhcurveto
          -31 31 33 -15 37 hhcurveto
          5 3 1 3 1 -17 callgsubr
          hvcurveto
          -32 8 -29 17 -27 26 rrcurveto
          -29 30 -15 29 30 vvcurveto
          39 38 29 75 20 vhcurveto
          31 8 53 9 75 7 123 15 rcurveline
          -13 -63 -19 -64 -25 -64 -30 -79 -38 -73 -44 -69 -58 -91 -57 -57 -54 -24 -10 -3 -12 -4 -17 -3 rrcurveto
          -6 -1 -3 -2 -4 vvcurveto
          -4 3 -2 7 20 23 8 17 27 vhcurveto
          49 33 48 56 50 79 39 61 35 67 30 72 31 75 23 71 14 70 21 3 16 5 11 5 rrcurveto
          1 -6 0 -5 -6 vvcurveto
          -75 -23 -88 -47 -99 vhcurveto
          -48 -104 -59 -86 -70 -69 rrcurveto
          -78 -80 -80 -39 -79 hhcurveto
          -20 -17 8 16 -12 hvcurveto
          -12 15 -7 18 21 vvcurveto
          14 4 15 6 16 vhcurveto
          6 16 4 9 0 vvcurveto
          2 -1 2 -2 -1 -13 callsubr
          -2 vhcurveto
          -21 -29 -10 -28 -28 vvcurveto
          -24 7 -20 16 -14 vhcurveto
          -14 15 20 -7 25 hhcurveto
          74 74 30 59 73 hvcurveto
          71 57 62 74 54 90 53 90 34 90 16 90 11 -123 8 -71 2 -20 14 -88 21 -67 29 -46 -5 -3 -6 -2 -10 -2 rrcurveto
          -6 -1 -4 -2 -2 vvcurveto
          -8 6 -4 14 8 8 2 4 7 vhcurveto
          -40 29 32 -20 36 hhcurveto
          37 37 19 39 39 hvcurveto
          4 3 2 2 callsubr
          -56 callsubr
          1 -10 -9 -17 -21 vhcurveto
          -17 -21 -20 -8 -18 hhcurveto
          -33 -31 28 56 -27 hvcurveto
          10 22 9 26 8 31 2 9 8 26 10 46 27 111 22 78 17 43 37 92 49 59 59 27 rrcurveto
          7 14 15 4 14 hhcurveto
          26 23 -10 -20 19 hvcurveto
          17 -17 12 -22 8 -27 rrcurveto
          -5 2 2 -3 2 hhcurveto
          2 1 1 -16 callsubr
        </CharString>
        <CharString name="Nacute">
          -27 callgsubr
          hstem
          2 19 81 16 412 11 vstem
          1142 535 rmoveto
          30 -14 32 -28 33 vhcurveto
          35 -28 -30 18 -30 hhcurveto
          -18 -18 -5 -10 -18 hvcurveto
          -61 -34 -47 -64 -33 -93 -15 -43 -19 -80 -23 -117 -15 -80 -14 -54 -14 -30 -31 69 -31 107 -26 146 -18 98 rcurveline
          -4 19 -3 14 -1 10 rrcurveto
          -1 9 -1 10 8 vvcurveto
          14 -2 -4 6 -7 hhcurveto
          -6 -4 -3 -4 -3 hvcurveto
          -10 -3 -13 -4 -18 -3 rrcurveto
          5 33 2 32 29 vvcurveto
          18 0 16 -1 15 vhcurveto
          3 -1 -1 1 -2 hhcurveto
          -4 -47 callsubr
          -55 -3 -48 -5 -39 hvcurveto
          -51 -7 -50 -7 -51 -8 -77 -12 -60 -18 -43 -20 rrcurveto
          -59 -27 -29 -34 -40 vvcurveto
          -37 15 -33 30 -31 vhcurveto
          -31 31 33 -15 37 hhcurveto
          5 3 1 3 1 -17 callgsubr
          hvcurveto
          -32 8 -29 17 -27 26 rrcurveto
          -29 30 -15 29 30 vvcurveto
          39 38 29 75 20 vhcurveto
          31 8 53 9 75 7 123 15 rcurveline
          -13 -63 -19 -64 -25 -64 -30 -79 -38 -73 -44 -69 -58 -91 -57 -57 -54 -24 -10 -3 -12 -4 -17 -3 rrcurveto
          -6 -1 -3 -2 -4 vvcurveto
          -4 3 -2 7 20 23 8 17 27 vhcurveto
          49 33 48 56 50 79 39 61 35 67 30 72 31 75 23 71 14 70 21 3 16 5 11 5 rrcurveto
          1 -6 0 -5 -6 vvcurveto
          -75 -23 -88 -47 -99 vhcurveto
          -48 -104 -59 -86 -70 -69 rrcurveto
          -78 -80 -80 -39 -79 hhcurveto
          -20 -17 8 16 -12 hvcurveto
          -12 15 -7 18 21 vvcurveto
          14 4 15 6 16 vhcurveto
          6 16 4 9 0 vvcurveto
          2 -1 2 -2 -1 -13 callsubr
          -2 vhcurveto
          -21 -29 -10 -28 -28 vvcurveto
          -24 7 -20 16 -14 vhcurveto
          -14 15 20 -7 25 hhcurveto
          74 74 30 59 73 hvcurveto
          71 57 62 74 54 90 53 90 34 90 16 90 11 -123 8 -71 2 -20 14 -88 21 -67 29 -46 -5 -3 -6 -2 -10 -2 rrcurveto
          -6 -1 -4 -2 -2 vvcurveto
          -8 6 -4 14 8 8 2 4 7 vhcurveto
          -40 29 32 -20 36 hhcurveto
          37 37 19 39 39 hvcurveto
          4 3 2 2 callsubr
          -56 callsubr
          1 -10 -9 -17 -21 vhcurveto
          -17 -21 -20 -8 -18 hhcurveto
          -33 -31 28 56 -27 hvcurveto
          10 22 9 26 8 31 2 9 8 26 10 46 27 111 22 78 17 43 37 92 49 59 59 27 rrcurveto
          7 14 15 4 14 hhcurveto
          26 23 -10 -20 19 hvcurveto
          17 -17 12 -22 8 -27 rrcurveto
          -5 2 2 -3 2 hhcurveto
          2 1 1 3 hvcurveto
          -286 234 -101 callsubr
          endchar
        </CharString>
        <CharString name="Ntilde">
          -27 callgsubr
          25 -60 callsubr
          hstem
          2 19 81 16 412 11 vstem
          1142 535 rmoveto
          30 -14 32 -28 33 vhcurveto
          35 -28 -30 18 -30 hhcurveto
          -18 -18 -5 -10 -18 hvcurveto
          -61 -34 -47 -64 -33 -93 -15 -43 -19 -80 -23 -117 -15 -80 -14 -54 -14 -30 -31 69 -31 107 -26 146 -18 98 rcurveline
          -4 19 -3 14 -1 10 rrcurveto
          -1 9 -1 10 8 vvcurveto
          14 -2 -4 6 -7 hhcurveto
          -6 -4 -3 -4 -3 hvcurveto
          -10 -3 -13 -4 -18 -3 rrcurveto
          5 33 2 32 29 vvcurveto
          18 0 16 -1 15 vhcurveto
          3 -1 -1 1 -2 hhcurveto
          -4 -47 callsubr
          -55 -3 -48 -5 -39 hvcurveto
          -51 -7 -50 -7 -51 -8 -77 -12 -60 -18 -43 -20 rrcurveto
          -59 -27 -29 -34 -40 vvcurveto
          -37 15 -33 30 -31 vhcurveto
          -31 31 33 -15 37 hhcurveto
          5 3 1 3 1 -17 callgsubr
          hvcurveto
          -32 8 -29 17 -27 26 rrcurveto
          -29 30 -15 29 30 vvcurveto
          39 38 29 75 20 vhcurveto
          31 8 53 9 75 7 123 15 rcurveline
          -13 -63 -19 -64 -25 -64 -30 -79 -38 -73 -44 -69 -58 -91 -57 -57 -54 -24 -10 -3 -12 -4 -17 -3 rrcurveto
          -6 -1 -3 -2 -4 vvcurveto
          -4 3 -2 7 20 23 8 17 27 vhcurveto
          49 33 48 56 50 79 39 61 35 67 30 72 31 75 23 71 14 70 21 3 16 5 11 5 rrcurveto
          1 -6 0 -5 -6 vvcurveto
          -75 -23 -88 -47 -99 vhcurveto
          -48 -104 -59 -86 -70 -69 rrcurveto
          -78 -80 -80 -39 -79 hhcurveto
          -20 -17 8 16 -12 hvcurveto
          -12 15 -7 18 21 vvcurveto
          14 4 15 6 16 vhcurveto
          6 16 4 9 0 vvcurveto
          2 -1 2 -2 -1 -13 callsubr
          -2 vhcurveto
          -21 -29 -10 -28 -28 vvcurveto
          -24 7 -20 16 -14 vhcurveto
          -14 15 20 -7 25 hhcurveto
          74 74 30 59 73 hvcurveto
          71 57 62 74 54 90 53 90 34 90 16 90 11 -123 8 -71 2 -20 14 -88 21 -67 29 -46 -5 -3 -6 -2 -10 -2 rrcurveto
          -6 -1 -4 -2 -2 vvcurveto
          -8 6 -4 14 8 8 2 4 7 vhcurveto
          -40 29 32 -20 36 hhcurveto
          37 37 19 39 39 hvcurveto
          4 3 2 2 callsubr
          -56 callsubr
          1 -10 -9 -17 -21 vhcurveto
          -17 -21 -20 -8 -18 hhcurveto
          -33 -31 28 56 -27 hvcurveto
          10 22 9 26 8 31 2 9 8 26 10 46 27 111 22 78 17 43 37 92 49 59 59 27 rrcurveto
          7 14 15 4 14 hhcurveto
          26 23 -10 -20 19 hvcurveto
          17 -17 12 -22 8 -27 rrcurveto
          -5 2 2 -3 2 hhcurveto
          2 1 1 3 hvcurveto
          -253 221 -67 callgsubr
          -98 callgsubr
          endchar
        </CharString>
        <CharString name="O">
          -96 callsubr
          -35 13 rmoveto
          -84 -39 -79 -78 -71 vhcurveto
          -76 -70 -80 -35 -87 -1 52 66 47 81 42 94 41 92 28 88 16 85 41 -9 33 -20 24 -29 rrcurveto
          24 -30 12 -36 -42 vvcurveto
          -146 169 -103 callgsubr
          endchar
        </CharString>
        <CharString name="OE">
          747 -54 42 284 29 179 12 48 -21 hstem
          34 31 915 19 vstem
          999 72 rmoveto
          15 -4 18 -8 19 vhcurveto
          23 -10 -11 12 -12 hhcurveto
          -5 -47 callsubr
          -3 6 -11 11 -17 hvcurveto
          10 -17 6 -16 -13 vvcurveto
          -78 -158 -41 -317 -5 vhcurveto
          45 47 38 93 30 139 rrcurveto
          28 33 66 14 97 hhcurveto
          8 12 0 -1 16 hvcurveto
          -1 16 12 0 8 17 callgsubr
          3 7 3 -2 3 -4 1 hvcurveto
          9 -28 -49 5 -71 hhcurveto
          -56 -40 -5 -11 -25 hvcurveto
          1 6 45 13 89 vhcurveto
          8 53 9 45 9 35 96 -5 83 -13 69 -21 rrcurveto
          -5 17 13 -2 11 hhcurveto
          21 11 5 10 9 -12 8 -25 7 hvcurveto
          -82 24 -92 12 -101 3 rrcurveto
          7 19 4 11 2 vvcurveto
          11 -5 5 -11 -13 -13 -16 -32 -14 vhcurveto
          -36 -1 -40 -3 -45 -8 rrcurveto
          -23 -4 -11 18 callgsubr
          -3 9 -2 18 -1 vhcurveto
          -2 26 39 -1 51 hhcurveto
          -10 -31 -11 -48 -11 -65 -13 40 -27 32 -39 24 rrcurveto
          23 -37 -40 11 -44 hhcurveto
          -122 -97 -39 -77 -74 hvcurveto
          -38 -40 -20 -45 -51 callsubr
          63 63 19 38 62 hvcurveto
          59 37 47 46 33 56 -19 -108 -23 -64 -25 -20 rrcurveto
          -23 -12 -2 -3 -7 5 -2 9 1 hvcurveto
          8 callgsubr
          3 hhcurveto
          27 42 -2 -3 55 hvcurveto
          -3 55 42 -2 27 hhcurveto
          85 64 9 18 45 hvcurveto
          63 25 32 40 55 vvcurveto
          -418 309 rmoveto
          -2 -4 -25 -7 -49 vhcurveto
          -7 -48 -4 -25 -1 -2 -8 -16 -6 -12 -5 -8 -45 -72 -67 -57 -87 -41 -86 callsubr
          55 42 42 58 30 rrcurveto
          28 53 59 14 63 hhcurveto
          37 35 -9 -17 33 hvcurveto
          36 -18 26 -24 16 -31 rrcurveto
          9 -17 4 -13 -9 vvcurveto
          endchar
        </CharString>
        <CharString name="Oacute">
          -102 callsubr
          65 425 -101 callsubr
          endchar
        </CharString>
        <CharString name="Ocircumflex">
          -96 callsubr
          -35 13 rmoveto
          -84 -39 -79 -78 -71 vhcurveto
          -76 -70 -80 -35 -87 -1 52 66 47 81 42 94 41 92 28 88 16 85 41 -9 33 -20 24 -29 rrcurveto
          24 -30 12 -36 -42 vvcurveto
          -146 169 -103 callgsubr
          178 167 -95 callgsubr
          endchar
        </CharString>
        <CharString name="Odieresis">
          -102 callsubr
          -128 447 rmoveto
          -103 callsubr
          134 hmoveto
          -103 callsubr
          endchar
        </CharString>
        <CharString name="Ograve">
          -102 callsubr
          10 324 -96 callgsubr
        </CharString>
        <CharString name="Omega">
          419 160 38 hstem
          43 35 rmoveto
          -13 -1 -7 -15 -10 vvcurveto
          -7 14 -2 20 vhcurveto
          51 65 -1 43 hhcurveto
          22 6 9 20 4 -3 4 -12 10 hvcurveto
          181 -132 179 354 194 hhcurveto
          218 -145 -467 -75 -157 hvcurveto
          -20 -10 2 -14 -1 -7 rrcurveto
          -7 20 -1 19 60 93 -2 3 56 vhcurveto
          7 33 37 -36 -39 -125 -2 -34 hhcurveto
          111 75 94 156 162 vvcurveto
          100 -44 76 -113 -180 -149 -188 -192 -75 23 -69 41 -43 vhcurveto
          -41 -2 -75 3 -45 -4 rrcurveto
          endchar
        </CharString>
        <CharString name="Oslash">
          375 -42 18 507 24 hstem
          26 23 537 29 vstem
          700 579 rmoveto
          3 -1 -5 1 -7 hhcurveto
          -20 -27 -13 -26 -33 hvcurveto
          -71 -63 rlineto
          17 -33 -39 9 -46 hhcurveto
          -59 -60 -14 -29 -62 hvcurveto
          -65 -30 -49 -38 -33 -45 rrcurveto
          -4 -5 -2 -5 -4 vvcurveto
          1 -2 rlineto
          1 hlineto
          3 4 2 4 5 hvcurveto
          61 50 56 35 52 19 rrcurveto
          -161 -139 -80 -124 -110 vvcurveto
          -46 14 -32 28 -18 vhcurveto
          -75 -101 -37 -69 -35 vvcurveto
          -4 2 -4 5 -5 vhcurveto
          -4 5 4 -29 callsubr
          1 16 callgsubr
          1 hvcurveto
          5 2 9 4 14 vhcurveto
          14 50 34 62 53 74 rrcurveto
          -6 15 18 -3 20 hhcurveto
          60 68 19 38 76 hvcurveto
          75 37 63 48 50 56 rrcurveto
          56 63 28 62 61 vvcurveto
          51 -17 41 -35 29 vhcurveto
          100 84 23 19 12 10 2 3 rlinecurve
          -114 -207 rmoveto
          -58 -26 -61 -53 -65 vhcurveto
          -48 -59 -60 -50 -72 -41 rrcurveto
          -41 -72 -64 -21 -57 hhcurveto
          -14 -12 2 4 -11 hvcurveto
          103 139 150 157 199 173 rrcurveto
          25 -19 12 -26 -34 vvcurveto
          -64 95 rmoveto
          -182 -166 -148 -159 -113 -151 rrcurveto
          -20 15 -10 25 35 vvcurveto
          64 35 74 72 84 vhcurveto
          68 79 66 51 65 24 7 3 4 2 2 3 rrcurveto
          9 -6 -14 5 -21 hhcurveto
          -7 -8 -1 -1 -8 hvcurveto
          14 41 43 7 43 hhcurveto
          35 31 -5 -11 25 hvcurveto
          endchar
        </CharString>
        <CharString name="Otilde">
          460 13 49 14 199 -60 callsubr
          hstemhm
          57 -59 callgsubr
          hintmask 1100001110000000
          -102 callgsubr
          -35 13 rmoveto
          -84 -39 -79 -78 -71 vhcurveto
          -76 -70 -80 -35 -87 -1 52 66 47 81 42 94 41 92 28 88 16 85 41 -9 33 -20 24 -29 rrcurveto
          24 -30 12 -36 -42 vvcurveto
          -146 169 -103 callgsubr
          hintmask 0011110000000000
          156 263 -67 callgsubr
          -98 callgsubr
          endchar
        </CharString>
        <CharString name="P">
          645 -143 11 353 18 375 16 hstem
          1 35 90 46 749 50 vstem
          971 427 rmoveto
          50 -26 44 -50 35 vhcurveto
          -39 27 -49 19 -57 13 rrcurveto
          9 -47 -49 6 -54 hhcurveto
          -45 hlineto
          1 25 -1 21 -3 20 rrcurveto
          3 -17 callsubr
          -4 -2 -3 -5 vhcurveto
          -64 vlineto
          -71 -3 -68 -10 -64 -18 -82 -23 -59 -32 -38 -39 rrcurveto
          -23 -23 -12 -26 -28 vvcurveto
          -38 19 -35 37 -30 vhcurveto
          33 -27 37 -17 41 -6 rrcurveto
          1 hlineto
          5 -1 3 2 2 vvcurveto
          2 -2 -4 callgsubr
          vhcurveto
          -18 4 -12 4 -8 3 -25 9 -20 14 -15 19 rrcurveto
          -18 21 -8 24 26 vvcurveto
          30 12 29 26 26 vhcurveto
          37 38 51 31 67 21 56 18 59 11 61 3 -4 -68 -15 -71 -24 -76 -29 -90 -38 -88 -49 -86 -63 -109 -63 -71 -62 -30 -12 -6 -15 -3 -18 -3 rrcurveto
          -6 -1 -2 -3 -3 -44 callgsubr
          -2 7 24 25 12 22 31 vhcurveto
          55 39 55 68 54 96 45 77 35 81 29 83 29 88 17 78 5 72 rrcurveto
          19 hlineto
          52 50 -6 -13 49 hvcurveto
          51 -15 44 -20 36 -31 rrcurveto
          44 -36 22 -43 -46 vvcurveto
          -77 -57 -55 -114 -33 vhcurveto
          -20 -71 -62 -9 -52 hhcurveto
          -16 hlineto
          43 91 32 90 19 91 rrcurveto
          5 21 2 14 5 vvcurveto
          10 -6 5 -12 -20 -14 -10 -20 -5 vhcurveto
          -6 -23 -3 -18 -3 -12 -7 -35 -9 -31 -9 -30 -34 -108 -56 -110 -77 -113 rrcurveto
          -106 -74 -77 -53 -78 hhcurveto
          -41 -32 15 30 -21 hvcurveto
          -20 26 -10 34 42 vvcurveto
          49 13 45 26 41 vhcurveto
          48 29 38 23 47 hhcurveto
          20 14 -5 -12 7 hvcurveto
          4 -5 3 -7 2 -7 rrcurveto
          7 callgsubr
          4 vvcurveto
          14 -6 12 -15 8 vhcurveto
          9 -13 -14 4 -15 hhcurveto
          -54 -42 -22 -44 -35 hvcurveto
          -31 -41 -16 -47 -55 vvcurveto
          -51 14 -42 30 -32 vhcurveto
          -32 29 39 -16 50 hhcurveto
          144 126 113 225 109 hvcurveto
          75 -2 72 9 67 20 56 17 48 24 38 31 rrcurveto
          48 38 25 45 50 vvcurveto
          endchar
        </CharString>
        <CharString name="Q">
          358 -230 37 4 9 71 70 499 13 49 14 hstem
          -35 15 77 -59 callgsubr
          vstem
          715 -145 rmoveto
          9 -3 12 -8 13 vhcurveto
          -7 12 -7 9 -8 4 rrcurveto
          17 -25 9 -22 -18 vvcurveto
          -28 -24 -14 -48 -64 -81 21 41 -99 vhcurveto
          -117 48 -79 29 -42 8 8 9 10 8 9 11 rrcurveto
          -2 13 13 -1 14 hhcurveto
          95 87 35 72 78 hvcurveto
          79 75 40 83 94 vvcurveto
          49 -15 42 -31 36 vhcurveto
          -32 35 -39 22 -49 9 rrcurveto
          7 40 3 36 33 vvcurveto
          19 -1 16 -2 15 vhcurveto
          -13 callgsubr
          -47 callsubr
          -59 -4 -51 -6 -44 vhcurveto
          2 -13 -13 1 -13 hhcurveto
          -115 -92 -37 -72 -70 hvcurveto
          -38 -40 -20 -43 -47 vvcurveto
          -26 7 -26 13 -24 vhcurveto
          -7 -26 -4 -27 -27 vvcurveto
          -85 37 -52 74 -19 vhcurveto
          -9 -11 -10 -8 -9 -9 rrcurveto
          3 -20 -18 1 -18 hhcurveto
          -30 -26 -6 -11 -21 hvcurveto
          -28 -14 -14 -20 -27 vvcurveto
          -20 10 -17 22 -15 vhcurveto
          -13 19 20 -7 21 hhcurveto
          7 2 1 2 5 -2 1 -6 -19 -18 8 15 -16 hvcurveto
          -16 14 -9 18 18 vvcurveto
          21 12 17 26 11 vhcurveto
          10 20 22 4 25 hhcurveto
          16 16 -2 -2 16 hvcurveto
          -30 -26 -32 -15 -33 -6 rrcurveto
          -6 -1 -3 18 callgsubr
          -4 3 -3 7 31 37 19 39 41 vhcurveto
          39 -10 49 -21 58 -31 91 -49 49 -26 7 -3 rrcurveto
          -26 55 48 -13 41 hhcurveto
          29 27 7 14 27 hvcurveto
          31 16 16 22 26 vvcurveto
          -150 496 rmoveto
          -84 -39 -79 -78 -71 vhcurveto
          -76 -70 -80 -35 -87 -1 52 66 47 81 42 94 41 92 28 88 16 85 41 -9 33 -20 24 -29 rrcurveto
          24 -30 12 -36 -42 vvcurveto
          -146 169 -103 callgsubr
          endchar
        </CharString>
        <CharString name="R">
          -106 callgsubr
          -456 -97 -89 callsubr
        </CharString>
        <CharString name="Racute">
          -106 callgsubr
          -133 371 -101 callsubr
          -323 -468 -89 callsubr
        </CharString>
        <CharString name="Rcaron">
          -106 callgsubr
          -303 378 -90 callgsubr
          -153 -475 -89 callsubr
        </CharString>
        <CharString name="Rcommaaccent">
          -106 callgsubr
          -405 -578 -93 callgsubr
          -51 481 -89 callsubr
        </CharString>
        <CharString name="S">
          375 -93 35 325 10 193 11 117 13 hstem
          28 25 191 13 38 43 150 18 52 40 58 24 vstem
          680 530 rmoveto
          11 -4 11 -8 10 vhcurveto
          33 -26 -48 16 -71 hhcurveto
          -79 -63 -23 -45 -47 hvcurveto
          -2 hlineto
          -25 -21 -11 -18 -17 hvcurveto
          -16 -18 -9 -21 -26 vvcurveto
          -47 20 -43 44 -32 vhcurveto
          38 -29 41 -24 38 -29 rrcurveto
          43 -32 20 -42 -47 vvcurveto
          -35 -15 -35 -30 -34 vhcurveto
          -28 -31 -32 -22 -35 -14 -13 -4 -18 -4 -22 -3 rrcurveto
          -4 -3 -2 -4 -2 2 -1 3 47 48 19 40 46 hvcurveto
          49 42 23 44 46 vvcurveto
          48 -22 42 -42 35 vhcurveto
          -40 27 -41 26 -39 30 rrcurveto
          -44 33 -21 41 44 vvcurveto
          21 7 19 13 18 vhcurveto
          14 17 17 10 20 2 rrcurveto
          -22 -24 -11 -27 -29 vvcurveto
          -42 22 -39 46 -31 vhcurveto
          42 -29 43 -23 41 -30 rrcurveto
          47 -33 22 -45 -48 vvcurveto
          -85 -50 -62 -100 -40 vhcurveto
          -24 -58 -55 -12 -48 hhcurveto
          -54 -46 16 29 -36 hvcurveto
          -39 31 -19 43 52 vvcurveto
          57 21 44 42 33 vhcurveto
          39 32 48 17 56 -1 rrcurveto
          20 10 -1 3 6 -15 2 -32 -58 -49 -19 -36 -42 hvcurveto
          -44 -38 -21 -47 -57 vvcurveto
          -59 26 -45 54 -31 vhcurveto
          -26 44 53 -12 64 hhcurveto
          80 72 19 37 63 hvcurveto
          76 45 38 58 75 vvcurveto
          54 -22 46 -45 37 vhcurveto
          -42 27 -43 26 -40 27 rrcurveto
          -46 31 -22 36 40 vvcurveto
          18 5 18 9 16 vhcurveto
          54 31 57 27 83 hhcurveto
          29 27 -4 -9 25 hvcurveto
          35 -12 17 -18 -24 vvcurveto
          -18 -11 -12 -22 -10 vhcurveto
          -7 -16 -19 -3 -22 hhcurveto
          -66 -52 12 24 -37 hvcurveto
          -1 1 -2 0 0 vvcurveto
          -2 -4 callsubr
          -1 -69 callsubr
          -1 hvcurveto
          17 -12 25 -12 35 -7 rrcurveto
          -8 32 27 -3 26 hhcurveto
          27 22 4 8 20 hvcurveto
          28 10 14 16 22 vvcurveto
          endchar
        </CharString>
        <CharString name="Scaron">
          408 -98 37 342 11 203 11 124 13 hstem
          29 27 201 14 40 45 158 19 54 43 61 25 vstem
          716 558 rmoveto
          11 -4 12 -9 11 vhcurveto
          34 -27 -51 17 -74 hhcurveto
          -84 -66 -24 -47 -49 hvcurveto
          -2 hlineto
          -27 -22 -12 -19 -18 hvcurveto
          -17 -19 -9 -22 -27 vvcurveto
          -50 21 -45 46 -34 vhcurveto
          40 -30 43 -26 40 -30 rrcurveto
          46 -34 21 -44 -49 vvcurveto
          -37 -16 -37 -32 -36 vhcurveto
          -29 -33 -34 -23 -37 -14 -13 -5 -19 -4 -23 -3 rrcurveto
          -5 -3 -2 -4 -2 2 -1 3 50 50 20 42 49 hvcurveto
          51 44 25 46 49 vvcurveto
          50 -23 44 -45 37 vhcurveto
          -42 29 -43 27 -41 31 rrcurveto
          -46 35 -22 43 47 vvcurveto
          22 7 20 14 19 vhcurveto
          14 18 18 10 21 2 rrcurveto
          -23 -25 -11 -28 -31 vvcurveto
          -44 23 -41 48 -33 vhcurveto
          44 -30 46 -25 43 -31 rrcurveto
          49 -35 23 -47 -51 vvcurveto
          -89 -52 -66 -105 -42 vhcurveto
          -25 -62 -57 -12 -51 hhcurveto
          -57 -48 16 31 -38 hvcurveto
          -41 33 -20 45 55 vvcurveto
          59 22 47 44 35 vhcurveto
          41 33 51 18 59 -1 rrcurveto
          21 10 -1 3 6 -16 3 -33 -61 -52 -20 -38 -44 hvcurveto
          -46 -40 -23 -50 -60 vvcurveto
          -62 28 -47 57 -33 vhcurveto
          -27 46 56 -13 67 hhcurveto
          84 76 20 39 67 hvcurveto
          80 47 40 62 78 vvcurveto
          57 -24 49 -47 39 vhcurveto
          -44 28 -45 27 -43 29 rrcurveto
          -48 32 -23 38 42 vvcurveto
          19 5 19 10 17 vhcurveto
          57 32 60 29 88 hhcurveto
          30 28 -5 -9 27 hvcurveto
          37 -13 18 -19 -25 vvcurveto
          -19 -12 -13 -23 -10 vhcurveto
          -7 -17 -20 -4 -23 hhcurveto
          -70 -54 13 25 -39 hvcurveto
          1 -1 -2 0 -1 hhcurveto
          -2 -4 callsubr
          -1 -69 callsubr
          -1 hvcurveto
          18 -13 27 -12 37 -8 rrcurveto
          -8 33 29 -3 27 hhcurveto
          28 24 4 8 21 hvcurveto
          29 11 15 17 23 vvcurveto
          -100 236 rmoveto
          -4 6 -11 -1 -22 -10 -31 -19 rlinecurve
          -10 callgsubr
          -58 -33 24 -7 1 callsubr
          -3 -6 -5 17 -11 callsubr
          8 -1 5 2 rcurveline
          23 25 36 31 49 37 rrcurveto
          endchar
        </CharString>
        <CharString name="T">
          284 -103 18 55 12 451 29 76 -20 104 17 hstem
          39 32 777 -81 callgsubr
          -73 14 rlineto
          5 27 3 22 16 vvcurveto
          12 -1 7 -2 1 vhcurveto
          -3 -47 callsubr
          -1 -6 -3 -27 -3 -23 -4 -20 rrcurveto
          21 -109 -81 11 -56 hhcurveto
          -48 -39 -8 -14 -30 hvcurveto
          -41 -20 -20 -31 -42 vvcurveto
          -59 37 -51 75 -43 -8 callgsubr
          1 hhcurveto
          3 1 -55 callgsubr
          -1 2 -3 1 hvcurveto
          -56 39 -29 45 49 vvcurveto
          74 53 37 108 52 76 -11 -21 98 vhcurveto
          -23 -93 -33 -96 -44 -99 rrcurveto
          -145 -64 -57 -72 -52 hhcurveto
          -2 -3 0 2 -3 hvcurveto
          -3 -3 1 -2 hhcurveto
          -3 -2 -2 -3 -7 7 -3 14 45 46 45 91 52 hvcurveto
          30 55 30 65 26 73 24 65 18 62 13 58 67 -14 -83 callgsubr
          78 74 46 92 69 hvcurveto
          37 49 46 80 54 111 49 103 31 62 10 20 rrcurveto
          0 callsubr
        </CharString>
        <CharString name="Thorn">
          180 -281 12 469 22 hstem
          -57 59 387 44 vstem
          433 313 rmoveto
          63 -53 89 -106 115 vhcurveto
          33 70 25 47 15 24 7 11 6 7 7 4 7 4 5 6 5 8 rrcurveto
          -24 callsubr
          2 2 vvcurveto
          6 -6 3 -13 -19 -13 -6 -12 -8 vhcurveto
          -19 -35 -98 -192 -95 -213 -93 -233 rlinecurve
          -16 -39 -17 -39 -15 -39 rrcurveto
          -21 -54 -9 -41 -25 vvcurveto
          -3 vlineto
          -33 11 -29 25 -25 vhcurveto
          -25 25 29 -13 33 hhcurveto
          14 16 5 9 19 hvcurveto
          18 9 12 11 7 11 rrcurveto
          -22 -36 -31 -11 -25 hhcurveto
          -39 -19 30 59 65 18 82 36 101 hvcurveto
          17 46 33 80 49 113 52 119 35 84 19 48 rrcurveto
          85 -95 43 -82 -69 vvcurveto
          -28 -12 -22 -25 -17 vhcurveto
          -15 -22 -26 -8 -30 hhcurveto
          -41 -41 15 30 -42 hvcurveto
          2 -3 -1 1 -1 hhcurveto
          -2 -1 -1 -3 -9 5 -9 10 -8 hvcurveto
          -27 33 40 -13 49 hhcurveto
          37 34 9 19 30 hvcurveto
          35 22 18 28 35 vvcurveto
          endchar
        </CharString>
        <CharString name="U">
          -106 callsubr
          endchar
        </CharString>
        <CharString name="Uacute">
          -106 callsubr
          -155 638 -101 callsubr
          endchar
        </CharString>
        <CharString name="Ucircumflex">
          -106 callsubr
          -127 551 -95 callgsubr
          endchar
        </CharString>
        <CharString name="Udieresis">
          -106 callsubr
          -275 628 rmoveto
          -103 callsubr
          134 hmoveto
          -103 callsubr
          endchar
        </CharString>
        <CharString name="Ugrave">
          -106 callsubr
          -187 530 -96 callgsubr
        </CharString>
        <CharString name="V">
          181 22 358 14 1 40 hstem
          -21 28 325 12 54 59 vstem
          457 336 -90 callsubr
          -197 -45 -189 -90 -182 vhcurveto
          -3 vlineto
          -82 callgsubr
          568 191 rmoveto
          26 -7 21 -13 17 vhcurveto
          16 13 callsubr
          -84 -39 -87 -78 -87 -118 -35 -48 -65 -101 -92 -154 -61 -100 -43 -61 -28 -22 -12 -8 -9 -5 -4 -1 rrcurveto
          -13 callsubr
          -4 -5 vvcurveto
          -2 1 0 2 25 51 58 120 77 vhcurveto
          41 64 39 64 41 64 53 83 51 65 43 50 59 66 58 45 55 25 rrcurveto
          9 20 20 6 20 hhcurveto
          47 22 -22 -45 -6 -1 -9 -3 -11 hvcurveto
          -3 -12 18 callsubr
          15 callsubr
          -1 vhcurveto
          5 1 3 11 4 20 rrcurveto
          3 17 2 14 8 vvcurveto
          endchar
        </CharString>
        <CharString name="W">
          632 181 22 358 14 115 41 hstem
          -21 28 325 12 54 59 131 55 75 25 vstem
          1312 641 rmoveto
          26 -7 21 -13 17 vhcurveto
          17 13 callsubr
          -64 -30 -64 -54 -63 -80 -46 -60 -52 -80 -54 -101 -40 -76 -39 -77 -41 -77 -43 -80 -34 -49 -25 -18 rrcurveto
          30 48 14 58 67 vvcurveto
          13 -1 13 -2 12 vhcurveto
          -10 70 -6 47 -3 28 rrcurveto
          65 112 32 82 53 vvcurveto
          37 -14 18 -30 -8 -8 -3 -6 -9 vhcurveto
          -33 -19 -24 -41 -14 -64 rrcurveto
          -10 -45 -5 -49 -55 vvcurveto
          -27 1 -29 3 -27 vhcurveto
          -37 -65 -40 -61 -43 -59 -57 -79 -48 -54 -41 -27 -13 -9 -10 -4 -7 -3 rrcurveto
          -20 callsubr
          -4 -5 vvcurveto
          -2 1 0 2 23 53 51 103 81 vhcurveto
          60 75 48 66 35 56 1 -12 5 -36 11 -60 rrcurveto
          7 -44 4 -36 -29 -22 callgsubr
          28 49 64 128 71 vhcurveto
          52 93 50 94 53 93 68 115 66 80 60 49 22 17 24 15 26 12 rrcurveto
          9 19 20 5 21 hhcurveto
          47 22 -22 -45 -6 -2 -9 -2 -11 hvcurveto
          -3 -11 -2 -8 -5 vvcurveto
          -1 0 0 -33 callsubr
          1 3 10 4 21 rrcurveto
          3 16 2 14 8 vvcurveto
          -855 -305 -90 callsubr
          -60 -11 -76 -24 -92 vhcurveto
          -14 -55 -22 -73 -29 -91 rrcurveto
          -24 -74 -11 -40 -10 vvcurveto
          -82 callgsubr
          261 210 rmoveto
          -46 -25 -74 -50 -100 vhcurveto
          -3 35 -2 31 30 vvcurveto
          111 20 55 39 15 6 -14 -28 vhcurveto
          endchar
        </CharString>
        <CharString name="X">
          379 -115 19 43 18 22 28 280 13 356 13 hstem
          10 53 193 14 55 40 vstem
          935 668 rmoveto
          6 -8 3 -14 -76 -182 -138 -278 -287 vhcurveto
          -2 30 -1 28 28 vvcurveto
          90 10 81 21 71 vhcurveto
          95 11 41 5 rlineto
          18 3 9 3 4 vvcurveto
          1 -2 1 -5 -9 -50 -6 -11 -94 vhcurveto
          4 13 2 5 0 vvcurveto
          1 -1 0 -1 -7 -12 -7 -15 -19 vhcurveto
          -64 -9 14 58 12 44 8 28 rlinecurve
          2 vlineto
          3 -1 1 -4 callsubr
          -2 -6 -2 vhcurveto
          -14 -33 -13 -44 -12 -53 rrcurveto
          -185 -28 -94 -63 -97 vvcurveto
          -68 59 -35 119 24 11 3 6 -32 callsubr
          -3 vhcurveto
          -13 hlineto
          -1 -7 -4 0 -3 hhcurveto
          -87 -42 29 60 92 74 60 149 27 hvcurveto
          -20 -90 -10 -91 -93 vvcurveto
          -49 3 -47 6 -44 vhcurveto
          -95 -92 -85 -80 -63 -53 -41 -22 rlinecurve
          -20 -9 -14 -7 -10 -3 rrcurveto
          -3 -4 callsubr
          -3 vvcurveto
          -3 0 -1 3 54 111 86 170 168 vhcurveto
          -130 21 38 -64 55 hhcurveto
          8 11 3 4 12 hvcurveto
          12 5 5 7 7 vvcurveto
          -56 callsubr
          -1 -4 -2 -3 -10 vhcurveto
          -4 -8 -9 -2 -7 hhcurveto
          -54 -36 63 125 -20 hvcurveto
          45 45 rlineto
          -141 19 48 -70 77 hhcurveto
          37 34 18 35 29 hvcurveto
          24 28 17 36 11 40 rrcurveto
          7 26 4 17 8 vvcurveto
          -13 callgsubr
          -3 -2 -4 -1 vhcurveto
          -4 -24 -4 -18 -3 -11 -10 -35 -14 -27 -19 -22 rrcurveto
          -28 -23 -27 -13 -30 hhcurveto
          -65 -39 76 151 -13 hvcurveto
          281 280 181 141 83 hhcurveto
          14 7 1 3 hvcurveto
          -584 -84 rmoveto
          -10 -11 -9 -42 -7 -72 rrcurveto
          -6 -55 -3 -46 -35 vvcurveto
          -38 2 -35 4 -33 vhcurveto
          -45 -44 rlineto
          -4 39 -3 43 45 vvcurveto
          90 9 93 20 94 vhcurveto
          endchar
        </CharString>
        <CharString name="Y">
          -99 callsubr
          endchar
        </CharString>
        <CharString name="Yacute">
          448 -455 42 -19 40 345 20 -18 19 599 24 6 25 hstemhm
          -15 23 -22 22 106 135 -64 52 hintmask 1010111010000000
          736 477 rmoveto
          5 -6 2 -15 -20 -18 -4 -8 -16 vhcurveto
          -27 -13 -23 -32 -15 -54 -4 -12 -2 -9 -1 -5 -16 -27 -13 -21 -10 -15 -41 -63 -42 -59 -44 -55 rrcurveto
          hintmask 1001110101000000
          -88 -72 -52 -45 -31 hhcurveto
          -21 -10 21 41 100 48 139 96 180 hvcurveto
          11 22 11 19 10 18 14 22 rcurveline
          3 vlineto
          12 -26 13 -52 15 vhcurveto
          11 14 16 16 21 20 2 1 -64 callsubr
          rrcurveto
          2 -1 0 -3 -8 -19 -18 -37 -30 vhcurveto
          11 -41 -41 5 -40 hhcurveto
          -92 -69 -24 -49 -48 hvcurveto
          -16 -16 -7 -15 -15 vvcurveto
          -32 26 -27 54 -24 vhcurveto
          -6 13 9 -29 callsubr
          -24 callsubr
          1 1 -8 5 -15 7 hvcurveto
          -19 8 -14 9 -9 8 rrcurveto
          -15 12 -7 14 16 vvcurveto
          13 6 12 13 12 vhcurveto
          45 47 59 23 71 hhcurveto
          37 38 -7 -13 39 hvcurveto
          -55 -74 -48 -92 -41 -110 rrcurveto
          -44 -116 -22 -101 -86 vvcurveto
          -20 1 -9 3 -52 callsubr
          6 87 22 103 43 121 vhcurveto
          42 115 49 95 54 75 40 -16 rcurveline
          -42 -72 -39 -80 -35 -88 rrcurveto
          -44 -110 -22 -82 -58 vvcurveto
          hintmask 1001111010000000
          -59 21 -30 43 47 63 49 97 77 vhcurveto
          48 60 48 70 47 80 -8 -32 rcurveline
          -26 -95 -11 -72 -10 -48 -21 -108 -24 -80 -24 -54 -38 -82 -54 -62 -71 -40 rrcurveto
          hintmask 0110111010000000
          -20 -36 -39 -10 -43 hhcurveto
          -68 -50 25 51 -33 hvcurveto
          -7 9 -7 14 -6 18 rrcurveto
          5 -3 -2 3 -2 hhcurveto
          -13 callsubr
          -3 -2 0 -45 callsubr
          hvcurveto
          16 -47 26 -36 33 -28 rrcurveto
          -29 37 42 -15 47 hhcurveto
          35 32 8 17 31 hvcurveto
          66 37 57 60 46 83 36 65 31 82 28 102 59 247 rcurveline
          25 107 31 65 36 23 rrcurveto
          3 10 7 3 5 9 callsubr
          2 2 3 vvcurveto
          -19 229 rmoveto
          7 -3 5 -7 5 vhcurveto
          5 -7 -6 2 -7 -34 callgsubr
          -10 -3 hvcurveto
          -6 -17 -12 -17 -19 -17 -3 -3 -16 -13 -31 -23 rrcurveto
          -10 -7 -5 -7 -5 -59 callsubr
          2 -1 vhcurveto
          5 18 9 19 30 hvcurveto
          56 36 9 6 10 4 9 6 rlinecurve
          13 8 6 7 7 vvcurveto
          endchar
        </CharString>
        <CharString name="Ydieresis">
          -99 callsubr
          -160 163 rmoveto
          1 vlineto
          -3 callgsubr
          -8 -10 -5 -10 -15 hvcurveto
          -14 -10 -6 -8 -7 vvcurveto
          -4 1 -4 -66 callsubr
          -2 4 hhcurveto
          6 7 6 12 5 hvcurveto
          4 10 3 9 5 10 rrcurveto
          94 11 rmoveto
          -12 callsubr
          -7 -11 -5 -10 -14 hvcurveto
          -13 -10 -7 -8 -7 vvcurveto
          -4 2 -4 -66 callsubr
          -2 2 hhcurveto
          7 7 6 12 5 hvcurveto
          12 29 rlineto
          endchar
        </CharString>
        <CharString name="Z">
          519 -115 40 4 21 27 114 481 12 4 40 hstem
          -9 17 250 14 534 9 122 36 vstem
          973 570 rmoveto
          9 -12 5 -23 -29 -32 -8 -17 -35 vhcurveto
          -23 2 -27 4 -31 7 31 19 32 17 30 12 21 9 17 6 11 3 11 callgsubr
          -10 -28 -12 -22 -44 vhcurveto
          -35 -17 -26 -15 -19 -12 -53 12 -51 12 -52 11 rrcurveto
          13 -62 -52 6 -45 hhcurveto
          -22 -20 -2 -3 -18 hvcurveto
          -28 -5 -26 -11 -23 -19 rrcurveto
          -25 -21 -14 -24 -25 vvcurveto
          -19 8 -19 14 -19 vhcurveto
          3 -1 rlineto
          5 -41 callsubr
          4 vvcurveto
          -1 -3 6 -7 11 vhcurveto
          -5 10 -3 10 8 vvcurveto
          27 21 21 40 14 vhcurveto
          10 30 31 5 33 hhcurveto
          38 48 -5 -8 59 hvcurveto
          144 -22 -88 -60 -101 -90 -114 -121 rlinecurve
          -94 -4 -47 -18 -31 vvcurveto
          -9 3 -6 5 -7 vhcurveto
          -9 8 6 -5 7 hhcurveto
          1 1 rlineto
          0 -2 2 -1 3 vhcurveto
          -2 3 -1 2 callsubr
          18 29 13 58 11 vhcurveto
          -97 -104 -54 -58 -11 -11 rrcurveto
          8 -37 -33 5 -30 hhcurveto
          -32 -28 -6 -12 -24 hvcurveto
          -30 -15 -16 -22 -29 vvcurveto
          -22 12 -18 24 -16 vhcurveto
          -15 20 22 -7 22 hhcurveto
          42 38 10 22 34 hvcurveto
          26 16 30 27 34 37 62 -32 62 -32 62 -31 rrcurveto
          -41 80 64 -20 47 hhcurveto
          31 29 8 15 30 hvcurveto
          35 18 18 23 27 vvcurveto
          11 -4 12 -8 14 vhcurveto
          -9 15 -8 8 -9 4 rrcurveto
          19 -28 10 -23 -19 vvcurveto
          -30 -27 -15 -53 -56 -72 14 32 -85 vhcurveto
          -70 27 -69 28 -69 26 93 94 69 71 46 47 rrcurveto
          1 29 29 1 28 hhcurveto
          10 14 -1 -1 19 hvcurveto
          -1 19 14 -2 callgsubr
          -37 7 -50 5 -65 2 123 123 102 87 79 51 rrcurveto
          91 -1 46 9 19 vvcurveto
          -691 -525 rmoveto
          -16 -22 -28 -22 -39 -21 rrcurveto
          -20 -39 -34 -10 -27 hhcurveto
          -22 -20 5 12 -18 hvcurveto
          -21 13 -10 17 21 vvcurveto
          23 14 18 27 12 vhcurveto
          10 22 24 4 27 hhcurveto
          21 31 -4 -11 39 hvcurveto
          -57 -58 -46 -28 -31 hhcurveto
          -5 hlineto
          -5 4 7 -3 10 hhcurveto
          29 46 30 59 60 hvcurveto
          25 -7 18 -8 10 -6 rrcurveto
          532 499 rmoveto
          -103 -57 -109 -87 -111 -117 -18 1 -18 0 -18 -1 120 126 98 90 76 52 29 -3 28 -3 26 -1 rrcurveto
          -345 -283 rmoveto
          -80 -90 -58 -67 -39 -47 -20 7 -18 5 -17 5 77 80 58 60 38 41 rrcurveto
          527 313 rmoveto
          -8 -16 -3 -29 vhcurveto
          -10 hlineto
          -4 -6 0 1 -8 hvcurveto
          9 23 20 5 16 hhcurveto
          9 5 -1 -3 hvcurveto
          endchar
        </CharString>
        <CharString name="Zcaron">
          560 -121 42 4 22 29 120 477 31 15 42 hstem
          -9 17 264 14 562 10 128 38 vstem
          1024 600 rmoveto
          10 -12 5 -25 -30 -34 -9 -18 -37 vhcurveto
          -24 3 -28 4 -33 7 33 20 33 18 32 13 22 9 18 6 12 4 11 callgsubr
          -11 -29 -12 -23 -46 vhcurveto
          -37 -18 -28 -16 -20 -13 -55 13 -54 12 -55 12 rrcurveto
          14 -65 -55 6 -47 hhcurveto
          -23 -21 -2 -3 -19 hvcurveto
          -30 -5 -27 -12 -24 -20 rrcurveto
          -27 -22 -14 -25 -27 vvcurveto
          -20 8 -20 15 -20 vhcurveto
          3 -1 rlineto
          5 -41 callsubr
          5 vvcurveto
          -1 -3 6 -7 11 vhcurveto
          -6 11 -3 10 9 vvcurveto
          28 22 22 43 15 vhcurveto
          11 31 33 5 35 hhcurveto
          39 51 -5 -9 62 hvcurveto
          51 -7 50 -8 51 -8 -93 -63 -106 -95 -120 -127 rrcurveto
          -99 -4 -50 -19 -33 vvcurveto
          -9 3 -7 6 -7 vhcurveto
          -10 8 7 -5 7 hhcurveto
          1 1 16 callgsubr
          vvcurveto
          -1 -17 callsubr
          4 vhcurveto
          -2 3 -1 2 callsubr
          19 30 14 61 11 vhcurveto
          -170 -182 rlineto
          9 -39 -35 5 -32 hhcurveto
          -33 -30 -6 -13 -25 hvcurveto
          -32 -16 -16 -23 -31 vvcurveto
          -23 12 -19 25 -17 vhcurveto
          -15 22 23 -8 23 hhcurveto
          44 40 11 23 36 hvcurveto
          27 17 32 28 36 39 195 -100 rcurveline
          -43 85 67 -21 49 hhcurveto
          33 31 8 16 31 hvcurveto
          37 19 19 24 29 vvcurveto
          11 -4 13 -9 15 vhcurveto
          -9 15 -9 9 -9 4 rrcurveto
          20 -29 10 -25 -20 vvcurveto
          -31 -28 -16 -56 -59 -75 15 34 -90 vhcurveto
          -74 28 -72 29 -73 28 98 99 73 74 48 50 rrcurveto
          1 31 30 1 30 hhcurveto
          10 15 -1 -1 20 hvcurveto
          -1 20 15 -2 callgsubr
          -39 8 -53 5 -68 2 130 129 107 92 83 54 rrcurveto
          96 -1 48 9 20 vvcurveto
          -727 -553 rmoveto
          -17 -23 -29 -23 -42 -22 rrcurveto
          -21 -41 -35 -11 -29 hhcurveto
          -23 -21 6 12 -19 hvcurveto
          -22 14 -11 18 22 vvcurveto
          24 15 19 29 13 vhcurveto
          10 23 25 5 28 hhcurveto
          23 32 -5 -11 41 hvcurveto
          -60 -61 -48 -30 -33 hhcurveto
          -5 hlineto
          -5 4 7 -3 11 hhcurveto
          31 48 31 62 63 hvcurveto
          26 -7 19 -8 11 -7 rrcurveto
          560 526 rmoveto
          -109 -60 -114 -92 -117 -123 -19 1 -19 0 -19 -1 126 133 103 94 80 55 31 -3 30 -3 27 -1 rrcurveto
          -363 -298 rmoveto
          -84 -95 -62 -71 -41 -49 -21 7 -19 6 -18 5 82 84 61 63 40 43 19 3 21 2 22 2 rrcurveto
          198 508 -90 callgsubr
          294 -185 rmoveto
          -8 -16 -4 -31 vhcurveto
          -11 hlineto
          -4 -6 0 1 -8 hvcurveto
          10 24 21 5 17 hhcurveto
          9 5 -1 -3 hvcurveto
          endchar
        </CharString>
        <CharString name="a">
          -67 callsubr
          hstem
          -13 23 138 40 55 30 -105 callgsubr
          endchar
        </CharString>
        <CharString name="aacute">
          -67 callsubr
          hstem
          -13 23 138 40 55 30 -105 callgsubr
          111 154 rmoveto
          8 -71 callsubr
          2 -2 3 7 23 12 24 -44 callsubr
        </CharString>
        <CharString name="acircumflex">
          -67 callsubr
          hstem
          -13 23 138 40 55 30 -105 callgsubr
          98 60 rmoveto
          -5 7 -45 -71 callgsubr
          -25 -16 -17 -3 -7 6 -8 rcurveline
          11 3 30 22 51 42 9 -11 19 -14 29 21 callsubr
        </CharString>
        <CharString name="acute">
          -107 406 -21 126 -20 hstem
          221 487 -101 callsubr
          endchar
        </CharString>
        <CharString name="adieresis">
          -67 callsubr
          hstem
          -13 23 138 40 55 30 -105 callgsubr
          83 139 -79 callsubr
          6 6 13 6 hvcurveto
          13 30 rlineto
          -78 12 rmoveto
          -81 callsubr
          6 13 6 hvcurveto
          12 30 rlineto
          endchar
        </CharString>
        <CharString name="ae">
          168 1 31 300 -20 hstem
          -3 23 142 39 166 31 vstem
          443 134 rmoveto
          7 callsubr
          -3 -6 -4 -10 -6 vhcurveto
          -10 -16 -7 -12 -6 -7 -18 -22 -21 -18 -25 -16 rrcurveto
          -19 -29 -27 -10 -23 hhcurveto
          -40 -20 28 55 16 3 15 5 15 hvcurveto
          38 3 40 16 42 30 rrcurveto
          46 33 23 35 35 vvcurveto
          15 -5 12 -11 9 vhcurveto
          9 -10 -13 4 -15 hhcurveto
          -23 -22 -7 -15 -22 hvcurveto
          9 -7 -11 4 -15 hhcurveto
          -21 -23 -7 -13 -28 hvcurveto
          -43 -20 -40 -35 -36 -49 rrcurveto
          -37 -51 -19 -49 -45 vvcurveto
          -35 14 -18 27 45 42 46 92 42 vhcurveto
          -3 -15 -2 -22 -29 vvcurveto
          -61 24 -31 48 34 38 15 30 42 vhcurveto
          38 27 28 30 21 33 rrcurveto
          5 9 3 6 3 vvcurveto
          -190 148 rmoveto
          -5 -1 -5 -2 -5 vhcurveto
          -8 -7 rlineto
          7 2 callgsubr
          -4 hhcurveto
          -8 -11 -10 -21 -15 hvcurveto
          -11 -16 -9 -14 -5 -11 -30 -18 rcurveline
          -9 -3 -5 -4 -3 -63 callgsubr
          3 7 8 2 3 11 vhcurveto
          -93 -39 -41 -47 -42 -29 callgsubr
          8 15 35 27 51 54 66 hvcurveto
          65 53 44 33 34 hhcurveto
          14 7 -8 -15 hvcurveto
          114 3 rmoveto
          -31 -17 -32 -35 -31 vhcurveto
          -31 -35 -33 -15 -32 hhcurveto
          -1 1 -1 0 1 vvcurveto
          10 27 16 28 23 29 22 29 23 20 24 13 rrcurveto
          9 5 5 10 callgsubr
          -6 callgsubr
          -15 -17 -5 -11 -19 vhcurveto
          -2 12 rlineto
          15 23 19 7 14 hhcurveto
          9 8 -4 -8 5 hvcurveto
          5 -8 3 -9 -10 vvcurveto
          endchar
        </CharString>
        <CharString name="agrave">
          -67 callsubr
          hstem
          -13 23 138 40 55 30 -105 callgsubr
          33 68 rmoveto
          7 -53 callsubr
          -6 21 -16 42 -9 callgsubr
          7 hhcurveto
          3 -61 callgsubr
        </CharString>
        <CharString name="ampersand">
          455 -242 14 228 21 197 -20 153 36 233 27 hstem
          52 30 533 19 50 38 vstem
          722 325 rmoveto
          41 -28 21 -55 -54 -56 -19 -39 -57 vhcurveto
          18 84 14 56 11 27 35 21 25 16 15 12 rrcurveto
          29 25 15 24 23 vvcurveto
          20 -9 10 -17 -15 -18 -11 -20 -20 vhcurveto
          -13 -13 -13 -19 -12 -26 -6 -13 -9 -22 -11 -31 -65 -34 -65 -34 -65 -35 -73 -39 -60 -42 -49 -45 rrcurveto
          -21 23 -11 26 31 vvcurveto
          49 26 42 52 35 vhcurveto
          31 46 49 16 52 hhcurveto
          7 11 -2 -3 14 hvcurveto
          -3 13 10 -1 7 hhcurveto
          1 1 -55 callgsubr
          hvcurveto
          4 -10 4 -21 3 vhcurveto
          2 -16 -13 1 -9 hhcurveto
          -57 -54 -17 -33 -52 hvcurveto
          -59 -37 -29 -46 -53 vvcurveto
          -36 14 -31 28 -26 vhcurveto
          -53 -53 -26 -46 -40 vvcurveto
          -39 24 -29 49 -18 vhcurveto
          -13 35 41 -7 47 hhcurveto
          47 49 6 13 51 hvcurveto
          -165 -61 -69 -82 -76 hhcurveto
          -39 -23 17 34 -5 hvcurveto
          3 -1 -1 1 -2 hhcurveto
          -3 -1 -1 -3 -21 10 -17 19 -12 hvcurveto
          -10 16 19 -5 23 hhcurveto
          105 82 93 185 57 hvcurveto
          98 31 81 51 64 73 rrcurveto
          47 54 24 45 35 vvcurveto
          -107 284 rmoveto
          -11 -13 -19 -26 -25 vhcurveto
          -21 -21 -19 -15 -15 -9 21 47 18 31 17 15 rrcurveto
          12 13 10 6 7 hhcurveto
          5 3 -4 -7 hvcurveto
          69 -313 rmoveto
          -29 -21 -39 -41 -47 vhcurveto
          -52 -59 -70 -44 -89 -27 28 117 19 89 11 60 rrcurveto
          23 44 44 11 44 hhcurveto
          55 28 -18 -37 hvcurveto
          -197 184 rmoveto
          -14 -43 -16 -57 -17 -71 -48 -30 -34 -21 -21 -10 rrcurveto
          -20 -42 -38 -10 -35 hhcurveto
          -29 -27 8 15 -25 hvcurveto
          53 59 67 55 81 47 63 36 49 25 33 17 rrcurveto
          -50 -181 rmoveto
          -30 -122 -25 -88 -20 -54 rrcurveto
          -9 -39 -38 -5 -37 hhcurveto
          -42 -36 6 12 -30 hvcurveto
          -41 17 -20 27 36 vvcurveto
          30 15 34 31 39 vhcurveto
          -16 28 30 -8 32 hhcurveto
          64 74 34 67 84 hvcurveto
          endchar
        </CharString>
        <CharString name="apple">
          160 96 17 hstem
          120 15 87 30 vstem
          219 327 rmoveto
          25 -1 20 12 16 23 rrcurveto
          13 20 6 19 19 vvcurveto
          6 0 4 -1 3 vhcurveto
          -7 2 -9 -3 -13 -6 -13 -8 -11 -10 -8 -12 rrcurveto
          -13 -18 -6 -20 -19 -4 1 -4 -3 vvcurveto
          16 -10 rmoveto
          -12 -3 -13 -1 -11 4 -16 4 -14 5 -14 5 rrcurveto
          2 -4 -4 0 -7 hhcurveto
          -35 -28 -19 -38 -22 hvcurveto
          -12 -22 -6 -26 -29 vvcurveto
          -58 17 -49 34 -42 vhcurveto
          -27 22 20 -14 16 hhcurveto
          14 13 3 8 10 hvcurveto
          5 9 11 4 13 hhcurveto
          14 12 -4 -5 8 hvcurveto
          -7 11 13 -4 14 hhcurveto
          16 19 14 27 23 hvcurveto
          20 24 13 23 7 23 -37 15 -19 26 -2 40 -2 41 16 29 33 19 rrcurveto
          29 -19 -26 15 -33 hhcurveto
          -8 -6 -1 -2 -4 hvcurveto
          -13 -5 -14 -4 -17 -5 rrcurveto
          endchar
        </CharString>
        <CharString name="approxequal">
          89 64 25 10 26 44 25 10 26 hstem
          307 211 rmoveto
          -75 callsubr
          -23 hvcurveto
          10 -80 callsubr
          -105 vmoveto
          -75 callsubr
          -23 hvcurveto
          10 -80 callsubr
          endchar
        </CharString>
        <CharString name="aring">
          -67 callsubr
          45 -20 128 19 hstem
          -13 23 138 40 7 37 11 30 32 23 -105 callgsubr
          85 161 rmoveto
          13 -4 12 -8 11 vhcurveto
          11 -7 -11 5 -13 hhcurveto
          -23 -17 -11 -22 -11 hvcurveto
          -11 -3 -9 -11 -8 -18 rrcurveto
          -7 -15 -4 -15 -13 vvcurveto
          -26 14 -13 27 24 21 10 20 19 vhcurveto
          19 19 9 22 24 vvcurveto
          -23 -2 rmoveto
          -17 -6 -16 -11 -16 vhcurveto
          -16 -11 -14 -8 -16 hhcurveto
          -10 -5 6 13 13 4 13 8 12 hvcurveto
          12 17 7 11 1 5 -10 5 rcurveline
          9 11 10 4 8 hhcurveto
          15 7 -12 -23 hvcurveto
          endchar
        </CharString>
        <CharString name="asciicircum">
          111 345 -21 127 -20 hstem
          336 331 rmoveto
          -5 5 callgsubr
          -25 11 callsubr
          3 -3 5 9 38 28 56 67 vhcurveto
          12 -13 24 -17 36 -23 35 -23 25 -11 14 -1 rrcurveto
          endchar
        </CharString>
        <CharString name="asciitilde">
          68 415 25 10 26 hstem
          303 457 rmoveto
          -75 callsubr
          -24 hvcurveto
          11 -80 callsubr
          endchar
        </CharString>
        <CharString name="asterisk">
          340 258 22 hstem
          306 21 vstem
          566 265 rmoveto
          -1 4 -3 5 -5 6 rrcurveto
          6 -5 -4 3 -3 hhcurveto
          -7 -11 -1 -1 -13 hvcurveto
          -1 -15 -10 -1 -5 hhcurveto
          -35 -1 -46 -2 -57 -1 98 102 rcurveline
          46 46 rlineto
          1 -39 callgsubr
          vvcurveto
          -32 callsubr
          -3 -7 -54 -48 -97 -100 vhcurveto
          -2 106 -1 73 39 vvcurveto
          5 -2 2 -3 -2 -1 -1 -3 -1 vhcurveto
          -4 -11 -3 -36 -2 -63 rrcurveto
          -13 -1 -39 -1 -65 vhcurveto
          -110 108 -51 50 rlineto
          1 -2 -45 callsubr
          hhcurveto
          -3 -1 -1 -3 -8 49 -54 97 -101 hvcurveto
          -2 -103 -71 -1 -38 hhcurveto
          -5 -2 -2 -3 -1 2 callgsubr
          -1 hvcurveto
          11 -4 37 -2 61 -2 rrcurveto
          10 39 -1 -1 67 hvcurveto
          -107 -106 -54 -57 -8 vvcurveto
          -4 7 -2 14 5 4 -47 callgsubr
          vhcurveto
          12 14 58 63 44 47 30 31 rlinecurve
          -1 -109 2 -75 5 -40 2 -1 rcurveline
          3 1 5 3 6 5 rrcurveto
          6 5 3 2 callsubr
          7 0 10 -1 13 vhcurveto
          -1 15 -1 11 5 vvcurveto
          -1 34 -2 45 -1 57 rrcurveto
          -99 97 53 -49 7 9 callsubr
          7 15 5 -1 3 -1 2 hvcurveto
          -14 12 -63 57 -46 44 -30 29 rlinecurve
          112 -1 76 3 41 5 rrcurveto
          endchar
        </CharString>
        <CharString name="at">
          536 28 15 65 20 10 41 353 23 59 31 hstem
          52 24 107 29 179 52 71 40 143 23 vstem
          766 303 rmoveto
          44 -16 39 -32 34 vhcurveto
          1 10 1 10 9 vvcurveto
          63 -21 48 -40 35 vhcurveto
          33 -38 -51 17 -63 hhcurveto
          -107 -101 -36 -73 -95 hvcurveto
          -102 -78 -50 -91 -103 vvcurveto
          -40 8 -38 16 -37 vhcurveto
          18 -41 34 -31 51 -22 rrcurveto
          -18 42 47 -9 51 hhcurveto
          70 73 16 31 76 hvcurveto
          80 33 61 43 42 50 rrcurveto
          30 36 15 33 33 vvcurveto
          -48 6 rmoveto
          -13 -2 -13 -4 -12 vhcurveto
          -24 -69 -54 -57 -83 -43 rrcurveto
          -39 -75 -78 -20 -79 hhcurveto
          -69 -56 15 30 -43 hvcurveto
          -50 35 -25 50 66 vvcurveto
          95 53 87 106 80 vhcurveto
          75 99 99 38 99 hhcurveto
          90 54 -37 -73 18 hvcurveto
          2 -9 1 -10 -9 vvcurveto
          -11 -1 -11 -3 -12 vhcurveto
          15 -22 -21 7 -20 hhcurveto
          -11 -5 -3 -5 -1 7 callsubr
          hvcurveto
          29 -13 22 -17 17 -21 -8 -30 -12 -32 -17 -34 -18 -37 -23 -36 -27 -34 rrcurveto
          -48 -38 -32 -24 -26 hhcurveto
          -27 -13 28 55 67 12 64 25 61 hvcurveto
          49 36 25 36 37 vvcurveto
          29 -17 14 -34 -27 -31 -8 -17 -36 vhcurveto
          -56 -26 -51 -45 -46 -64 rrcurveto
          -48 -67 -25 -62 -59 vvcurveto
          -46 18 -23 35 57 56 61 121 55 vhcurveto
          -9 -38 -4 -32 -26 vvcurveto
          -13 1 -12 2 -10 vhcurveto
          4 -21 10 -18 15 -17 rrcurveto
          -17 15 18 -8 19 hhcurveto
          43 46 35 71 50 hvcurveto
          40 57 29 55 17 53 rrcurveto
          12 -23 6 -23 -24 vvcurveto
          -204 194 rmoveto
          -19 -7 -18 -13 -19 vhcurveto
          5 12 2 9 7 vvcurveto
          8 -3 4 -6 -14 -15 -12 -24 -17 vhcurveto
          -17 -23 -9 -20 -2 -15 -40 -23 rcurveline
          -12 -4 -6 -4 -4 vvcurveto
          -3 2 -2 4 9 11 2 5 13 vhcurveto
          -18 -43 -20 -37 -23 -31 rrcurveto
          -47 -34 -32 -23 -31 hhcurveto
          -19 -10 10 19 45 35 66 70 85 hvcurveto
          85 70 57 43 44 hhcurveto
          17 9 -10 -19 hvcurveto
          endchar
        </CharString>
        <CharString name="atilde">
          -67 callsubr
          63 -21 55 -20 hstem
          -13 23 138 40 55 30 -105 callgsubr
          119 124 rmoveto
          -3 callgsubr
          -2 -6 -4 -7 -10 hvcurveto
          -12 callgsubr
          -19 6 -11 hhcurveto
          -6 -10 -5 -10 -15 hvcurveto
          -14 -10 -7 -8 -6 vvcurveto
          3 -5 rlineto
          1 6 4 8 11 hvcurveto
          8 11 10 4 9 hhcurveto
          13 21 -6 -12 27 hvcurveto
          -11 27 22 -6 15 hhcurveto
          6 9 5 11 13 hvcurveto
          12 10 6 8 7 vvcurveto
          endchar
        </CharString>
        <CharString name="b">
          52 -22 19 298 36 hstem
          0 22 256 58 vstem
          363 679 10 callsubr
          -11 -21 -8 -15 -5 -11 -60 -124 -57 -132 -57 -141 rrcurveto
          -45 -41 -22 -25 -11 -48 callsubr
          2 3 2 2 3 3 vhcurveto
          18 21 15 16 12 12 -17 -42 -13 -37 -11 -32 rrcurveto
          -35 -21 -18 -22 -22 vvcurveto
          -15 8 -11 15 -9 vhcurveto
          -2 -11 -1 -9 -7 vvcurveto
          -11 2 -6 5 4 3 5 11 2 vhcurveto
          3 21 rlineto
          -3 10 11 -1 12 hhcurveto
          43 42 16 32 43 hvcurveto
          37 28 31 35 25 41 rrcurveto
          3 4 0 -1 7 hvcurveto
          -1 7 5 0 3 9 callsubr
          1 3 6 -9 3 -19 1 hvcurveto
          24 44 12 41 38 vvcurveto
          44 -16 22 -32 -31 -42 -19 -38 -53 vhcurveto
          51 109 67 133 81 158 rrcurveto
          -64 callsubr
          1 vvcurveto
          -85 -434 rmoveto
          -40 -5 -34 -10 -28 vhcurveto
          -66 -3 -59 -12 -52 -22 17 40 22 48 25 55 rrcurveto
          31 40 31 15 23 hhcurveto
          23 11 -17 -33 hvcurveto
          -21 -115 rmoveto
          -15 -37 -26 -31 -36 -26 rrcurveto
          -26 -36 -37 -13 -39 hhcurveto
          -9 -8 1 1 -7 hvcurveto
          28 75 59 33 61 18 65 5 rlinecurve
          -217 -78 rmoveto
          -5 -17 -4 -14 -3 -13 rrcurveto
          -4 4 -2 4 5 vvcurveto
          9 6 11 12 11 vhcurveto
          endchar
        </CharString>
        <CharString name="backslash">
          292 -116 20 hstem
          497 26 vstem
          523 -84 rmoveto
          80 -45 117 -91 154 vhcurveto
          -65 109 -74 108 -84 106 -45 57 -31 36 -16 13 rrcurveto
          13 -16 -16 6 -16 hhcurveto
          -9 -4 -2 -4 -1 hvcurveto
          115 -118 102 -126 90 -133 rrcurveto
          120 -179 60 -142 -107 vvcurveto
          -20 vlineto
          17 9 11 21 hvcurveto
          endchar
        </CharString>
        <CharString name="bar">
          -9 135 45 vstem
          181 617 rmoveto
          65 -15 33 -31 -13 -6 -4 -7 -9 2 -11 3 -13 vhcurveto
          5 -17 2 -11 1 -5 rrcurveto
          4 -31 2 -45 -59 vvcurveto
          -144 -11 -145 -26 -146 vhcurveto
          -11 -60 -11 -44 -7 -30 rrcurveto
          -7 -30 -4 -17 -3 vvcurveto
          -1 16 callgsubr
          9 10 7 13 9 vhcurveto
          17 24 20 109 24 194 rrcurveto
          22 177 10 119 60 vvcurveto
          3 0 5 1 7 vhcurveto
          endchar
        </CharString>
        <CharString name="braceleft">
          110 98 33 7 31 vstem
          423 724 rmoveto
          1 -1 -2 1 -3 hhcurveto
          -85 -58 -25 -51 -31 hvcurveto
          -15 -25 -14 -53 -12 -82 -10 -71 -20 -48 -29 -25 -22 -19 -39 -12 -56 -6 -5 -8 rcurveline
          78 -1 39 -32 -63 vvcurveto
          -28 -7 -41 -13 -53 vhcurveto
          -13 -53 -7 -41 -28 vvcurveto
          -39 14 -26 28 -15 vhcurveto
          -10 19 31 -5 42 hhcurveto
          7 4 -55 callgsubr
          hvcurveto
          -2 3 -11 2 -21 1 -23 1 -17 5 -12 9 rrcurveto
          -18 13 -9 22 31 vvcurveto
          27 6 41 13 53 vhcurveto
          13 53 6 41 28 vvcurveto
          29 -10 25 -21 19 vhcurveto
          -20 18 -24 11 -30 4 rrcurveto
          2 hlineto
          37 34 15 30 31 hvcurveto
          27 27 20 32 12 39 2 6 7 42 16 78 10 48 14 35 19 21 rrcurveto
          29 25 40 14 55 hhcurveto
          endchar
        </CharString>
        <CharString name="braceright">
          226 330 31 27 36 vstem
          471 296 rmoveto
          -73 7 -37 27 46 vvcurveto
          31 11 46 21 59 vhcurveto
          21 59 10 45 32 vvcurveto
          32 -15 22 -31 11 vhcurveto
          6 -18 -29 3 -40 hhcurveto
          -20 callsubr
          -2 -2 -17 callsubr
          rcurveline
          23 -4 24 -4 23 -3 rrcurveto
          21 -7 11 -19 -31 vvcurveto
          -31 -10 -44 -19 -57 vhcurveto
          -19 -57 -10 -44 -31 vvcurveto
          -28 12 -22 24 -16 vhcurveto
          20 -14 25 -8 30 -2 -51 -5 -47 -23 -43 -40 -28 -27 -27 -57 -25 -87 -24 -84 -25 -51 -25 -19 -17 -13 -24 -8 -29 -3 -31 -3 -17 -2 -3 -1 rrcurveto
          -1 1 2 -1 3 hhcurveto
          97 67 36 71 35 hvcurveto
          63 201 30 72 57 37 84 1 rlinecurve
          endchar
        </CharString>
        <CharString name="bracketleft">
          326 -17 26 678 31 hstem
          48 39 vstem
          573 697 rmoveto
          14 1 -35 7 -67 hhcurveto
          -27 -23 -5 -12 -17 hvcurveto
          -66 -44 -75 -106 -87 -165 rrcurveto
          -86 -165 -43 -123 -79 vvcurveto
          -24 36 -12 72 75 37 5 9 8 -10 4 -19 -8 -12 -1 -2 -17 vhcurveto
          -1 -17 -12 -1 -9 hhcurveto
          -51 -26 19 37 60 37 97 72 134 hvcurveto
          63 117 58 89 53 63 26 31 20 20 15 9 rrcurveto
          5 8 18 2 29 hhcurveto
          8 12 -1 -1 16 hvcurveto
          -1 16 12 -1 8 hhcurveto
          5 5 0 1 4 hvcurveto
          1 9 0 4 0 vvcurveto
          endchar
        </CharString>
        <CharString name="bracketright">
          297 -17 25 681 27 hstem
          499 39 vstem
          538 679 rmoveto
          19 -8 12 -17 4 vhcurveto
          1 -3 -16 1 -29 hhcurveto
          -51 -37 -11 -21 -21 hvcurveto
          7 1 16 0 27 2 rrcurveto
          1 20 16 1 13 hhcurveto
          17 14 -3 -6 9 hvcurveto
          3 -12 1 -12 -13 vvcurveto
          -74 -28 -101 -55 -129 vhcurveto
          -52 -121 -52 -92 -53 -63 rrcurveto
          -37 -31 -47 -18 -65 hhcurveto
          -45 hlineto
          -11 -2 -13 -8 -15 -13 rrcurveto
          -1 11 20 -1 30 hhcurveto
          89 58 15 29 28 hvcurveto
          69 73 62 102 56 133 rrcurveto
          55 132 28 115 97 vvcurveto
          endchar
        </CharString>
        <CharString name="breve">
          11 416 19 hstem
          261 471 rmoveto
          -5 4 rlineto
          -5 -16 -7 -13 -28 hvcurveto
          -13 -27 -23 -7 -17 hhcurveto
          -25 -14 9 19 -5 hvcurveto
          4 0 4 -1 5 vhcurveto
          7 -1 -1 4 -3 hhcurveto
          -11 -5 -10 -21 -27 24 -13 47 14 21 7 13 29 hvcurveto
          28 13 17 11 7 11 rrcurveto
          endchar
        </CharString>
        <CharString name="brokenbar">
          -93 237 246 hstem
          94 29 vstem
          123 419 rmoveto
          43 -10 21 -19 -8 -4 -3 -5 -4 1 -6 3 -9 vhcurveto
          2 -9 1 -5 -3 vvcurveto
          4 -22 1 -30 -39 vvcurveto
          -12 -1 -18 -1 -23 vhcurveto
          -1 -23 -1 -18 -11 vvcurveto
          -4 3 -2 6 6 8 callsubr
          2 vhcurveto
          8 13 3 59 104 vvcurveto
          -18 -226 rmoveto
          3 -3 1 -6 -5 -4 -1 -3 -1 vhcurveto
          -3 -19 -1 -17 -1 -15 -3 -33 -6 -32 -6 -32 -8 -40 -8 -30 -5 -21 2 -1 rcurveline
          6 1 6 5 5 7 3 5 8 36 12 67 rrcurveto
          12 67 6 40 12 vvcurveto
          endchar
        </CharString>
        <CharString name="bullet">
          278 41 -21 433 -20 hstem
          487 237 rmoveto
          59 -21 51 -43 43 vhcurveto
          42 -42 -51 21 -59 hhcurveto
          -60 -51 -21 -43 -43 hvcurveto
          -42 -42 -21 -51 -59 vvcurveto
          -60 21 -51 43 -43 vhcurveto
          -42 42 51 -21 60 hhcurveto
          59 51 21 43 43 hvcurveto
          42 42 21 51 60 vvcurveto
          endchar
        </CharString>
        <CharString name="c">
          23 -28 23 329 10 hstem
          -3 45 178 -88 callsubr
          -52 23 -26 46 38 42 16 32 47 vhcurveto
          -14 callsubr
        </CharString>
        <CharString name="caron">
          20 505 -20 hstem
          62 488 -90 callgsubr
          endchar
        </CharString>
        <CharString name="ccedilla">
          23 -28 23 329 10 hstem
          12 22 11 27 148 -88 callsubr
          -31 8 -21 17 -13 vhcurveto
          -7 -10 -3 -12 -15 vvcurveto
          -9 6 -12 11 -15 vhcurveto
          10 -15 6 -10 -7 vvcurveto
          -19 -7 -13 -15 -5 vhcurveto
          -15 -2 -16 -2 -15 -3 -6 -5 rcurveline
          -5 2 -2 4 22 20 5 10 19 vhcurveto
          23 12 11 16 20 vvcurveto
          12 -6 14 -13 15 vhcurveto
          -13 15 -6 11 5 vvcurveto
          6 1 6 3 5 vhcurveto
          -3 8 9 -1 11 hhcurveto
          38 42 16 32 47 hvcurveto
          -14 callsubr
        </CharString>
        <CharString name="cedilla">
          -35 79 36 16 42 vstem
          173 -181 -31 callsubr
          8 12 11 7 15 3 rrcurveto
          5 -1 -4 2 -7 hhcurveto
          -21 -17 -9 -18 -13 hvcurveto
          -13 -17 -6 -20 -23 vvcurveto
          -13 9 -19 17 -25 vhcurveto
          -70 callsubr
          endchar
        </CharString>
        <CharString name="cent">
          23 39 29 174 27 19 callsubr
          -14 -15 -9 -19 -13 vhcurveto
          -39 -59 -27 -47 -17 -31 -51 6 -46 -29 -42 -63 rrcurveto
          -37 -56 -19 -55 -55 vvcurveto
          -44 17 -26 33 -7 vhcurveto
          -17 -53 -8 -40 -28 20 callsubr
          3 37 3 26 6 28 8 31 rlinecurve
          38 2 41 17 45 31 42 29 32 31 22 35 rrcurveto
          6 9 2 6 3 vvcurveto
          -43 callgsubr
          -1 1 vhcurveto
          -3 -6 -5 -10 -6 hvcurveto
          -20 -32 -26 -28 -31 -24 rrcurveto
          -28 -37 -34 -15 -32 hhcurveto
          -9 -8 1 3 -7 hvcurveto
          27 83 43 95 59 105 rrcurveto
          11 -6 6 -13 -20 vvcurveto
          -12 -3 -13 -6 -14 vhcurveto
          -6 -13 -3 -7 1 vvcurveto
          -9 5 -5 9 8 7 9 18 7 vhcurveto
          6 15 3 13 10 vvcurveto
          29 -12 20 -24 11 vhcurveto
          22 39 23 39 25 37 33 49 rcurveline
          -16 callgsubr
          2 1 1 rrcurveto
          -139 -182 rmoveto
          -51 -97 -41 -90 -30 -83 rrcurveto
          -12 14 -6 21 28 vvcurveto
          41 14 42 26 43 vhcurveto
          29 47 33 27 38 7 rrcurveto
          endchar
        </CharString>
        <CharString name="circumflex">
          111 382 -21 hstem
          321 378 -95 callgsubr
          endchar
        </CharString>
        <CharString name="colon">
          -107 6 -21 244 -20 hstem
          122 70 rmoveto
          -1 1 rlineto
          1 -1 0 0 -1 hhcurveto
          -5 -11 -4 -8 -15 hvcurveto
          -15 -8 -9 -6 -4 -5 -50 callgsubr
          4 5 -64 callgsubr
          11 11 22 6 hvcurveto
          4 15 5 11 5 8 rrcurveto
          1 3 3 5 5 vhcurveto
          4 5 3 3 1 vvcurveto
          58 150 rmoveto
          6 -2 3 -3 -7 -13 -11 -21 -19 vhcurveto
          -12 -5 -6 -8 -12 -44 callgsubr
          -7 5 -8 6 callsubr
          13 10 11 22 7 hvcurveto
          7 25 4 16 5 vvcurveto
          endchar
        </CharString>
        <CharString name="comma">
          -107 -100 -21 197 -20 hstem
          120 42 -93 callgsubr
          endchar
        </CharString>
        <CharString name="copyright">
          379 29 21 65 12 395 -20 hstem
          41 36 54 34 288 18 72 -78 callsubr
          -71 -34 -68 -69 -67 vhcurveto
          -67 -69 -69 -33 -71 -1 callsubr
          75 35 71 71 69 vhcurveto
          69 70 72 34 75 -2 callsubr
          -72 54 rmoveto
          27 -16 13 -33 -63 -63 -29 -59 -65 vhcurveto
          -67 -61 -33 -61 -61 vvcurveto
          -21 9 -17 18 -11 vhcurveto
          -10 15 19 -5 23 hhcurveto
          28 39 10 19 49 hvcurveto
          57 22 28 22 23 -9 callsubr
          vhcurveto
          4 -1 -25 -15 -51 -28 rrcurveto
          -29 -53 -43 -14 -33 hhcurveto
          -31 -16 16 32 53 29 57 58 63 hvcurveto
          62 58 55 31 52 hhcurveto
          24 12 -12 -23 4 -2 -8 -3 -20 hvcurveto
          5 -4 rlineto
          12 1 6 10 21 vvcurveto
          endchar
        </CharString>
        <CharString name="currency">
          220 154 7 230 6 hstem
          112 14 256 13 vstem
          414 448 rmoveto
          -7 -8 -28 -31 -37 -36 rrcurveto
          8 -17 -20 4 -23 hhcurveto
          -30 -29 -6 -11 -25 hvcurveto
          -21 39 -16 35 -2 8 -29 -9 rcurveline
          53 -81 rlineto
          -40 -24 -27 -38 -47 vvcurveto
          -29 13 -22 22 -14 vhcurveto
          -102 -96 rlineto
          32 hlineto
          82 90 rlineto
          -8 17 19 -3 22 hhcurveto
          22 22 3 7 20 hvcurveto
          25 -43 20 -36 3 -9 rrcurveto
          33 hlineto
          -5 6 -29 43 -29 47 rrcurveto
          47 22 33 42 53 vvcurveto
          27 -11 21 -18 13 vhcurveto
          38 36 35 29 10 9 rrcurveto
          -92 -144 rmoveto
          -51 -43 -46 -69 -52 -26 31 37 54 48 40 70 51 21 -29 -36 vhcurveto
          endchar
        </CharString>
        <CharString name="d">
          112 -17 17 685 -20 hstem
          -7 25 170 41 vstem
          485 678 rmoveto
          5 -5 2 -9 -25 -18 -8 -15 -11 vhcurveto
          -18 -36 -14 -29 -10 -23 -26 -58 -28 -64 -29 -70 -64 -7 -66 -39 -68 -72 rrcurveto
          -67 -71 -34 -68 -63 vvcurveto
          -41 16 -21 31 31 32 25 49 36 vhcurveto
          16 23 23 38 28 54 rrcurveto
          -12 -54 -6 -41 -27 vvcurveto
          -56 19 -28 39 45 48 50 99 51 vhcurveto
          1 -5 callgsubr
          -9 callsubr
          -2 -2 3 callsubr
          vhcurveto
          -27 -43 -18 -27 -9 -11 rrcurveto
          -36 -28 -25 -18 -20 hhcurveto
          -17 -9 16 33 27 5 33 10 39 hvcurveto
          9 39 11 33 13 26 11 8 13 18 17 27 rrcurveto
          16 27 8 19 13 vvcurveto
          10 -4 6 -8 2 vhcurveto
          31 63 33 67 37 70 23 44 18 32 11 22 rrcurveto
          1 2 -47 callgsubr
          vvcurveto
          -203 -319 rmoveto
          -42 -104 -18 -13 rlineto
          6 16 3 11 6 vvcurveto
          6 -2 3 -5 -24 callgsubr
          -5 -2 vhcurveto
          -6 -20 -6 -17 -5 -13 -13 -9 -11 -6 -9 -3 rrcurveto
          -9 -3 -5 -3 -4 -48 callsubr
          3 8 10 2 4 13 vhcurveto
          -109 -47 -47 -54 -49 hhcurveto
          -18 -9 15 29 48 32 57 64 64 hvcurveto
          62 62 56 36 50 11 rrcurveto
          endchar
        </CharString>
        <CharString name="dagger">
          128 189 24 vstem
          380 413 rmoveto
          1 -2 1 -3 1 vhcurveto
          -34 7 -54 4 -74 1 rrcurveto
          7 83 3 60 38 vvcurveto
          19 vlineto
          -2 1 -4 -1 -6 -3 -9 -5 rlinecurve
          -9 -5 -4 -4 -3 vvcurveto
          -68 -1 -60 -3 -52 vhcurveto
          -70 -1 -51 -2 -33 -4 rrcurveto
          -1 -1 -1 -1 -1 hvcurveto
          1 -4 5 -5 9 -6 rrcurveto
          -5 7 6 -3 5 hhcurveto
          -1 13 callgsubr
          -4 -61 -8 -86 -8 -109 -7 -92 rcurveline
          -2 -24 -1 -13 -1 -41 callgsubr
          7 callgsubr
          1 vhcurveto
          9 37 4 30 3 21 11 85 12 100 10 117 rrcurveto
          3 61 53 1 44 1 callgsubr
        </CharString>
        <CharString name="daggerdbl">
          122 185 22 vstem
          374 413 rmoveto
          1 -17 callgsubr
          vhcurveto
          -33 7 -53 4 -75 1 rrcurveto
          7 86 4 62 38 vvcurveto
          14 vlineto
          -3 callgsubr
          -3 -6 -3 -5 -9 hvcurveto
          -9 -5 -4 -5 -3 vvcurveto
          -59 -2 -60 -4 -61 vhcurveto
          -72 -1 -52 -2 -31 -4 -22 callsubr
          1 -4 4 -5 9 -6 rrcurveto
          -5 8 6 -3 5 hhcurveto
          -2 13 callgsubr
          -3 -40 -3 -46 -5 -52 rrcurveto
          -72 -52 -2 -4 -32 hvcurveto
          -1 -1 -1 0 -1 vvcurveto
          1 -4 4 -5 9 -6 rrcurveto
          -6 8 6 -3 4 hhcurveto
          -2 14 1 2 29 hvcurveto
          27 2 27 1 29 1 -14 -148 rcurveline
          -5 -49 -1 -25 -1 -41 callgsubr
          7 callgsubr
          1 vhcurveto
          5 13 7 37 9 61 14 116 rcurveline
          3 63 53 1 45 hhcurveto
          7 4 2 3 2 -20 callgsubr
          -33 7 -55 3 -76 1 5 47 5 47 4 45 rrcurveto
          3 62 53 1 43 hhcurveto
          8 4 -51 callgsubr
        </CharString>
        <CharString name="degree">
          -8 358 37 107 37 hstem
          38 37 106 37 vstem
          218 448 rmoveto
          25 -9 21 -18 18 vhcurveto
          18 -17 -21 9 -25 hhcurveto
          -25 -21 -9 -18 -18 hvcurveto
          -17 -18 -9 -21 -25 vvcurveto
          -25 9 -21 18 -18 vhcurveto
          -17 17 21 -9 25 hhcurveto
          25 21 9 18 18 hvcurveto
          17 17 9 21 25 vvcurveto
          -37 hmoveto
          -14 -5 -12 -11 -11 vhcurveto
          -11 -10 -12 -5 -15 hhcurveto
          -15 -12 5 11 -11 hvcurveto
          -10 11 -5 12 14 vvcurveto
          15 5 12 11 11 vhcurveto
          11 10 12 5 15 hhcurveto
          15 12 -5 -11 11 hvcurveto
          10 -11 5 -12 -15 vvcurveto
          endchar
        </CharString>
        <CharString name="dieresis">
          35 402 -21 86 -20 hstem
          267 465 rmoveto
          -103 callsubr
          -134 hmoveto
          -103 callsubr
          endchar
        </CharString>
        <CharString name="divide">
          -31 29 48 91 48 hstem
          91 51 vstem
          150 192 rmoveto
          16 -8 8 -17 -17 -8 -8 -16 -16 8 -8 17 17 8 8 16 vhcurveto
          68 -71 -74 callgsubr
          -76 -68 rmoveto
          16 -8 8 -17 -17 -9 -8 -16 -16 9 -8 17 17 8 8 16 vhcurveto
          endchar
        </CharString>
        <CharString name="dollar">
          21 -28 23 44 29 45 41 81 45 14 21 19 callsubr
          -19 -30 -34 -67 -39 vhcurveto
          -30 2 -28 -5 -27 -13 rrcurveto
          -32 -15 -16 -22 -28 vvcurveto
          -25 17 -24 33 -23 vhcurveto
          -37 -75 -29 -68 -22 -63 -23 5 -19 11 -15 18 rrcurveto
          -15 17 -8 21 23 vvcurveto
          27 10 21 20 15 vhcurveto
          14 18 23 7 28 hhcurveto
          10 5 0 1 1 hvcurveto
          3 -1 -8 1 -16 hhcurveto
          -31 -25 -10 -19 -22 hvcurveto
          -23 -20 -12 -24 -30 vvcurveto
          -51 34 -29 67 -9 vhcurveto
          -23 -65 -11 -49 -33 20 callsubr
          4 47 5 31 8 33 11 37 rlinecurve
          43 -1 40 9 36 19 rrcurveto
          43 23 22 32 40 vvcurveto
          27 -9 22 -17 17 vhcurveto
          -7 7 -19 14 -33 21 23 43 24 42 26 43 rrcurveto
          17 -6 9 -9 -13 vvcurveto
          -19 -12 -10 -25 -7 -20 callsubr
          -1 3 -1 7 39 19 10 21 17 -14 13 -29 8 vhcurveto
          -37 -245 rmoveto
          -48 -21 -33 -42 -17 vhcurveto
          -10 -25 -24 -5 -21 hhcurveto
          -4 hlineto
          19 59 28 66 36 72 rrcurveto
          36 -25 18 -28 -31 vvcurveto
          7 243 rmoveto
          -21 -37 -22 -39 -22 -43 rrcurveto
          -15 14 -8 16 19 vvcurveto
          48 26 22 53 vhcurveto
          endchar
        </CharString>
        <CharString name="dotaccent">
          -107 439 -21 88 -20 hstem
          152 498 rmoveto
          5 -2 3 -3 -7 -13 -11 -21 -19 vhcurveto
          -12 -4 -6 -8 -12 vvcurveto
          -6 2 -6 4 -7 vhcurveto
          -9 5 5 -64 callgsubr
          10 11 23 7 hvcurveto
          7 25 4 16 5 vvcurveto
          endchar
        </CharString>
        <CharString name="dotlessi">
          -135 -16 22 hstem
          1 22 vstem
          136 239 -93 callsubr
          endchar
        </CharString>
        <CharString name="e">
          36 -19 21 330 -20 -104 callgsubr
          endchar
        </CharString>
        <CharString name="eacute">
          36 -19 21 -104 callgsubr
          44 302 rmoveto
          7 -6 4 -11 -7 -22 -13 -25 -35 vhcurveto
          -35 -25 -17 -16 -6 vvcurveto
          -4 2 -2 3 7 23 12 25 39 vhcurveto
          39 24 20 14 5 vvcurveto
          endchar
        </CharString>
        <CharString name="ecircumflex">
          36 -19 21 -104 callgsubr
          23 218 rmoveto
          -4 7 -46 -71 callgsubr
          -25 -16 -17 -2 -7 5 -8 rcurveline
          11 -11 callgsubr
          -14 28 21 callsubr
        </CharString>
        <CharString name="edieresis">
          36 -19 21 -104 callgsubr
          4 310 rmoveto
          -68 callsubr
          -15 -62 callgsubr
          -4 2 -5 4 -48 callgsubr
          -2 3 hhcurveto
          7 7 6 13 6 hvcurveto
          12 30 rlineto
          -78 12 rmoveto
          1 vlineto
          -3 1 rlineto
          -7 -49 callsubr
          -15 -53 callgsubr
          3 hhcurveto
          8 7 6 13 5 hvcurveto
          12 30 rlineto
          endchar
        </CharString>
        <CharString name="egrave">
          36 -19 21 -104 callgsubr
          -56 239 rmoveto
          6 -53 callsubr
          -5 21 -16 43 -26 hvcurveto
          -25 42 24 -13 6 hhcurveto
          3 2 2 4 hvcurveto
          endchar
        </CharString>
        <CharString name="eight">
          209 -19 24 521 27 hstem
          46 35 102 31 86 51 61 18 vstem
          474 491 rmoveto
          0 -2 2 -4 5 vhcurveto
          -13 16 -8 7 -8 6 -9 5 rlinecurve
          -1 33 -16 29 -31 26 rrcurveto
          2 -3 -2 1 -2 hhcurveto
          -5 -2 -4 -9 1 hvcurveto
          27 -16 14 -23 2 -30 rrcurveto
          8 -22 -25 4 -29 hhcurveto
          -46 -36 -11 -21 -27 hvcurveto
          -29 -23 -15 -34 -45 vvcurveto
          -44 13 -41 26 -37 vhcurveto
          -117 -79 -59 -68 -59 vvcurveto
          -35 13 -28 26 -20 vhcurveto
          -18 23 30 -9 37 hhcurveto
          46 40 15 28 34 hvcurveto
          37 30 19 37 45 vvcurveto
          53 -28 56 -55 58 vhcurveto
          17 17 15 12 11 9 68 63 39 55 10 49 18 -7 13 -7 11 -9 rrcurveto
          3 -5 callgsubr
          vvcurveto
          -174 -370 rmoveto
          -34 -12 -28 -24 -22 vhcurveto
          -21 -24 -29 -11 -35 hhcurveto
          -27 -21 8 14 -18 hvcurveto
          -19 16 -10 20 26 vvcurveto
          33 18 37 36 39 vhcurveto
          29 32 33 26 37 21 rrcurveto
          44 -58 22 -52 -46 vvcurveto
          74 310 rmoveto
          -13 -19 -19 -20 -24 -20 -21 -18 -22 -17 -21 -17 rrcurveto
          -27 43 -13 41 39 vvcurveto
          55 37 28 74 24 25 -4 -6 27 vhcurveto
          9 -3 -4 -27 -12 -27 -20 -28 rlinecurve
          endchar
        </CharString>
        <CharString name="ellipsis">
          210 -15 20 hstem
          121 71 rmoveto
          -50 callsubr
          -11 -15 -7 -15 -20 hvcurveto
          -20 -14 -10 -12 -10 -44 callgsubr
          -6 5 -7 6 callsubr
          11 8 9 18 8 hvcurveto
          17 40 rlineto
          11 8 5 7 1 hhcurveto
          158 1 rmoveto
          1 -1 -2 0 -1 hhcurveto
          -11 -15 -7 -15 -20 hvcurveto
          -19 -14 -10 -12 -10 -44 callgsubr
          -6 5 -7 6 callsubr
          10 9 9 18 8 hvcurveto
          6 13 5 14 5 13 9 12 5 6 1 -1 rrcurveto
          157 2 rmoveto
          -50 callsubr
          -11 -15 -7 -15 -20 hvcurveto
          -20 -14 -10 -12 -10 -44 callgsubr
          -6 5 -7 6 callsubr
          10 9 9 18 8 hvcurveto
          17 40 8 12 5 6 1 -1 rlinecurve
          -314 hmoveto
          -1 16 callgsubr
          hvcurveto
          1 0 -1 0 hvcurveto
          endchar
        </CharString>
        <CharString name="emdash">
          454 178 16 hstem
          721 183 rmoveto
          2 -3 2 -7 vhcurveto
          -60 4 -45 2 -31 1 rrcurveto
          2 -81 -83 2 -84 hhcurveto
          -48 -43 0 -1 -38 hvcurveto
          -55 -1 -37 -2 -18 -2 -22 callsubr
          2 -5 5 -5 8 -5 rrcurveto
          -5 8 7 -3 5 hhcurveto
          7 8 0 1 11 hvcurveto
          1 13 9 0 3 hhcurveto
          145 6 176 2 209 1 rrcurveto
          13 6 -51 callgsubr
        </CharString>
        <CharString name="endash">
          186 198 -20 hstem
          438 183 rmoveto
          2 -17 callgsubr
          vhcurveto
          7 -37 -59 4 -83 hhcurveto
          -73 -55 -2 -4 -37 hvcurveto
          -10 callsubr
          1 -4 5 -5 9 -6 rrcurveto
          -5 9 6 -3 5 hhcurveto
          12 16 1 1 19 hvcurveto
          2 26 16 1 5 hhcurveto
          4 81 71 2 60 1 callgsubr
        </CharString>
        <CharString name="equal">
          89 70 26 76 26 hstem
          300 184 rmoveto
          -69 callsubr
          -2 1 vhcurveto
          7 -17 -44 4 -71 hhcurveto
          -60 -36 -2 -4 -42 callgsubr
          3 48 36 2 25 9 callsubr
          2 4 hvcurveto
          -103 vmoveto
          -69 callsubr
          -2 1 vhcurveto
          8 -17 -44 4 -71 hhcurveto
          -60 -36 -2 -5 -42 callgsubr
          4 48 36 2 25 hhcurveto
          4 -61 callgsubr
        </CharString>
        <CharString name="eth">
          27 -21 30 217 30 274 31 hstem
          29 45 149 41 vstem
          327 435 rmoveto
          6 -3 3 -6 -5 -18 -6 -13 -33 vhcurveto
          91 -9 -27 45 -43 hhcurveto
          -36 callsubr
          33 20 -41 -82 6 hvcurveto
          -41 -19 -27 -15 -14 -10 rrcurveto
          -7 -5 -3 -7 -10 vvcurveto
          -7 3 -4 6 2 28 17 33 54 vhcurveto
          -15 vlineto
          -59 -7 -61 -85 callgsubr
          53 13 57 rrcurveto
          11 49 6 44 40 vvcurveto
          23 vlineto
          25 11 19 7 13 5 rrcurveto
          4 2 2 3 4 vvcurveto
          endchar
        </CharString>
        <CharString name="exclam">
          -40 6 -21 654 -20 hstem
          316 624 rmoveto
          10 -6 5 -13 -13 -11 -7 -12 -9 vhcurveto
          -24 -32 -33 -75 -41 -118 rrcurveto
          -41 -118 -21 -78 -38 -32 callgsubr
          -3 5 4 2 2 5 1 vhcurveto
          5 30 13 54 26 71 41 88 rlinecurve
          36 79 35 68 35 58 rrcurveto
          4 6 2 5 5 vvcurveto
          -195 -555 rmoveto
          2 -21 callsubr
          -13 -15 -6 -12 -18 hvcurveto
          -20 -13 -10 -12 -12 -44 callgsubr
          -7 5 -8 vhcurveto
          -8 4 5 -4 5 hhcurveto
          7 7 4 9 8 hvcurveto
          8 8 5 7 2 7 12 25 rcurveline
          6 12 3 8 4 vvcurveto
          endchar
        </CharString>
        <CharString name="exclamdown">
          -40 -260 -21 653 -20 hstem
          159 196 rmoveto
          5 -3 3 -5 -4 -47 callsubr
          -1 vhcurveto
          -2 -13 -1 -9 -2 -7 -12 -54 -27 -71 -40 -89 -36 -79 -35 -68 -35 -57 rrcurveto
          -4 -7 -2 -5 -4 vvcurveto
          -10 6 -5 13 13 11 6 13 9 vhcurveto
          23 31 33 75 41 119 rrcurveto
          41 118 21 78 37 vvcurveto
          63 144 rmoveto
          6 12 callgsubr
          -7 -7 -4 -8 -9 hvcurveto
          -8 -8 -5 -7 -2 -7 -43 callsubr
          -9 -7 -13 rrcurveto
          -7 -13 -3 -8 -3 vvcurveto
          -2 vlineto
          -1 -24 callsubr
          1 hhcurveto
          13 16 6 13 19 hvcurveto
          19 12 10 12 11 vvcurveto
          endchar
        </CharString>
        <CharString name="f">
          -2 -40 312 344 35 hstem
          520 -86 callgsubr
          -83 -27 21 39 23 40 26 41 rlinecurve
          -72 callgsubr
          -360 -334 -68 callgsubr
          endchar
        </CharString>
        <CharString name="fi">
          155 16 17 583 35 hstem
          260 26 234 -86 callgsubr
          -49 -17 -27 -9 -7 -1 21 39 23 40 26 41 -72 callgsubr
          -107 -469 -30 callsubr
          1 -15 -17 -35 -30 vhcurveto
          -35 -29 -27 -17 -23 -29 callgsubr
          11 22 32 17 51 35 70 hvcurveto
          6 2 6 8 6 13 rrcurveto
          6 13 3 10 7 vvcurveto
          7 -6 3 -11 -13 -8 -3 -6 -4 vhcurveto
          -11 -20 -7 -16 -4 -11 -19 -41 -17 -31 -17 -23 rrcurveto
          -4 -5 -2 -5 -5 -63 callgsubr
          1 3 6 7 15 9 vhcurveto
          18 28 rlineto
          -13 -38 -7 -32 -26 -7 callgsubr
          16 22 15 29 29 vhcurveto
          23 24 18 22 12 21 rrcurveto
          1 3 1 3 1 vvcurveto
          -253 135 -68 callgsubr
          285 192 rmoveto
          1 -1 0 -2 1 vhcurveto
          -6 -15 -5 -12 -22 hvcurveto
          -7 -4 -7 -7 -9 -9 rrcurveto
          -8 -9 -4 -8 -7 vvcurveto
          -14 7 -7 13 9 7 7 13 7 6 callgsubr
        </CharString>
        <CharString name="five">
          536 -86 22 168 12 177 23 109 48 28 22 hstem
          3 37 222 19 373 54 82 13 vstem
          708 213 rmoveto
          37 -18 27 -36 18 vhcurveto
          14 -28 -34 7 -41 hhcurveto
          -28 -34 -7 -12 -40 hvcurveto
          -33 -10 -34 -10 -33 -11 53 94 rcurveline
          29 53 15 28 4 vvcurveto
          9 -7 4 -15 -13 -11 -6 -12 -9 vhcurveto
          -10 -19 -7 -17 -6 -12 -25 -54 -21 -36 -13 -19 rrcurveto
          -13 -18 -6 -11 -4 vvcurveto
          -7 4 -3 9 3 10 2 6 17 vhcurveto
          30 88 73 15 57 hhcurveto
          69 34 -22 -45 -33 -17 -35 -35 -39 hvcurveto
          -53 -59 -69 -46 -86 -33 rrcurveto
          -30 -79 -82 -15 -85 hhcurveto
          -23 -22 3 5 -19 hvcurveto
          -29 8 -15 11 17 vvcurveto
          27 43 29 86 29 vhcurveto
          26 75 57 13 39 hhcurveto
          13 7 2 3 5 -7 2 -13 -58 -65 -10 -20 -73 hvcurveto
          -94 -26 -47 -33 -40 vvcurveto
          -26 19 -20 38 -13 vhcurveto
          -9 27 29 -5 32 hhcurveto
          99 94 14 30 88 hvcurveto
          103 35 78 52 54 66 rrcurveto
          29 36 15 34 32 vvcurveto
          95 311 rmoveto
          28 -13 24 -27 20 vhcurveto
          20 -27 -27 10 -29 hhcurveto
          -6 -3 -1 -3 -1 2 -1 4 -1 hvcurveto
          13 -3 12 -2 9 -4 19 -7 17 -10 15 -13 rrcurveto
          19 -16 9 -17 -16 vvcurveto
          -19 -14 -16 -29 -11 vhcurveto
          -8 -22 -23 -4 -23 hhcurveto
          -27 -42 4 9 -56 hvcurveto
          -120 22 rlineto
          10 -53 -40 5 -25 hhcurveto
          -36 -18 -11 -23 -8 4 -8 8 -8 hvcurveto
          -8 8 8 -4 7 9 callsubr
          2 5 2 -4 4 -7 5 hvcurveto
          -7 5 -4 6 5 vvcurveto
          9 10 5 19 16 35 -9 -18 55 vhcurveto
          -33 99 74 -16 50 hhcurveto
          39 35 7 13 30 hvcurveto
          40 17 20 27 35 vvcurveto
          endchar
        </CharString>
        <CharString name="fl">
          204 0 17 613 34 hstem
          332 26 vstem
          503 632 rmoveto
          21 -9 11 -19 -25 -30 -17 -34 -35 vhcurveto
          -37 -36 -37 -51 -35 -68 -30 -57 -27 -57 -29 -57 rrcurveto
          -10 -41 -35 -5 -31 hhcurveto
          -20 hlineto
          -9 -6 1 -4 hhcurveto
          -11 -6 -6 -13 -9 3 -6 7 -5 hvcurveto
          19 -12 rlineto
          25 -23 12 -47 -71 vvcurveto
          -25 0 -14 -1 -4 vhcurveto
          -1 -4 -2 -10 -2 -16 rrcurveto
          -2 -12 0 -10 -7 vvcurveto
          -13 8 -6 17 14 8 6 11 1 vhcurveto
          4 35 2 26 3 17 12 69 27 75 41 81 57 17 49 18 41 17 rrcurveto
          12 5 6 5 4 vvcurveto
          -69 callsubr
          -3 -1 -23 -8 -15 -45 vhcurveto
          -49 -17 -27 -9 -7 -1 23 48 23 48 25 48 29 56 30 44 31 32 rrcurveto
          38 36 25 18 15 hhcurveto
          7 3 -4 -8 -8 -3 -12 -6 -15 hvcurveto
          -6 -15 -3 -7 0 vvcurveto
          -7 4 -3 7 7 7 11 23 8 vhcurveto
          7 21 3 15 11 vvcurveto
          135 47 10 callsubr
          -22 -42 -16 -32 -11 -22 -33 -68 -32 -67 -28 -67 -36 -86 rcurveline
          -56 callgsubr
          3 6 12 11 23 17 vhcurveto
          -35 -92 -17 -64 -37 -7 callgsubr
          31 31 21 41 28 vhcurveto
          2 3 1 10 callgsubr
          -65 callgsubr
          1 -12 -10 -19 -23 vhcurveto
          -19 -23 -19 -9 -16 hhcurveto
          -15 -8 11 22 55 47 120 95 183 hvcurveto
          29 55 14 28 0 vvcurveto
          7 7 6 5 4 3 11 21 7 16 5 11 54 120 rcurveline
          -16 callgsubr
          2 1 vvcurveto
          -458 -410 -68 callgsubr
          endchar
        </CharString>
        <CharString name="florin">
          -37 -222 16 378 26 436 15 hstem
          -182 19 615 22 vstem
          474 568 rmoveto
          23 -8 20 -17 15 vhcurveto
          15 -16 -20 8 -24 hhcurveto
          -53 -47 -36 -71 -42 hvcurveto
          -23 -39 -26 -58 -25 -78 -24 -74 -16 -57 -11 -38 -26 -1 -27 -2 -29 -20 callsubr
          rcurveline
          -15 5 6 -8 9 hhcurveto
          -7 18 2 3 45 hvcurveto
          -19 -62 -15 -49 -12 -35 rrcurveto
          -155 -53 -59 -77 -66 hhcurveto
          -21 -14 11 23 -9 hvcurveto
          -4 11 -3 19 -3 29 rrcurveto
          8 -1 -1 4 -1 hhcurveto
          -11 -5 -13 -27 -23 8 -19 15 -16 hvcurveto
          -15 15 18 -8 23 hhcurveto
          51 44 28 59 31 hvcurveto
          29 54 17 42 11 29 32 82 24 62 15 41 rrcurveto
          2 35 29 1 25 9 callsubr
          2 3 8 -29 5 -57 2 hvcurveto
          44 116 33 82 23 48 rrcurveto
          127 59 50 63 41 hhcurveto
          29 13 -28 -55 hvcurveto
          -17 vlineto
          -9 16 callsubr
          13 7 16 31 vhcurveto
          endchar
        </CharString>
        <CharString name="four">
          427 -24 17 119 48 13 18 23 12 hstem
          17 14 636 13 vstem
          680 214 rmoveto
          28 -14 25 -28 20 vhcurveto
          18 -25 -28 9 -30 hhcurveto
          -7 -3 -1 -3 -1 2 -1 3 -1 hvcurveto
          14 -2 11 -2 9 -3 19 -6 18 -10 16 -13 rrcurveto
          20 -16 10 -16 -17 vvcurveto
          -27 -26 -19 -52 -12 vhcurveto
          -3 -13 -17 -1 -22 hhcurveto
          -33 -43 3 6 -52 hvcurveto
          74 138 13 24 10 21 9 16 rlinecurve
          18 15 2 3 14 29 25 56 rlinecurve
          24 55 13 29 1 vvcurveto
          7 -6 3 -13 -17 -14 -6 -12 -10 vhcurveto
          -27 -30 -21 -22 -14 -15 -64 -70 -49 -51 -37 -32 -63 -55 -60 -38 -57 -21 rrcurveto
          8 -35 -29 4 -22 hhcurveto
          -37 -19 -8 -17 -19 14 -9 27 17 28 5 11 39 hvcurveto
          85 -25 71 -18 55 -11 -23 -59 -13 -48 -5 -37 rrcurveto
          -1 -53 -37 -1 -22 1 callsubr
          -5 -10 -19 3 -9 7 29 44 5 10 58 hvcurveto
          10 57 44 5 30 hhcurveto
          3 4 0 -1 7 hvcurveto
          -23 callgsubr
          -15 -31 1 -49 hhcurveto
          -17 -21 0 -1 -23 hvcurveto
          6 35 16 45 26 55 rrcurveto
          -10 53 44 -5 33 hhcurveto
          38 34 7 15 31 hvcurveto
          39 19 20 26 35 vvcurveto
          -204 191 rmoveto
          -44 -87 -36 -77 -27 -66 -73 10 -62 11 -50 11 87 35 98 66 107 97 rrcurveto
          -356 -205 rmoveto
          -6 -21 -16 -3 -11 hhcurveto
          -27 -14 3 6 9 11 5 21 17 19 -5 -9 21 hvcurveto
          endchar
        </CharString>
        <CharString name="fraction">
          37 -24 20 hstem
          462 503 rmoveto
          8 -7 4 -13 -5 -5 -1 -3 -4 vhcurveto
          -38 -35 -27 -28 -18 -19 -140 -152 -96 -132 -53 -115 rrcurveto
          -12 -26 -6 -16 -5 -52 callgsubr
          5 4 -52 callsubr
          1 vhcurveto
          10 27 7 18 4 8 47 98 103 130 161 163 32 33 25 24 17 16 rrcurveto
          -64 callsubr
          1 vvcurveto
          endchar
        </CharString>
        <CharString name="g">
          65 -454 15 443 34 362 -20 hstem
          -341 37 314 28 52 16 97 48 71 14 vstem
          347 -54 rmoveto
          3 -5 3 -11 2 vhcurveto
          -29 5 -41 3 -53 1 -24 45 -18 33 -13 22 25 20 23 32 22 45 21 42 12 38 4 34 rrcurveto
          51 24 25 34 45 vvcurveto
          23 -3 12 -7 -3 -1 -6 -12 -34 -20 -29 -40 -24 vhcurveto
          2 17 -3 18 -7 19 -8 21 -12 13 -15 3 rrcurveto
          1 -7 -7 1 -8 hhcurveto
          -37 -28 -19 -37 -19 hvcurveto
          -15 -29 -8 -35 -41 vvcurveto
          -11 1 -11 1 -12 vhcurveto
          -55 -60 -27 -54 -48 vvcurveto
          -26 12 -13 24 27 29 14 28 33 vhcurveto
          33 -83 -200 -5 -151 -59 -102 -119 rlinecurve
          -31 -36 -19 -31 -4 -25 rrcurveto
          -2 -9 0 -9 -9 vvcurveto
          -74 62 -37 123 85 85 25 51 87 vhcurveto
          100 58 50 65 79 vvcurveto
          33 -11 39 -23 46 vhcurveto
          13 20 -1 -3 25 hvcurveto
          -2 25 19 -1 12 hhcurveto
          11 5 2 5 hvcurveto
          -144 -101 rmoveto
          -69 -43 -62 -87 -62 vhcurveto
          -58 -81 -76 -29 -73 hhcurveto
          -35 -32 8 17 -29 hvcurveto
          -34 20 -17 26 33 vvcurveto
          11 2 11 5 12 vhcurveto
          31 82 65 59 101 43 78 33 92 20 105 5 rrcurveto
          19 -47 9 -34 -19 vvcurveto
          19 476 rmoveto
          -9 -1 -11 -1 -11 vhcurveto
          -59 -34 -23 -13 -18 -14 -13 -13 rlinecurve
          -1 3 0 4 4 vvcurveto
          19 3 19 7 20 vhcurveto
          6 19 10 20 13 19 rrcurveto
          25 17 16 12 16 hhcurveto
          19 9 -20 -39 hvcurveto
          -5 -60 rmoveto
          -24 -7 -32 -16 -40 vhcurveto
          -16 -42 -17 -28 -16 -15 -19 41 -13 38 -5 35 23 21 37 23 49 23 rrcurveto
          -89 -196 rmoveto
          -18 -23 -23 -9 -25 hhcurveto
          -13 -6 10 19 25 19 37 37 49 hvcurveto
          2 -17 4 -19 7 -22 3 -10 7 -18 11 -27 rrcurveto
          endchar
        </CharString>
        <CharString name="germandbls">
          377 -110 18 45 23 622 38 hstem
          525 27 56 29 vstem
          637 508 rmoveto
          36 -12 30 -23 25 vhcurveto
          25 -23 -29 12 -35 hhcurveto
          -81 -94 -106 -213 -108 hvcurveto
          -64 -127 -46 -82 -24 -37 rrcurveto
          -109 -71 -66 -54 -61 hhcurveto
          -5 -4 -3 -5 -3 hvcurveto
          -7 1 6 -3 12 hhcurveto
          50 58 40 79 65 hvcurveto
          47 58 54 82 59 107 38 69 36 69 39 69 rrcurveto
          91 51 56 44 58 hhcurveto
          27 21 -8 -15 17 hvcurveto
          17 -15 8 -20 -27 vvcurveto
          -38 -16 -35 -32 -33 vhcurveto
          -27 -28 -34 -21 -40 -14 -41 -10 -30 -6 -21 -3 rrcurveto
          -34 -5 -17 -9 -15 vvcurveto
          -11 12 -9 23 -6 vhcurveto
          49 -11 rlineto
          83 -24 42 -33 -41 vvcurveto
          -30 -25 -33 -51 -36 vhcurveto
          -37 -26 -50 -21 -64 -16 rrcurveto
          -15 -58 -54 -8 -51 hhcurveto
          -53 -26 -5 -9 -6 22 -3 43 58 62 9 18 66 hvcurveto
          73 20 57 25 41 31 rrcurveto
          49 38 25 38 39 vvcurveto
          31 -16 25 -31 20 vhcurveto
          -18 11 -29 12 -40 12 rrcurveto
          -31 9 -16 8 5 vvcurveto
          5 8 4 17 2 vhcurveto
          41 6 32 7 22 8 42 15 34 22 26 27 rrcurveto
          29 31 15 36 41 vvcurveto
          endchar
        </CharString>
        <CharString name="grave">
          4 403 -21 126 -20 hstem
          215 384 -96 callgsubr
        </CharString>
        <CharString name="greater">
          59 150 -21 hstem
          229 315 rmoveto
          -94 callsubr
          endchar
        </CharString>
        <CharString name="greaterequal">
          59 73 20 -92 callgsubr
          37 -358 rmoveto
          -69 callsubr
          -2 1 vhcurveto
          8 -16 -35 4 -55 hhcurveto
          -51 -32 -2 -5 -14 hvcurveto
          -2 -1 1 -4 3 callgsubr
          -6 rlinecurve
          -6 5 -34 callsubr
          20 30 2 4 40 hvcurveto
          4 40 30 2 21 hhcurveto
          4 -61 callgsubr
        </CharString>
        <CharString name="guillemotleft">
          161 442 -20 -92 callgsubr
          140 hmoveto
          4 -2 2 -4 -7 -6 -4 -7 -6 vhcurveto
          -14 -16 -22 -30 -30 -43 rrcurveto
          -35 -50 -18 -29 -7 -38 callsubr
          -2 2 -1 vhcurveto
          21 -17 22 -16 22 -18 23 -19 18 -20 15 -20 8 -4 rcurveline
          7 -1 4 5 9 vvcurveto
          7 -33 45 -65 82 vhcurveto
          66 92 33 51 10 vvcurveto
          endchar
        </CharString>
        <CharString name="guillemotright">
          161 150 -21 hstem
          385 315 rmoveto
          -94 callsubr
          -156 hmoveto
          -94 callsubr
          endchar
        </CharString>
        <CharString name="guilsinglleft">
          20 442 -20 -92 callgsubr
          endchar
        </CharString>
        <CharString name="guilsinglright">
          5 150 -21 hstem
          229 315 rmoveto
          -94 callsubr
          endchar
        </CharString>
        <CharString name="h">
          102 -8 24 hstem
          211 47 vstem
          389 18 rmoveto
          -78 callgsubr
          37 105 65 139 91 173 58 109 rcurveline
          -40 callsubr
          -97 -214 -70 -168 -42 -123 -84 callgsubr
          -369 10 -18 callgsubr
        </CharString>
        <CharString name="hbar">
          102 -8 24 435 -20 hstem
          211 47 vstem
          310 436 rmoveto
          -69 callsubr
          -3 1 vhcurveto
          -13 6 -23 4 -35 1 38 73 rcurveline
          58 109 rlineto
          -40 callsubr
          -51 -112 rcurveline
          -43 -1 -29 -2 -13 -4 -1 -1 rcurveline
          1 -4 3 callgsubr
          -6 rrcurveto
          -6 5 -34 callsubr
          13 17 1 1 22 hvcurveto
          -65 -148 -48 -121 -32 -94 -84 callgsubr
          -78 callgsubr
          30 84 48 107 65 129 rrcurveto
          3 35 26 2 19 hhcurveto
          5 2 2 3 hvcurveto
          -290 -408 -18 callgsubr
        </CharString>
        <CharString name="hungarumlaut">
          -61 369 -21 171 -20 hstem
          277 445 21 callgsubr
          -13 1 vhcurveto
          -8 1 -11 -4 -13 -7 -30 callgsubr
          -7 -3 -6 -5 -6 vhcurveto
          -14 -16 -7 -10 -2 -3 -25 -36 -11 -19 1 -1 rrcurveto
          -38 callgsubr
          -106 16 21 callgsubr
          -14 1 vhcurveto
          -7 -11 -3 -7 -13 hvcurveto
          -30 callgsubr
          -6 -3 -6 -5 -7 vhcurveto
          -23 -29 -25 -36 -11 -19 1 -1 rlinecurve
          -38 callgsubr
          endchar
        </CharString>
        <CharString name="hyphen">
          -79 callgsubr
        </CharString>
        <CharString name="i">
          -85 16 17 hstem
          20 26 vstem
          193 134 -97 callgsubr
          -1 283 rmoveto
          -69 callsubr
          -2 -21 callgsubr
          -3 -7 -7 -9 -80 callgsubr
          8 10 2 vvcurveto
          endchar
        </CharString>
        <CharString name="iacute">
          -85 16 17 hstem
          20 26 vstem
          193 134 -97 callgsubr
          49 277 rmoveto
          7 -71 callsubr
          2 callgsubr
          7 24 12 25 -44 callsubr
        </CharString>
        <CharString name="icircumflex">
          -85 -16 22 hstem
          1 22 vstem
          267 316 rmoveto
          -4 7 -46 -71 callgsubr
          -25 -16 -17 -2 -7 6 -8 rcurveline
          10 -11 callgsubr
          -14 29 -18 28 -17 19 -9 11 -1 rrcurveto
          -127 -71 -93 callsubr
          endchar
        </CharString>
        <CharString name="idieresis">
          -85 -16 22 hstem
          1 22 vstem
          136 239 -93 callsubr
          22 146 rmoveto
          -81 callsubr
          7 13 6 hvcurveto
          12 29 rlineto
          99 12 -79 callsubr
          7 7 13 5 hvcurveto
          13 29 rlineto
          endchar
        </CharString>
        <CharString name="igrave">
          -85 16 17 hstem
          20 26 vstem
          193 134 -97 callgsubr
          -32 204 rmoveto
          7 -53 callsubr
          -6 21 -16 43 -9 callgsubr
          6 hhcurveto
          3 -61 callgsubr
        </CharString>
        <CharString name="ij">
          113 -385 28 373 17 hstem
          -287 20 287 26 vstem
          375 -100 callsubr
          -32 149 -97 callgsubr
          -1 283 rmoveto
          -69 callsubr
          -2 -21 callgsubr
          -3 -7 -7 -9 -80 callgsubr
          8 10 2 vvcurveto
          194 -10 rmoveto
          -69 callsubr
          -1 -21 callgsubr
          -4 -8 -6 -8 -80 callgsubr
          7 10 2 vvcurveto
          endchar
        </CharString>
        <CharString name="infinity">
          469 154 17 1 32 238 28 hstem
          21 21 634 28 vstem
          704 389 rmoveto
          23 -7 21 -13 18 vhcurveto
          21 -15 -18 10 -23 hhcurveto
          -51 -72 -46 -93 -93 hvcurveto
          -1 52 -16 36 -29 18 rrcurveto
          14 -23 -26 7 -30 hhcurveto
          -59 -59 -23 -47 -57 hvcurveto
          -61 -49 -30 -54 -57 vvcurveto
          -57 37 -29 73 37 37 10 20 37 vhcurveto
          12 6 33 21 53 35 11 7 11 9 11 9 rrcurveto
          -66 29 -33 59 49 53 23 47 55 vhcurveto
          58 49 28 49 49 vvcurveto
          -28 -16 rmoveto
          -25 -5 -21 -9 -15 vhcurveto
          -16 -27 -24 -24 -34 -22 rrcurveto
          -23 -36 -33 -12 -29 hhcurveto
          -51 -26 34 67 -1 hvcurveto
          30 29 29 30 31 28 rrcurveto
          40 44 34 19 23 hhcurveto
          49 24 -26 -52 hvcurveto
          -301 -36 rmoveto
          -8 0 -11 -1 -13 vhcurveto
          -36 -35 -40 -31 -44 -24 rrcurveto
          -30 -53 -48 -14 -41 hhcurveto
          -47 -23 19 38 25 12 32 24 39 hvcurveto
          20 32 28 27 35 23 rrcurveto
          24 38 37 12 35 hhcurveto
          25 23 -5 -13 20 hvcurveto
          24 -15 12 -30 -42 vvcurveto
          endchar
        </CharString>
        <CharString name="integral">
          17 -180 18 794 18 hstem
          320 496 rmoveto
          2 11 2 10 10 vvcurveto
          28 -13 20 -29 -52 -32 -34 -49 -25 vhcurveto
          -108 -210 -43 -336 -187 -155 rrcurveto
          -18 -22 -26 -8 -27 hhcurveto
          -45 -41 25 48 15 2 12 14 21 hvcurveto
          16 callgsubr
          -1 -3 -19 callgsubr
          -2 vhcurveto
          -11 -12 rlineto
          -8 -19 -3 -16 -14 vvcurveto
          -49 42 -22 49 vhcurveto
          328 37 806 162 hhcurveto
          19 18 -10 -28 hvcurveto
          -14 -10 -8 -15 -52 callgsubr
          3 3 4 3 7 2 vhcurveto
          endchar
        </CharString>
        <CharString name="itilde">
          -135 -16 22 359 -60 callsubr
          hstemhm
          1 22 hintmask 10000100
          136 239 -93 callsubr
          hintmask 01111000
          159 174 -67 callgsubr
          -98 callgsubr
          endchar
        </CharString>
        <CharString name="j">
          -61 -385 28 hstem
          -461 20 vstem
          201 -100 callsubr
          161 422 rmoveto
          -69 callsubr
          -1 -21 callgsubr
          -4 -8 -6 -8 -80 callgsubr
          7 10 2 vvcurveto
          endchar
        </CharString>
        <CharString name="jcircumflex">
          -61 -385 28 hstem
          -461 20 vstem
          201 -100 callsubr
          240 383 rmoveto
          -6 5 callgsubr
          -24 11 callsubr
          2 -3 5 9 38 28 56 68 vhcurveto
          11 -13 23 -17 35 -22 37 -23 26 -12 13 -1 rrcurveto
          endchar
        </CharString>
        <CharString name="k">
          -94 callgsubr
          -185 -190 -46 callgsubr
        </CharString>
        <CharString name="kcommaaccent">
          -94 callgsubr
          -153 -385 -93 callgsubr
          -32 195 -46 callgsubr
        </CharString>
        <CharString name="kgreenlandic">
          133 -177 -21 665 35 hstem
          581 -166 rmoveto
          -23 -29 12 23 -34 hvcurveto
          5 callsubr
          81 128 3 6 33 42 rrcurveto
          66 54 41 40 58 hhcurveto
          33 43 -5 -20 22 hvcurveto
          25 -23 12 -28 -36 vvcurveto
          -9 1 -4 -55 callgsubr
          5 11 39 -11 34 -22 27 vhcurveto
          27 -22 -37 17 -34 hhcurveto
          -54 -60 -25 -70 -55 hvcurveto
          -36 -45 -26 -53 -15 callgsubr
          19 54 12 43 6 33 rrcurveto
          3 16 2 15 11 vvcurveto
          33 -65 -12 -6 -37 vhcurveto
          -15 -94 -23 -101 -35 -83 -62 callsubr
          -18 -2 6 -13 15 2 120 28 109 115 98 202 -28 callgsubr
          rrcurveto
          -8 -5 -12 -4 -14 -2 rrcurveto
          -3 -2 -2 -3 -6 5 -4 10 29 42 48 95 53 hvcurveto
          43 76 26 -52 25 -54 27 -52 rlinecurve
          30 -55 39 -46 44 -37 rrcurveto
          -42 48 47 -21 43 hhcurveto
          31 22 13 18 20 hvcurveto
          8 7 -3 3 -9 -4 rrcurveto
          -16 -7 -22 2 0 vvcurveto
          endchar
        </CharString>
        <CharString name="l">
          -96 0 17 hstem
          36 26 vstem
          341 679 rmoveto
          6 -6 3 -12 -21 -14 -5 -12 -6 vhcurveto
          -23 -42 -16 -32 -11 -22 -33 -68 -32 -67 -28 -67 -16 -38 -12 -29 -7 -19 -56 callgsubr
          2 6 12 11 23 17 vhcurveto
          -34 -92 -17 -64 -37 -25 callgsubr
          33 31 30 21 41 29 vhcurveto
          2 3 2 10 callgsubr
          -32 callsubr
          -3 1 -11 -10 -19 -23 vhcurveto
          -19 -23 -20 -9 -16 -29 callgsubr
          11 22 55 47 120 94 183 hvcurveto
          28 55 15 28 0 vvcurveto
          7 7 6 5 5 3 22 48 rcurveline
          54 120 rlineto
          -16 callgsubr
          2 1 vvcurveto
          endchar
        </CharString>
        <CharString name="ldot">
          -12 0 17 hstem
          36 26 vstem
          341 679 rmoveto
          6 -6 3 -12 -21 -14 -5 -12 -6 vhcurveto
          -23 -42 -16 -32 -11 -22 -33 -68 -32 -67 -28 -67 -16 -38 -12 -29 -7 -19 -56 callgsubr
          2 6 12 11 23 17 vhcurveto
          -34 -92 -17 -64 -37 -25 callgsubr
          33 31 30 21 41 29 vhcurveto
          2 3 2 10 callgsubr
          -32 callsubr
          -3 1 -11 -10 -19 -23 vhcurveto
          -19 -23 -20 -9 -16 -29 callgsubr
          11 22 55 47 120 94 183 hvcurveto
          28 55 15 28 0 vvcurveto
          7 7 6 5 5 3 22 48 rcurveline
          54 120 rlineto
          -16 callgsubr
          2 1 vvcurveto
          -78 -459 rmoveto
          6 -2 3 -3 -7 -13 -11 -21 -19 vhcurveto
          -12 -5 -6 -8 -12 -44 callgsubr
          -7 5 -8 6 callsubr
          13 10 11 22 7 hvcurveto
          7 25 4 16 5 vvcurveto
          endchar
        </CharString>
        <CharString name="less">
          59 442 -20 -92 callgsubr
          endchar
        </CharString>
        <CharString name="lessequal">
          59 73 20 hstem
          229 315 rmoveto
          -94 callsubr
          20 -237 rmoveto
          -69 callsubr
          -2 1 vhcurveto
          8 -16 -35 4 -55 hhcurveto
          -51 -32 -2 -5 -14 hvcurveto
          -2 -1 1 -4 3 callgsubr
          -6 rlinecurve
          -6 5 -34 callsubr
          20 30 2 4 40 hvcurveto
          4 40 30 2 21 hhcurveto
          4 -61 callgsubr
        </CharString>
        <CharString name="logicalnot">
          -259 endchar
        </CharString>
        <CharString name="lozenge">
          149 47 297 vstem
          344 334 rmoveto
          5 -1 5 -1 3 vhcurveto
          -31 60 -24 45 -16 29 -24 55 -17 42 -10 27 rrcurveto
          10 -4 -4 5 -4 hhcurveto
          -5 -5 -5 -9 -5 hvcurveto
          -97 -177 -49 -101 -25 vvcurveto
          -5 1 -5 2 -4 vhcurveto
          56 -108 23 -43 16 -37 12 -31 rlinecurve
          6 -17 6 -12 3 -9 rrcurveto
          -8 3 3 -4 5 hhcurveto
          5 6 4 8 4 hvcurveto
          13 23 8 19 7 12 rrcurveto
          78 147 40 82 19 vvcurveto
          -48 -38 rmoveto
          -49 -101 -36 -75 -25 -49 -39 121 -30 90 -22 60 110 225 rcurveline
          39 -121 30 -91 22 -59 rrcurveto
          endchar
        </CharString>
        <CharString name="lslash">
          -96 0 17 hstem
          36 26 vstem
          440 419 rmoveto
          5 -3 2 -5 -12 -26 -3 -7 -39 vhcurveto
          -49 -8 -52 -14 -54 -20 -18 -7 rcurveline
          6 13 8 14 7 14 rrcurveto
          28 55 15 28 0 vvcurveto
          7 7 6 5 5 3 22 48 rcurveline
          54 120 rlineto
          -16 callgsubr
          2 1 vvcurveto
          6 -6 3 -12 -21 -14 -5 -12 -6 vhcurveto
          -23 -42 -16 -32 -11 -22 -33 -68 -32 -67 -28 -67 -13 -30 rcurveline
          -72 -31 -41 -18 -31 -12 -21 -9 rlinecurve
          -3 -1 -1 -3 -6 vvcurveto
          -16 4 -8 9 2 22 8 18 41 vhcurveto
          24 10 24 10 24 11 -3 -9 rcurveline
          -56 callgsubr
          2 6 12 11 23 17 vhcurveto
          -34 -92 -17 -64 -37 -25 callgsubr
          33 31 30 21 41 29 vhcurveto
          2 3 2 10 callgsubr
          -32 callsubr
          -3 1 -11 -10 -19 -23 vhcurveto
          -19 -23 -20 -9 -16 -29 callgsubr
          11 22 45 32 91 64 133 hvcurveto
          49 21 67 29 60 20 51 12 rlinecurve
          21 5 16 3 11 2 rrcurveto
          5 1 2 3 4 vvcurveto
          endchar
        </CharString>
        <CharString name="m">
          237 8 17 290 -20 hstem
          351 43 vstem
          349 244 rmoveto
          3 -17 callsubr
          -3 -47 callsubr
          -3 vhcurveto
          -28 -44 -31 -38 -35 -31 rrcurveto
          1 9 25 19 47 vhcurveto
          15 38 8 22 7 vvcurveto
          15 -9 7 -19 -19 -14 -5 -13 -9 vhcurveto
          -35 -50 -24 -40 -15 -27 -20 -27 -30 -37 -41 -47 41 109 31 81 23 53 rrcurveto
          21 9 11 7 7 vvcurveto
          -56 callsubr
          vhcurveto
          0 -8 -4 -16 -7 vhcurveto
          8 3 -4 4 -9 hhcurveto
          -23 -17 -11 -23 -10 hvcurveto
          -44 -12 rlineto
          -19 callgsubr
          -3 -5 vvcurveto
          -8 1 -12 3 -17 vhcurveto
          2 -17 1 -12 -8 vvcurveto
          -23 -1 -17 -2 -11 vhcurveto
          -9 -49 -10 -38 -11 -28 -3 -7 -1 -5 1 -1 rrcurveto
          -1 -3 -1 -1 -1 -32 callgsubr
          -3 6 15 9 9 18 2 vhcurveto
          99 113 39 45 30 39 23 35 rlinecurve
          -19 -2 -21 -6 -24 vhcurveto
          -16 -63 rlineto
          -7 -29 -4 -17 -7 -44 callgsubr
          -2 5 7 4 2 3 2 vhcurveto
          23 29 22 30 22 29 rrcurveto
          35 48 18 29 9 vvcurveto
          169 -213 rmoveto
          -39 callsubr
          -3 -3 -6 -2 -3 -8 vhcurveto
          -3 -7 -6 -1 -5 hhcurveto
          -29 -22 23 46 -16 hvcurveto
          -12 34 -5 35 35 vvcurveto
          15 1 14 2 13 vhcurveto
          14 2 2 7 1 hhcurveto
          3 -1 -4 2 -7 hhcurveto
          -17 -10 -4 -7 -4 hvcurveto
          -6 -11 -2 -19 -25 vvcurveto
          -41 8 -40 17 -38 vhcurveto
          -49 21 29 -24 36 hhcurveto
          7 12 3 5 15 hvcurveto
          15 5 7 5 5 vvcurveto
          -424 233 rmoveto
          -7 -18 -8 -21 -7 -23 rrcurveto
          18 -2 18 -3 17 vhcurveto
          endchar
        </CharString>
        <CharString name="macron">
          37 451 -20 hstem
          257 436 rmoveto
          -69 callsubr
          -3 1 vhcurveto
          8 -16 -35 4 -54 hhcurveto
          -51 -32 -2 -5 -15 hvcurveto
          -1 -1 1 -4 3 callgsubr
          -6 rlinecurve
          -6 5 -34 callsubr
          20 30 2 4 40 hvcurveto
          4 40 30 2 20 hhcurveto
          5 -61 callgsubr
        </CharString>
        <CharString name="minus">
          -31 101 38 hstem
          218 121 -74 callgsubr
          endchar
        </CharString>
        <CharString name="mu">
          38 -503 12 498 22 308 -20 hstem
          -133 59 274 32 vstem
          319 57 rmoveto
          4 -1 -39 callsubr
          -7 -6 -11 -13 vhcurveto
          -11 -13 -11 -6 -11 hhcurveto
          -20 -10 16 32 46 7 49 15 51 hvcurveto
          13 17 6 19 19 vvcurveto
          7 -7 4 -14 -9 -5 -3 -4 -4 vhcurveto
          -10 -13 -10 -30 -7 -49 -6 -10 rcurveline
          -38 -63 -47 -47 -49 -37 14 43 15 42 14 42 rrcurveto
          18 53 8 44 33 vvcurveto
          31 -6 16 -13 -12 -8 -9 -17 -4 vhcurveto
          -10 -39 -21 -45 -28 -50 rrcurveto
          -22 -39 -11 -20 1 vvcurveto
          -3 2 -1 3 -24 callsubr
          1 vhcurveto
          11 15 17 25 21 36 23 39 13 26 4 13 rrcurveto
          -41 -9 -46 -17 -50 vhcurveto
          -9 -27 -18 -44 -28 -59 -62 -134 rcurveline
          -39 -84 -20 -64 -43 vvcurveto
          -3 vlineto
          -33 12 -29 -60 callgsubr
          56 15 69 29 82 hvcurveto
          13 38 0 14 41 95 75 55 51 53 27 53 rrcurveto
          -3 -33 -2 -28 -24 vvcurveto
          -49 14 -25 29 28 25 16 32 23 vhcurveto
          endchar
        </CharString>
        <CharString name="multiply">
          19 57 23 hstem
          251 84 rmoveto
          -3 3 rlineto
          -3 -3 -1 -3 -5 hvcurveto
          -2 -5 -4 -1 -3 hhcurveto
          -15 -15 10 19 -17 hvcurveto
          -15 17 -9 17 -5 16 53 53 28 30 1 6 -2 2 rcurveline
          -7 -15 -11 -22 -22 hvcurveto
          -14 -14 -13 -16 -14 -15 -9 31 -9 23 -7 13 rrcurveto
          4 -2 -3 2 -4 hhcurveto
          -11 -5 -3 -6 -11 11 -27 22 -42 hvcurveto
          -55 -57 -27 -34 -12 -52 callgsubr
          5 3 -52 callsubr
          3 vhcurveto
          32 39 23 31 15 21 6 -19 10 -17 13 -17 rrcurveto
          -21 17 16 -11 16 hhcurveto
          7 9 3 6 10 hvcurveto
          10 6 5 6 6 vvcurveto
          endchar
        </CharString>
        <CharString name="n">
          29 333 -99 callgsubr
          -250 163 -45 callgsubr
        </CharString>
        <CharString name="nacute">
          29 333 -99 callgsubr
          -5 343 -101 callsubr
          -245 -180 -45 callgsubr
        </CharString>
        <CharString name="nbspace">
          -63 endchar
        </CharString>
        <CharString name="nine">
          330 156 13 364 -20 hstem
          29 52 89 25 361 32 vstem
          588 477 rmoveto
          21 -20 14 -39 10 vhcurveto
          7 -27 -29 4 -31 hhcurveto
          -63 -61 -11 -22 -58 hvcurveto
          -48 -18 -49 -33 -50 -48 rrcurveto
          -56 -54 -28 -50 -44 vvcurveto
          -30 12 -24 25 -18 vhcurveto
          -16 22 27 -9 31 hhcurveto
          52 70 41 81 89 hvcurveto
          -125 -169 -62 -120 -71 vvcurveto
          -16 4 -14 7 -13 vhcurveto
          -15 9 12 -7 15 hhcurveto
          3 2 -24 callsubr
          -5 5 -10 9 hvcurveto
          -8 7 -4 13 18 vvcurveto
          37 27 61 54 85 vhcurveto
          31 49 49 70 69 93 rrcurveto
          54 73 27 40 7 vvcurveto
          10 -6 5 -12 -11 -14 -9 -20 -16 vhcurveto
          -12 -14 -10 -16 -12 -14 -39 -45 -41 -40 -43 -35 rrcurveto
          -50 -61 -49 -25 -35 hhcurveto
          -43 -21 24 48 49 20 49 39 50 hvcurveto
          36 46 42 32 48 20 rrcurveto
          17 42 46 9 50 hhcurveto
          32 30 -4 -7 28 hvcurveto
          41 -10 21 -15 -21 vvcurveto
          -8 18 callsubr
          -7 vhcurveto
          -5 -7 -2 -4 15 callgsubr
          2 6 9 8 16 11 vhcurveto
          11 16 6 11 7 vvcurveto
          endchar
        </CharString>
        <CharString name="notequal">
          89 65 29 84 14 hstem
          302 79 -54 callgsubr
          1 vhcurveto
          9 -17 -45 3 -71 hhcurveto
          -19 hlineto
          64 81 rlineto
          1 22 28 0 35 9 callsubr
          1 3 4 -11 4 -23 2 hvcurveto
          -43 3 rlineto
          30 39 15 21 3 vvcurveto
          3 -2 1 -3 -9 -12 -8 -18 -14 vhcurveto
          -10 -13 -10 -13 -9 -13 rrcurveto
          1 -13 -17 1 -20 hhcurveto
          -47 -31 -2 -5 -17 hvcurveto
          -1 -1 rlineto
          -4 3 callgsubr
          -6 vhcurveto
          -6 5 -34 callsubr
          14 18 1 2 23 hvcurveto
          3 28 18 2 8 hhcurveto
          -64 -81 -39 -2 -21 -2 -4 -1 rlinecurve
          -1 -1 rlineto
          -3 3 callgsubr
          -7 vhcurveto
          -6 5 -34 callsubr
          1 8 0 1 13 hvcurveto
          -25 -33 -14 -18 -2 -5 rrcurveto
          -3 2 -2 5 9 12 8 18 14 vhcurveto
          10 12 9 13 9 13 rrcurveto
          5 53 57 3 60 9 callsubr
          1 2 hvcurveto
          endchar
        </CharString>
        <CharString name="ntilde">
          29 -21 20 361 22 34 -99 callgsubr
          -4 257 rmoveto
          -2 2 -2 -1 -6 -3 -11 -7 rlinecurve
          -12 callgsubr
          -18 6 -11 hhcurveto
          -7 -10 -33 callgsubr
          -14 -10 -7 -8 -6 vvcurveto
          3 -4 rlineto
          2 6 4 8 11 hvcurveto
          8 10 10 4 9 hhcurveto
          13 21 -6 -12 28 hvcurveto
          -12 27 21 -6 15 hhcurveto
          7 9 5 11 12 hvcurveto
          12 11 6 8 1 6 rrcurveto
          -246 -94 -45 callgsubr
        </CharString>
</ttFont>
